<?xml version="1.0" encoding="UTF-8"?>
<svg width="750px" height="500px" viewBox="0 0 750 500" version="1.1" xmlns="http://www.w3.org/2000/svg" xmlns:xlink="http://www.w3.org/1999/xlink">
    <defs>
        <polygon id="path-1" points="0 0 750 0 750 500 0 500"></polygon>
    </defs>
    <g id="Page-1" stroke="none" stroke-width="1" fill="none" fill-rule="evenodd">
        <g id="Group">
            <g id="Group-3">
                <mask id="mask-2" fill="white">
                    <use xlink:href="#path-1"></use>
                </mask>
                <g id="Clip-2"></g>
                <polygon id="Fill-1" fill="#6CB96A" mask="url(#mask-2)" points="0 500 750 500 750 0 0 0"></polygon>
            </g>
            <path d="M559,396.291 C559,393.095 476.62,390.504 375,390.504 C273.379,390.504 191,393.095 191,396.291 C191,399.486 273.379,402.078 375,402.078 C476.62,402.078 559,399.486 559,396.291" id="Fill-4" fill="#57AA5C"></path>
            <path d="M534.31,423.246 C534.31,420.05 462.984,417.459 375,417.459 C287.016,417.459 215.69,420.05 215.69,423.246 C215.69,426.442 287.016,429.033 375,429.033 C462.984,429.033 534.31,426.442 534.31,423.246" id="Fill-5" fill="#57AA5C"></path>
            <path d="M419.967,412.765 L287.954,412.765 L287.954,423.058 L436.452,423.058 L432.894,418.804 C429.69,414.977 424.957,412.765 419.967,412.765" id="Fill-6" fill="#FFFFFE"></path>
            <path d="M296.884,412.765 L259.493,412.765 C258.274,412.765 257.287,413.753 257.287,414.971 L257.287,420.852 C257.287,422.07 258.274,423.058 259.493,423.058 L313.369,423.058 L309.81,418.804 C306.607,414.977 301.874,412.765 296.884,412.765" id="Fill-7" fill="#C0E3E8"></path>
            <path d="M282.23,408.564 L273.723,408.564 C272.592,408.564 271.675,409.481 271.675,410.612 L271.675,412.765 L284.278,412.765 L284.278,410.612 C284.278,409.481 283.361,408.564 282.23,408.564" id="Fill-8" fill="#253146"></path>
            <path d="M300.294,408.564 L291.788,408.564 C290.657,408.564 289.74,409.481 289.74,410.612 L289.74,412.765 L302.342,412.765 L302.342,410.612 C302.342,409.481 301.426,408.564 300.294,408.564" id="Fill-9" fill="#253146"></path>
            <path d="M318.359,408.564 L309.853,408.564 C308.721,408.564 307.805,409.481 307.805,410.612 L307.805,412.765 L320.407,412.765 L320.407,410.612 C320.407,409.481 319.49,408.564 318.359,408.564" id="Fill-10" fill="#253146"></path>
            <path d="M336.424,408.564 L327.917,408.564 C326.786,408.564 325.869,409.481 325.869,410.612 L325.869,412.765 L338.472,412.765 L338.472,410.612 C338.472,409.481 337.555,408.564 336.424,408.564" id="Fill-11" fill="#253146"></path>
            <path d="M372.553,408.564 L364.046,408.564 C362.916,408.564 361.999,409.481 361.999,410.612 L361.999,412.765 L374.601,412.765 L374.601,410.612 C374.601,409.481 373.684,408.564 372.553,408.564" id="Fill-12" fill="#253146"></path>
            <path d="M390.618,408.564 L382.111,408.564 C380.98,408.564 380.063,409.481 380.063,410.612 L380.063,412.765 L392.666,412.765 L392.666,410.612 C392.666,409.481 391.749,408.564 390.618,408.564" id="Fill-13" fill="#253146"></path>
            <path d="M408.683,408.564 L400.176,408.564 C399.045,408.564 398.128,409.481 398.128,410.612 L398.128,412.765 L410.73,412.765 L410.73,410.612 C410.73,409.481 409.813,408.564 408.683,408.564" id="Fill-14" fill="#253146"></path>
            <path d="M284.961,408.564 L276.454,408.564 C275.323,408.564 274.406,409.481 274.406,410.612 L274.406,412.765 L287.009,412.765 L287.009,410.612 C287.009,409.481 286.092,408.564 284.961,408.564" id="Fill-15" fill="#364F85"></path>
            <path d="M303.025,408.564 L294.519,408.564 C293.388,408.564 292.471,409.481 292.471,410.612 L292.471,412.765 L305.074,412.765 L305.074,410.612 C305.074,409.481 304.157,408.564 303.025,408.564" id="Fill-16" fill="#364F85"></path>
            <path d="M321.09,408.564 L312.583,408.564 C311.452,408.564 310.536,409.481 310.536,410.612 L310.536,412.765 L323.138,412.765 L323.138,410.612 C323.138,409.481 322.221,408.564 321.09,408.564" id="Fill-17" fill="#364F85"></path>
            <path d="M357.22,408.564 L330.648,408.564 C329.517,408.564 328.6,409.481 328.6,410.612 L328.6,412.765 L359.268,412.765 L359.268,410.612 C359.268,409.481 358.351,408.564 357.22,408.564" id="Fill-18" fill="#364F85"></path>
            <path d="M375.284,408.564 L366.777,408.564 C365.646,408.564 364.729,409.481 364.729,410.612 L364.729,412.765 L377.332,412.765 L377.332,410.612 C377.332,409.481 376.415,408.564 375.284,408.564" id="Fill-19" fill="#364F85"></path>
            <path d="M393.349,408.564 L384.842,408.564 C383.711,408.564 382.794,409.481 382.794,410.612 L382.794,412.765 L395.396,412.765 L395.396,410.612 C395.396,409.481 394.479,408.564 393.349,408.564" id="Fill-20" fill="#364F85"></path>
            <path d="M411.414,408.564 L402.907,408.564 C401.775,408.564 400.858,409.481 400.858,410.612 L400.858,412.765 L413.462,412.765 L413.462,410.612 C413.462,409.481 412.545,408.564 411.414,408.564" id="Fill-21" fill="#364F85"></path>
            <path d="M288.279,101.223 L268.458,101.223 C262.454,101.223 257.587,106.089 257.587,112.093 L257.587,126.16 C257.587,130.92 260.652,134.956 264.913,136.427 L265.26,143.965 L275.026,137.03 L288.279,137.03 C294.282,137.03 299.149,132.163 299.149,126.16 L299.149,112.093 C299.149,106.089 294.282,101.223 288.279,101.223" id="Fill-22" fill="#BFE3E7"></path>
            <path d="M312.225,81.285 L286.074,81.285 C278.154,81.285 271.733,87.706 271.733,95.626 L271.733,114.184 C271.733,122.104 278.154,128.525 286.074,128.525 L303.559,128.525 L316.442,137.675 L316.901,127.729 C322.521,125.788 326.565,120.464 326.565,114.184 L326.565,95.626 C326.565,87.706 320.145,81.285 312.225,81.285" id="Fill-23" fill="#FFFFFE"></path>
            <text id="&lt;-/-&gt;" font-family="LucidaGrande, Lucida Grande" font-size="22.7399" font-weight="normal" fill="#1D783E">
                <tspan x="278.368" y="108.436438">&lt; / &gt;</tspan>
            </text>
            <polyline id="Fill-24" fill="#A2D7DC" points="398.799 387.945 353.512 387.945 359.671 342.659 392.64 342.659 398.799 387.945"></polyline>
            <path d="M320.522,396.291 L321.341,395.031 C324.214,390.611 329.127,387.945 334.399,387.945 L412.288,387.945 C417.759,387.945 422.828,390.815 425.643,395.506 L426.113,396.291 L320.522,396.291" id="Fill-25" fill="#C0E3E8"></path>
            <path d="M509.72,161.145 L509.72,336.275 C509.72,339.805 506.86,342.655 503.34,342.655 L237.36,342.655 C233.83,342.655 230.97,339.805 230.97,336.275 L230.97,161.145 C230.97,160.985 230.97,160.825 230.98,160.665 C231.13,155.825 235.04,151.915 239.88,151.765 C240.04,151.755 240.2,151.755 240.36,151.755 L500.52,151.755 C500.62,151.755 500.72,151.765 500.82,151.765 C505.66,151.915 509.56,155.815 509.71,160.665 C509.72,160.825 509.72,160.985 509.72,161.145" id="Fill-26" fill="#C0E3E8"></path>
            <path d="M230.975,161.144 L230.975,306.991 L509.723,306.991 L509.723,161.144 C509.723,155.961 505.521,151.76 500.339,151.76 L240.359,151.76 C235.176,151.76 230.975,155.961 230.975,161.144" id="Fill-27" fill="#1D2634"></path>
            <path d="M519.03,160.855 L519.03,336.275 C519.03,339.805 516.17,342.655 512.64,342.655 L246.66,342.655 C243.14,342.655 240.28,339.805 240.28,336.275 L240.28,160.855 C240.28,160.735 240.28,160.615 240.29,160.495 C240.53,155.785 244.3,152.005 249.01,151.765 C249.13,151.755 249.25,151.755 249.37,151.755 L509.93,151.755 C510.05,151.755 510.17,151.755 510.29,151.765 C515.01,152.005 518.78,155.775 519.02,160.495 C519.03,160.615 519.03,160.735 519.03,160.855" id="Fill-28" fill="#FFFFFE"></path>
            <path d="M388.764,329.573 C391.386,325.924 390.553,320.84 386.903,318.217 C383.254,315.595 378.169,316.428 375.547,320.077 C372.924,323.727 373.757,328.812 377.407,331.434 C381.057,334.056 386.141,333.223 388.764,329.573" id="Fill-29" fill="#C0E3E8"></path>
            <path d="M329.642,396.291 L330.46,395.031 C333.333,390.611 338.247,387.945 343.519,387.945 L421.407,387.945 C426.878,387.945 431.947,390.815 434.762,395.506 L435.232,396.291 L329.642,396.291" id="Fill-30" fill="#FFFFFE"></path>
            <path d="M240.277,160.853 L240.277,306.991 L519.025,306.991 L519.025,160.853 C519.025,155.831 514.954,151.76 509.933,151.76 L249.37,151.76 C244.348,151.76 240.277,155.831 240.277,160.853" id="Fill-31" fill="#253146"></path>
            <path d="M249.458,166.114 L249.458,293.889 C249.458,296.631 251.681,298.854 254.423,298.854 L506.758,298.854 C509.5,298.854 511.723,296.631 511.723,293.889 L511.723,166.114 C511.723,163.372 509.5,161.149 506.758,161.149 L254.423,161.149 C251.681,161.149 249.458,163.372 249.458,166.114" id="Fill-32" fill="#364F85"></path>
            <polyline id="Fill-33" fill="#C0E3E8" points="404.799 387.945 359.512 387.945 365.671 342.659 398.64 342.659 404.799 387.945"></polyline>
            <path d="M511.723,182.358 L249.458,182.358 L249.458,165.614 C249.458,163.148 251.457,161.149 253.923,161.149 L507.258,161.149 C509.724,161.149 511.723,163.148 511.723,165.614 L511.723,182.358" id="Fill-34" fill="#FFFFFE"></path>
            <path d="M475.796,171.753 C475.796,170.082 474.44,168.726 472.769,168.726 C471.097,168.726 469.741,170.082 469.741,171.753 C469.741,173.426 471.097,174.781 472.769,174.781 C474.44,174.781 475.796,173.426 475.796,171.753" id="Fill-35" fill="#E15B33"></path>
            <path d="M487.262,171.753 C487.262,170.082 485.906,168.726 484.234,168.726 C482.563,168.726 481.207,170.082 481.207,171.753 C481.207,173.426 482.563,174.781 484.234,174.781 C485.906,174.781 487.262,173.426 487.262,171.753" id="Fill-36" fill="#1F9F4D"></path>
            <path d="M498.728,171.753 C498.728,170.082 497.372,168.726 495.7,168.726 C494.028,168.726 492.673,170.082 492.673,171.753 C492.673,173.426 494.028,174.781 495.7,174.781 C497.372,174.781 498.728,173.426 498.728,171.753" id="Fill-37" fill="#F8D349"></path>
            <polygon id="Fill-38" fill="#E15B33" points="267.477 203.071 282.046 203.071 282.046 197.738 267.477 197.738"></polygon>
            <polygon id="Fill-39" fill="#F8D349" points="290.095 203.071 316.379 203.071 316.379 197.738 290.095 197.738"></polygon>
            <polygon id="Fill-40" fill="#FFFFFE" points="277.483 214.405 332.077 214.405 332.077 209.071 277.483 209.071"></polygon>
            <polygon id="Fill-41" fill="#4EBFDC" points="340.126 214.405 354.695 214.405 354.695 209.071 340.126 209.071"></polygon>
            <polygon id="Fill-42" fill="#FFFFFE" points="277.483 225.738 332.077 225.738 332.077 220.405 277.483 220.405"></polygon>
            <polygon id="Fill-43" fill="#4EBFDC" points="340.126 225.738 354.695 225.738 354.695 220.405 340.126 220.405"></polygon>
            <polygon id="Fill-44" fill="#FFFFFE" points="277.483 237.071 332.077 237.071 332.077 231.738 277.483 231.738"></polygon>
            <polygon id="Fill-45" fill="#4EBFDC" points="340.126 237.071 354.695 237.071 354.695 231.738 340.126 231.738"></polygon>
            <polygon id="Fill-46" fill="#E15B33" points="267.477 248.405 282.046 248.405 282.046 243.071 267.477 243.071"></polygon>
            <polygon id="Fill-47" fill="#F8D349" points="290.095 248.405 316.379 248.405 316.379 243.071 290.095 243.071"></polygon>
            <polygon id="Fill-48" fill="#4EBFDC" points="277.483 259.738 304.78 259.738 304.78 254.405 277.483 254.405"></polygon>
            <polygon id="Fill-49" fill="#FFFFFE" points="312.83 259.738 354.695 259.738 354.695 254.405 312.83 254.405"></polygon>
            <polygon id="Fill-50" fill="#4EBFDC" points="277.483 271.071 304.78 271.071 304.78 265.738 277.483 265.738"></polygon>
            <polygon id="Fill-51" fill="#FFFFFE" points="312.83 271.071 354.695 271.071 354.695 265.738 312.83 265.738"></polygon>
            <polygon id="Fill-52" fill="#4EBFDC" points="277.483 282.405 304.78 282.405 304.78 277.071 277.483 277.071"></polygon>
            <polygon id="Fill-53" fill="#FFFFFE" points="312.83 282.405 354.695 282.405 354.695 277.071 312.83 277.071"></polygon>
            <polygon id="Fill-54" fill="#F8D349" points="404.607 203.071 419.176 203.071 419.176 197.738 404.607 197.738"></polygon>
            <polygon id="Fill-55" fill="#1F9F4D" points="427.226 203.071 453.51 203.071 453.51 197.738 427.226 197.738"></polygon>
            <polygon id="Fill-56" fill="#FFFFFE" points="414.614 214.405 427.226 214.405 427.226 209.071 414.614 209.071"></polygon>
            <polygon id="Fill-57" fill="#4EBFDC" points="435.274 214.405 491.825 214.405 491.825 209.071 435.274 209.071"></polygon>
            <polygon id="Fill-58" fill="#FFFFFE" points="414.614 225.738 427.226 225.738 427.226 220.405 414.614 220.405"></polygon>
            <polygon id="Fill-59" fill="#E15B33" points="435.274 225.738 491.825 225.738 491.825 220.405 435.274 220.405"></polygon>
            <polygon id="Fill-60" fill="#FFFFFE" points="414.614 237.071 427.226 237.071 427.226 231.738 414.614 231.738"></polygon>
            <polygon id="Fill-61" fill="#4EBFDC" points="435.274 237.071 491.825 237.071 491.825 231.738 435.274 231.738"></polygon>
            <polygon id="Fill-62" fill="#F8D349" points="404.607 248.405 419.176 248.405 419.176 243.071 404.607 243.071"></polygon>
            <polygon id="Fill-63" fill="#1F9F4D" points="427.226 248.405 453.51 248.405 453.51 243.071 427.226 243.071"></polygon>
            <polygon id="Fill-64" fill="#4EBFDC" points="414.614 259.738 459.525 259.738 459.525 254.405 414.614 254.405"></polygon>
            <polygon id="Fill-65" fill="#FFFFFE" points="467.574 259.738 491.825 259.738 491.825 254.405 467.574 254.405"></polygon>
            <polygon id="Fill-66" fill="#1F9F4D" points="414.614 271.071 459.525 271.071 459.525 265.738 414.614 265.738"></polygon>
            <polygon id="Fill-67" fill="#FFFFFE" points="467.574 271.071 491.825 271.071 491.825 265.738 467.574 265.738"></polygon>
            <polygon id="Fill-68" fill="#4EBFDC" points="414.614 282.405 459.525 282.405 459.525 277.071 414.614 277.071"></polygon>
            <polygon id="Fill-69" fill="#FFFFFE" points="467.574 282.405 491.825 282.405 491.825 277.071 467.574 277.071"></polygon>
            <path d="M379.151,194.738 L379.151,291.025 C379.151,291.302 379.375,291.525 379.651,291.525 C379.928,291.525 380.151,291.302 380.151,291.025 L380.151,194.738 C380.151,194.462 379.928,194.238 379.651,194.238 C379.375,194.238 379.151,194.462 379.151,194.738" id="Fill-70" fill="#1D2634"></path>
            <path d="M413.872,139.52 C414.818,133.364 418.162,128.815 422.123,128.832 C424.034,128.84 425.793,129.91 427.202,131.707 C428.932,126.344 432.32,122.7 436.205,122.716 C438.243,122.725 440.135,123.742 441.718,125.48 C443.927,120.126 447.619,116.62 451.789,116.637 C458.497,116.666 463.896,125.8 463.85,137.04 C463.846,137.952 463.803,138.847 463.729,139.727 L413.872,139.52" id="Fill-71" fill="#FFFFFE"></path>
            <polyline id="Fill-72" fill="#1F9F4D" points="449.851 144.323 449.899 132.727 434.205 132.661 434.156 144.258 430.026 144.241 441.943 158.713 453.98 144.34 449.851 144.323"></polyline>
            <path d="M267.453,387.474 L216.123,387.474 C214.086,387.474 212.434,385.821 212.434,383.783 L212.434,321.676 C212.434,319.638 214.086,317.985 216.123,317.985 L267.453,317.985 C269.491,317.985 271.143,319.638 271.143,321.676 L271.143,383.783 C271.143,385.821 269.491,387.474 267.453,387.474" id="Fill-73" fill="#1D2634"></path>
            <polygon id="Fill-74" fill="#E15B33" points="225.287 329.301 230.8 329.301 230.8 327.029 225.287 327.029"></polygon>
            <polygon id="Fill-75" fill="#F8D349" points="233.846 329.301 243.791 329.301 243.791 327.029 233.846 327.029"></polygon>
            <polygon id="Fill-76" fill="#FFFFFE" points="229.074 334.129 249.731 334.129 249.731 331.857 229.074 331.857"></polygon>
            <polygon id="Fill-77" fill="#4EBFDC" points="252.777 334.129 258.29 334.129 258.29 331.857 252.777 331.857"></polygon>
            <polygon id="Fill-78" fill="#FFFFFE" points="229.074 338.957 249.731 338.957 249.731 336.686 229.074 336.686"></polygon>
            <polygon id="Fill-79" fill="#4EBFDC" points="252.777 338.957 258.29 338.957 258.29 336.686 252.777 336.686"></polygon>
            <polygon id="Fill-80" fill="#FFFFFE" points="229.074 343.785 249.731 343.785 249.731 341.514 229.074 341.514"></polygon>
            <polygon id="Fill-81" fill="#4EBFDC" points="252.777 343.785 258.29 343.785 258.29 341.514 252.777 341.514"></polygon>
            <polygon id="Fill-82" fill="#E15B33" points="225.287 348.613 230.8 348.613 230.8 346.342 225.287 346.342"></polygon>
            <polygon id="Fill-83" fill="#F8D349" points="233.846 348.613 243.791 348.613 243.791 346.342 233.846 346.342"></polygon>
            <polygon id="Fill-84" fill="#4EBFDC" points="229.074 353.441 239.402 353.441 239.402 351.17 229.074 351.17"></polygon>
            <polygon id="Fill-85" fill="#FFFFFE" points="242.448 353.441 258.29 353.441 258.29 351.17 242.448 351.17"></polygon>
            <polygon id="Fill-86" fill="#4EBFDC" points="229.074 358.27 239.402 358.27 239.402 355.998 229.074 355.998"></polygon>
            <polygon id="Fill-87" fill="#FFFFFE" points="242.448 358.27 258.29 358.27 258.29 355.998 242.448 355.998"></polygon>
            <polygon id="Fill-88" fill="#4EBFDC" points="229.074 363.098 239.402 363.098 239.402 360.826 229.074 360.826"></polygon>
            <polygon id="Fill-89" fill="#FFFFFE" points="242.448 363.098 258.29 363.098 258.29 360.826 242.448 360.826"></polygon>
            <polyline id="Fill-90" fill="#F6C724" points="275.331 396.291 208.245 396.291 208.245 349.468 241.788 377.668 275.331 349.468 275.331 396.291"></polyline>
            <polyline id="Fill-91" fill="#F8D349" points="208.245 396.291 241.788 357.316 275.331 396.291 208.245 396.291"></polyline>
            <path d="M484.803,412.975 C463.999,412.975 468.387,414.975 466.22,423.058 L509.347,423.058 C510.312,423.058 510.968,421.992 510.451,421.177 C507.694,416.816 495.925,412.975 484.803,412.975" id="Fill-92" fill="#FFFFFE"></path>
            <path d="M472.83,413.873 C466.19,413.873 463.648,417.27 463.241,421.697 C463.173,422.43 463.77,423.058 464.505,423.058 L489.637,423.058 C489.637,417.985 480.136,413.873 472.83,413.873" id="Fill-93" fill="#C0E3E8"></path>
            <path d="M483.169,413.123 C481.735,412.635 480.273,412.339 478.766,412.211 C478.125,412.156 478.13,413.156 478.768,413.211 C480.185,413.331 481.559,413.629 482.904,414.088 C483.515,414.295 483.775,413.329 483.169,413.123" id="Fill-94" fill="#253146"></path>
            <path d="M519.025,250.032 C511.867,250.032 506.064,244.229 506.064,237.071 C506.064,229.913 511.867,224.11 519.025,224.11 C526.184,224.11 531.986,229.913 531.986,237.071 C531.986,244.229 526.184,250.032 519.025,250.032 Z M540.603,241.462 L540.603,232.681 L535.275,231.778 C534.999,230.929 534.658,230.109 534.259,229.325 L537.387,224.918 L531.179,218.71 L526.772,221.838 C525.987,221.438 525.168,221.098 524.319,220.822 L523.416,215.495 L514.635,215.495 L513.731,220.822 C512.883,221.098 512.063,221.438 511.278,221.838 L506.872,218.71 L500.664,224.918 L503.792,229.325 C503.393,230.109 503.053,230.929 502.776,231.778 L497.448,232.681 L497.448,241.462 L502.776,242.365 C503.053,243.214 503.393,244.034 503.792,244.818 L500.664,249.225 L506.872,255.433 L511.278,252.305 C512.063,252.704 512.883,253.045 513.731,253.321 L514.635,258.648 L523.416,258.648 L524.319,253.321 C525.168,253.045 525.987,252.704 526.772,252.305 L531.179,255.433 L537.387,249.225 L534.259,244.818 C534.658,244.034 534.999,243.214 535.275,242.365 L540.603,241.462 Z" id="Fill-95" fill="#FFFFFE"></path>
            <path d="M535.283,214.365 C531.638,214.365 528.683,211.41 528.683,207.764 C528.683,204.119 531.638,201.163 535.283,201.163 C538.929,201.163 541.885,204.119 541.885,207.764 C541.885,211.41 538.929,214.365 535.283,214.365 Z M546.272,210 L546.272,205.528 L543.56,205.068 C543.418,204.636 543.245,204.218 543.042,203.819 L544.635,201.575 L541.473,198.413 L539.229,200.006 C538.829,199.802 538.412,199.629 537.979,199.488 L537.52,196.775 L533.048,196.775 L532.588,199.488 C532.155,199.629 531.737,199.802 531.338,200.006 L529.094,198.413 L525.933,201.575 L527.525,203.819 C527.322,204.218 527.148,204.636 527.008,205.068 L524.295,205.528 L524.295,210 L527.008,210.46 C527.148,210.892 527.322,211.31 527.525,211.709 L525.933,213.953 L529.094,217.115 L531.338,215.522 C531.737,215.726 532.155,215.899 532.588,216.04 L533.048,218.753 L537.52,218.753 L537.979,216.04 C538.412,215.899 538.829,215.726 539.229,215.522 L541.473,217.115 L544.635,213.953 L543.042,211.709 C543.245,211.31 543.418,210.892 543.56,210.46 L546.272,210 Z" id="Fill-96" fill="#F8D349"></path>
            <path d="M514.945,228.014 L519.88,232.95 C521.195,234.264 521.195,236.396 519.88,237.711 C518.565,239.025 516.435,239.025 515.119,237.711 L510.107,232.698 C508.268,236.435 508.894,241.076 512.002,244.185 C514.829,247.012 518.925,247.781 522.454,246.516 L535.54,259.602 C537.188,261.25 539.896,261.417 541.594,259.819 C543.35,258.165 543.381,255.4 541.688,253.707 L528.476,240.494 C529.741,236.965 528.972,232.869 526.145,230.042 C523.115,227.013 518.63,226.344 514.945,228.014" id="Fill-97" fill="#1F9F4D"></path>
            <path d="M537.454,255.494 C536.874,256.074 535.934,256.074 535.354,255.494 L526.937,247.077 C526.356,246.497 526.356,245.557 526.937,244.977 C527.517,244.396 528.457,244.396 529.037,244.977 L537.454,253.395 C538.034,253.975 538.034,254.915 537.454,255.494" id="Fill-98" fill="#1D783E"></path>
            <path d="M491.06,342.655 L484.1,342.655 L482.73,335.175 L459.92,335.175 L461.28,342.655 L454.32,342.655 L452.96,335.175 L451.68,328.215 L447.81,306.995 L447.809,306.991 L484.549,306.991 L484.55,306.995 L491.06,342.655 M455.77,312.415 L458.65,328.215 L481.46,328.215 L478.58,312.415 L455.77,312.415" id="Fill-99" fill="#E8EAE8"></path>
            <polyline id="Fill-100" fill="#243044" points="484.549 306.991 447.809 306.991 447.53 305.455 446.32 298.855 446.32 298.854 453.29 298.854 453.29 298.855 454.49 305.455 477.31 305.455 476.1 298.855 476.099 298.854 483.059 298.854 483.06 298.855 484.549 306.991"></polyline>
            <path d="M483.059,298.854 L476.099,298.854 L474.46,289.865 L481.42,289.865 L483.059,298.854 M453.29,298.854 L446.32,298.854 L444.68,289.865 L451.65,289.865 L453.29,298.854" id="Fill-101" fill="#354C7D"></path>
            <polyline id="Fill-102" fill="#F8D349" points="499.246 396.291 506.211 396.291 486.779 289.86 479.814 289.86 499.246 396.291"></polyline>
            <polyline id="Fill-103" fill="#F8D349" points="469.469 396.291 476.434 396.291 457.003 289.86 450.037 289.86 469.469 396.291"></polyline>
            <polyline id="Fill-104" fill="#F8D349" points="503.24 380.699 501.969 373.734 465.351 373.734 466.622 380.699 503.24 380.699"></polyline>
            <polyline id="Fill-105" fill="#F8D349" points="499.085 357.938 497.813 350.974 461.195 350.974 462.467 357.938 499.085 357.938"></polyline>
            <polyline id="Fill-106" fill="#F8D349" points="494.93 335.178 493.658 328.212 457.039 328.212 458.312 335.178 494.93 335.178"></polyline>
            <polyline id="Fill-107" fill="#F8D349" points="490.773 312.416 489.502 305.451 452.884 305.451 454.155 312.416 490.773 312.416"></polyline>
            <path d="M541.318,359.877 L523.072,359.877 C518.056,359.877 513.988,363.944 513.988,368.961 L513.988,387.207 C513.988,392.224 518.056,396.291 523.072,396.291 L541.318,396.291 C546.335,396.291 550.402,392.224 550.402,387.207 L550.402,368.961 C550.402,363.944 546.335,359.877 541.318,359.877" id="Fill-108" fill="#364F85"></path>
            <path d="M533.793,380.036 L529.888,380.036 L530.598,376.131 L534.503,376.131 L533.793,380.036 Z M541.014,376.131 C542.074,376.131 542.935,375.271 542.935,374.21 L542.935,374.147 C542.935,373.086 542.074,372.226 541.014,372.226 L539.118,372.226 L539.594,369.609 C539.809,368.43 538.902,367.345 537.704,367.345 C536.775,367.345 535.979,368.009 535.813,368.922 L535.213,372.226 L531.308,372.226 L531.783,369.609 C531.998,368.43 531.092,367.345 529.894,367.345 C528.965,367.345 528.169,368.009 528.003,368.922 L527.402,372.226 L523.377,372.226 C522.316,372.226 521.456,373.086 521.456,374.147 L521.456,374.21 C521.456,375.271 522.316,376.131 523.377,376.131 L526.692,376.131 L525.982,380.036 L523.377,380.036 C522.316,380.036 521.456,380.896 521.456,381.958 L521.456,382.021 C521.456,383.082 522.316,383.941 523.377,383.941 L525.272,383.941 L524.797,386.559 C524.582,387.738 525.488,388.823 526.687,388.823 C527.615,388.823 528.411,388.159 528.577,387.246 L529.178,383.941 L533.083,383.941 L532.607,386.559 C532.393,387.738 533.299,388.823 534.497,388.823 C535.426,388.823 536.222,388.159 536.388,387.246 L536.988,383.941 L541.014,383.941 C542.074,383.941 542.935,383.082 542.935,382.021 L542.935,381.958 C542.935,380.896 542.074,380.036 541.014,380.036 L537.698,380.036 L538.408,376.131 L541.014,376.131 Z" id="Fill-109" fill="#FFFFFE"></path>
            <path d="M515.408,321.69 L523.097,321.69 C525.099,321.691 526.903,322.499 528.216,323.811 C529.528,325.125 530.336,326.928 530.337,328.931 L530.337,348.171 L532.337,348.171 L532.337,328.931 C532.336,323.827 528.2,319.691 523.097,319.69 L515.408,319.69 L515.408,321.69" id="Fill-110" fill="#1F9F4D"></path>
            <path d="M515.408,320.69 L516.408,320.69 C516.407,318.02 514.244,315.858 511.575,315.857 C508.906,315.858 506.742,318.02 506.741,320.69 C506.742,323.361 508.906,325.523 511.575,325.523 C514.244,325.523 516.407,323.36 516.408,320.69 L514.408,320.69 C514.405,322.255 513.139,323.521 511.575,323.523 C510.01,323.521 508.744,322.255 508.741,320.69 C508.744,319.126 510.01,317.86 511.575,317.857 C513.139,317.86 514.405,319.126 514.408,320.69 L515.408,320.69" id="Fill-111" fill="#1F9F4D"></path>
            <path d="M535.17,352.3 L536.17,352.3 C536.169,349.63 534.007,347.467 531.337,347.467 C528.667,347.467 526.504,349.63 526.504,352.3 C526.504,354.97 528.667,357.132 531.337,357.133 C534.007,357.132 536.169,354.97 536.17,352.3 L534.17,352.3 C534.167,353.864 532.902,355.13 531.337,355.133 C529.772,355.13 528.507,353.864 528.504,352.3 C528.507,350.735 529.772,349.47 531.337,349.467 C532.902,349.47 534.167,350.735 534.17,352.3 L535.17,352.3" id="Fill-112" fill="#1F9F4D"></path>
            <path d="M312.108,335.07 L312.108,376.78 C312.108,378.783 311.3,380.586 309.988,381.9 C308.675,383.212 306.871,384.02 304.869,384.021 L290.631,384.021 L290.631,386.021 L304.869,386.02 C309.972,386.02 314.108,381.884 314.108,376.78 L314.108,335.07 L312.108,335.07" id="Fill-113" fill="#1F9F4D"></path>
            <path d="M313.108,335.07 L313.108,336.07 C315.778,336.07 317.941,333.906 317.942,331.236 C317.941,328.567 315.778,326.404 313.108,326.403 C310.439,326.404 308.276,328.567 308.275,331.236 C308.276,333.906 310.439,336.07 313.108,336.07 L313.108,334.07 C311.545,334.067 310.278,332.801 310.275,331.236 C310.278,329.673 311.545,328.406 313.108,328.403 C314.673,328.406 315.939,329.673 315.942,331.236 C315.939,332.801 314.673,334.067 313.108,334.07 L313.108,335.07" id="Fill-114" fill="#1F9F4D"></path>
            <path d="M286.502,388.854 L286.502,389.853 C289.172,389.853 291.335,387.69 291.335,385.021 C291.335,382.351 289.172,380.188 286.502,380.188 C283.833,380.188 281.67,382.351 281.669,385.021 C281.67,387.69 283.833,389.853 286.502,389.853 L286.502,387.854 C284.938,387.851 283.672,386.585 283.669,385.021 C283.672,383.456 284.938,382.19 286.502,382.187 C288.067,382.19 289.333,383.456 289.335,385.021 C289.333,386.585 288.067,387.851 286.502,387.854 L286.502,388.854" id="Fill-115" fill="#1F9F4D"></path>
            <path d="M341.46,104.287 L361.157,104.287 C363.159,104.288 364.963,105.096 366.276,106.408 C367.588,107.721 368.396,109.524 368.396,111.527 L368.396,167.791 L370.396,167.791 L370.396,111.527 C370.396,106.423 366.26,102.288 361.157,102.287 L341.46,102.287 L341.46,104.287" id="Fill-116" fill="#1F9F4D"></path>
            <path d="M341.46,103.287 L342.46,103.287 C342.459,100.617 340.296,98.454 337.626,98.454 C334.957,98.454 332.794,100.617 332.793,103.287 C332.794,105.957 334.957,108.12 337.626,108.121 C340.296,108.12 342.459,105.957 342.46,103.287 L340.46,103.287 C340.457,104.852 339.191,106.118 337.626,106.121 C336.063,106.118 334.796,104.852 334.793,103.287 C334.796,101.723 336.063,100.456 337.626,100.454 C339.191,100.456 340.457,101.723 340.46,103.287 L341.46,103.287" id="Fill-117" fill="#1F9F4D"></path>
            <path d="M373.23,171.92 L374.23,171.92 C374.229,169.25 372.066,167.087 369.396,167.086 C366.727,167.087 364.564,169.25 364.563,171.92 C364.564,174.59 366.727,176.752 369.396,176.753 C372.066,176.752 374.229,174.59 374.23,171.92 L372.23,171.92 C372.227,173.484 370.961,174.75 369.396,174.753 C367.832,174.75 366.566,173.484 366.563,171.92 C366.566,170.355 367.832,169.089 369.396,169.086 C370.961,169.089 372.227,170.355 372.23,171.92 L373.23,171.92" id="Fill-118" fill="#1F9F4D"></path>
        </g>
    </g>
</svg>