<?xml version="1.0" encoding="UTF-8"?>
<svg width="750px" height="500px" viewBox="0 0 750 500" version="1.1" xmlns="http://www.w3.org/2000/svg" xmlns:xlink="http://www.w3.org/1999/xlink">
    <defs>
        <polygon id="path-1" points="0 0 750 0 750 500 0 500"></polygon>
        <path d="M31.206,15.969 C31.206,24.411 24.362,31.256 15.92,31.256 C7.477,31.256 0.633,24.411 0.633,15.969 C0.633,7.526 7.477,0.682 15.92,0.682 C24.362,0.682 31.206,7.526 31.206,15.969" id="path-3"></path>
    </defs>
    <g id="Page-1" stroke="none" stroke-width="1" fill="none" fill-rule="evenodd">
        <g id="Group">
            <g id="Group-3">
                <mask id="mask-2" fill="white">
                    <use xlink:href="#path-1"></use>
                </mask>
                <g id="Clip-2"></g>
                <polygon id="Fill-1" fill="#00B2AA" mask="url(#mask-2)" points="0 500 750 500 750 0 0 0"></polygon>
            </g>
            <polygon id="Fill-4" fill="#FFFFFF" points="187.066 114.975 564.944 114.975 564.944 70.963 187.066 70.963"></polygon>
            <path d="M236.206,92.969 C236.206,101.411 229.362,108.256 220.92,108.256 C212.477,108.256 205.633,101.411 205.633,92.969 C205.633,84.526 212.477,77.682 220.92,77.682 C229.362,77.682 236.206,84.526 236.206,92.969" id="Fill-5" fill="#FBB03B"></path>
            <g id="Group-32" transform="translate(205.000000, 77.000000)">
                <mask id="mask-4" fill="white">
                    <use xlink:href="#path-3"></use>
                </mask>
                <g id="Clip-7"></g>
                <path d="M15.978,15.981 L15.863,15.981 C12.959,15.981 10.584,13.605 10.584,10.702 L10.584,8.413 C10.584,5.509 12.959,3.134 15.863,3.134 L15.978,3.134 C18.881,3.134 21.257,5.509 21.257,8.413 L21.257,10.702 C21.257,13.605 18.881,15.981 15.978,15.981" id="Fill-6" fill="#371D1C" mask="url(#mask-4)"></path>
                <path d="M11.692,13.971 C11.423,13.931 11.194,13.844 11.003,13.722 C9.838,12.978 10.038,10.97 10.564,10.815 C10.72,10.768 10.869,10.786 11.003,10.839 C11.395,10.992 11.667,11.436 11.667,11.436 L11.692,13.971" id="Fill-8" fill="#9C7761" mask="url(#mask-4)"></path>
                <path d="M20.838,13.722 C20.647,13.844 20.419,13.931 20.149,13.971 L20.174,11.436 C20.174,11.436 20.446,10.99 20.838,10.839 C20.972,10.786 21.119,10.768 21.275,10.815 C21.802,10.97 22.003,12.978 20.838,13.722" id="Fill-9" fill="#9C7761" mask="url(#mask-4)"></path>
                <path d="M11.381,13.899 C11.241,13.854 11.115,13.794 11.003,13.722 L11.003,10.839 C11.148,10.895 11.276,10.991 11.381,11.09 L11.381,13.899" id="Fill-10" fill="#7D5743" mask="url(#mask-4)"></path>
                <path d="M20.46,13.899 L20.46,11.09 C20.564,10.991 20.693,10.895 20.838,10.839 L20.838,13.722 C20.725,13.794 20.6,13.854 20.46,13.899" id="Fill-11" fill="#7D5743" mask="url(#mask-4)"></path>
                <path d="M9.973,20.988 C9.973,20.988 7.573,20.92 6.338,23.595 C5.103,26.27 2.634,30.042 2.702,33.746 C2.771,37.45 6.544,37.519 8.944,34.844 L9.973,20.988" id="Fill-12" fill="#000000" mask="url(#mask-4)"></path>
                <path d="M21.866,20.988 C21.866,20.988 24.267,20.92 25.502,23.595 C26.736,26.27 29.205,30.042 29.137,33.746 C29.068,37.45 25.296,37.519 22.895,34.844 L21.866,20.988" id="Fill-13" fill="#000000" mask="url(#mask-4)"></path>
                <path d="M19.151,19.308 L12.689,19.308 C12.219,19.599 11.966,20.183 12.137,20.757 L15.92,33.49 L19.703,20.757 C19.874,20.183 19.621,19.599 19.151,19.308" id="Fill-14" fill="#CCCCCC" mask="url(#mask-4)"></path>
                <path d="M24.494,22.932 L24.494,42.961 L7.346,42.961 L7.346,22.932 C7.346,22.246 7.748,21.623 8.372,21.339 L9.856,20.664 L10.856,20.209 L11.157,20.072 L12.59,19.419 L15.782,31.469 L15.92,31.986 L16.057,31.469 L19.249,19.419 L20.683,20.072 L20.983,20.207 L21.983,20.663 L23.469,21.339 C24.093,21.623 24.494,22.246 24.494,22.932" id="Fill-15" fill="#1A1A1A" mask="url(#mask-4)"></path>
                <path d="M18.596,19.122 C18.017,20.648 17.035,21.651 15.92,21.651 C14.804,21.651 13.822,20.648 13.243,19.122 L13.313,19.091 L13.725,14.654 L15.92,14.929 L18.115,14.654 L18.526,19.091 L18.596,19.122" id="Fill-16" fill="#9C7761" mask="url(#mask-4)"></path>
                <path d="M15.92,19.857 C15.33,19.857 14.758,19.634 14.305,19.228 L13.378,18.397 L13.48,17.288 L14.305,18.027 C14.758,18.434 15.33,18.656 15.92,18.656 C16.511,18.656 17.083,18.434 17.535,18.027 L18.359,17.289 L18.462,18.397 L17.536,19.228 C17.309,19.431 17.053,19.589 16.78,19.695 C16.505,19.8 16.215,19.857 15.92,19.857" id="Fill-17" fill="#7D5743" mask="url(#mask-4)"></path>
                <path d="M14.012,5.452 C12.559,5.452 11.381,6.63 11.381,8.083 L11.381,14.146 C11.381,14.944 11.711,15.701 12.282,16.213 L14.305,18.027 C14.758,18.434 15.33,18.656 15.92,18.656 C16.511,18.656 17.083,18.434 17.535,18.027 L19.559,16.213 C20.13,15.701 20.46,14.944 20.46,14.146 L20.46,8.083 C20.46,6.63 19.282,5.452 17.829,5.452 L14.012,5.452" id="Fill-18" fill="#9C7761" mask="url(#mask-4)"></path>
                <path d="M13.955,11.659 C13.955,12.019 13.768,12.311 13.537,12.311 C13.305,12.311 13.118,12.019 13.118,11.659 C13.118,11.299 13.305,11.007 13.537,11.007 C13.768,11.007 13.955,11.299 13.955,11.659" id="Fill-19" fill="#371D1C" mask="url(#mask-4)"></path>
                <path d="M13.108,10.758 C13.219,10.648 13.369,10.581 13.537,10.581 C13.705,10.581 13.855,10.648 13.965,10.758 C14.056,10.85 14.204,10.85 14.295,10.758 C14.387,10.667 14.387,10.519 14.296,10.428 C14.102,10.234 13.832,10.114 13.537,10.114 C13.241,10.114 12.971,10.234 12.778,10.428 C12.687,10.519 12.687,10.667 12.778,10.759 C12.869,10.85 13.017,10.85 13.108,10.758" id="Fill-20" fill="#371D1C" mask="url(#mask-4)"></path>
                <path d="M18.722,11.659 C18.722,12.019 18.535,12.311 18.304,12.311 C18.073,12.311 17.885,12.019 17.885,11.659 C17.885,11.299 18.073,11.007 18.304,11.007 C18.535,11.007 18.722,11.299 18.722,11.659" id="Fill-21" fill="#371D1C" mask="url(#mask-4)"></path>
                <path d="M17.875,10.758 C17.986,10.648 18.136,10.581 18.304,10.581 C18.472,10.581 18.622,10.648 18.732,10.758 C18.824,10.85 18.971,10.85 19.063,10.758 C19.154,10.667 19.154,10.519 19.063,10.428 C18.869,10.234 18.599,10.114 18.304,10.114 C18.008,10.114 17.739,10.234 17.545,10.428 C17.454,10.519 17.454,10.667 17.545,10.758 C17.636,10.85 17.784,10.85 17.875,10.758" id="Fill-22" fill="#371D1C" mask="url(#mask-4)"></path>
                <path d="M17.816,14.712 C17.816,15.564 16.956,16.255 15.896,16.255 C14.835,16.255 13.975,15.564 13.975,14.712 L17.816,14.712" id="Fill-23" fill="#FFFFFF" mask="url(#mask-4)"></path>
                <path d="M15.92,14.108 C15.659,14.108 15.414,14.007 15.23,13.822 L15.23,13.628 L15.424,13.628 C15.556,13.761 15.733,13.834 15.92,13.834 C16.108,13.834 16.284,13.761 16.417,13.628 L16.611,13.628 L16.611,13.822 C16.427,14.007 16.181,14.108 15.92,14.108" id="Fill-24" fill="#7D5743" mask="url(#mask-4)"></path>
                <polyline id="Fill-25" fill="#000000" mask="url(#mask-4)" points="15.92 31.986 17.037 27.77 16.541 23.228 15.298 23.228 14.803 27.77 15.92 31.986"></polyline>
                <polyline id="Fill-26" fill="#1A1A1A" mask="url(#mask-4)" points="16.51 23.578 17.043 22.394 16.34 20.805 15.5 20.805 14.797 22.394 15.33 23.578 16.51 23.578"></polyline>
                <polyline id="Fill-27" fill="#FFFFFF" mask="url(#mask-4)" points="19.254 19.402 18.523 18.93 15.92 20.709 13.317 18.93 12.586 19.402 14.392 22.68 15.92 20.885 17.479 22.68 19.254 19.402"></polyline>
                <polyline id="Fill-28" fill="#000000" mask="url(#mask-4)" points="21.78 25.441 17.949 28.396 19.666 31.295 19.643 31.464 16.073 34.848 16.057 34.859 16.057 42.961 15.783 42.961 15.783 34.859 15.766 34.848 12.197 31.464 12.173 31.295 13.891 28.396 10.059 25.441 10.008 25.31 10.856 20.209 11.157 20.072 10.292 25.274 14.154 28.254 14.188 28.432 12.465 31.34 15.783 34.486 15.783 30.248 15.92 30.111 16.057 30.248 16.057 34.486 19.374 31.34 17.651 28.432 17.685 28.254 21.547 25.274 20.683 20.072 20.983 20.208 21.831 25.31 21.78 25.441"></polyline>
                <path d="M20.32,6.87 C20.32,8.038 18.35,8.984 15.92,8.984 C13.49,8.984 11.52,8.038 11.52,6.87 C11.52,5.701 13.49,4.755 15.92,4.755 C18.35,4.755 20.32,5.701 20.32,6.87" id="Fill-29" fill="#371D1C" mask="url(#mask-4)"></path>
                <path d="M12.966,7.407 C12.966,7.407 12.907,9.019 11.714,9.619 L11.714,12.86 C11.714,12.86 11.157,12.929 11.157,12.157 C11.157,11.385 11.157,7.407 11.157,7.407 L11.572,6.628 L12.966,7.407" id="Fill-30" fill="#371D1C" mask="url(#mask-4)"></path>
                <path d="M18.875,7.407 C18.875,7.407 18.934,9.019 20.126,9.619 L20.126,12.86 C20.126,12.86 20.684,12.929 20.684,12.157 C20.684,11.385 20.684,7.407 20.684,7.407 L20.268,6.628 L18.875,7.407" id="Fill-31" fill="#371D1C" mask="url(#mask-4)"></path>
            </g>
            <path d="M261.336,95.54 C259.836,95.54 258.621,94.324 258.621,92.825 C258.621,91.326 259.836,90.11 261.336,90.11 C262.835,90.11 264.051,91.326 264.051,92.825 C264.051,94.324 262.835,95.54 261.336,95.54 Z M269.267,93.919 L269.267,91.73 L267.761,91.426 C267.592,90.647 267.284,89.922 266.867,89.273 L267.718,87.99 L266.17,86.443 L264.887,87.294 C264.238,86.877 263.513,86.569 262.735,86.4 L262.43,84.893 L260.241,84.893 L259.937,86.4 C259.158,86.569 258.433,86.877 257.784,87.294 L256.501,86.443 L254.954,87.99 L255.805,89.273 C255.388,89.922 255.08,90.647 254.911,91.426 L253.404,91.73 L253.404,93.919 L254.911,94.224 C255.08,95.002 255.388,95.728 255.805,96.376 L254.954,97.659 L256.501,99.207 L257.784,98.356 C258.433,98.773 259.158,99.081 259.937,99.25 L260.241,100.756 L262.43,100.756 L262.735,99.25 C263.513,99.081 264.238,98.773 264.887,98.356 L266.17,99.207 L267.718,97.659 L266.867,96.376 C267.284,95.728 267.592,95.002 267.761,94.224 L269.267,93.919 Z" id="Fill-33" fill="#FBB03B"></path>
            <path d="M294.099,99.287 C294.275,100.126 295.019,100.757 295.91,100.757 C296.802,100.757 297.546,100.126 297.722,99.287 L294.099,99.287" id="Fill-34" fill="#FBB03B"></path>
            <path d="M300.942,90.903 C300.592,86.78 297.378,86.151 297.378,86.151 L294.443,86.151 C294.443,86.151 291.228,86.78 290.879,90.903 C290.529,95.026 291.228,96.773 289.481,98.101 L289.481,98.87 L302.339,98.87 L302.339,98.101 C300.592,96.773 301.291,95.026 300.942,90.903" id="Fill-35" fill="#FBB03B"></path>
            <path d="M295.91,84.893 C295.351,84.893 294.897,85.347 294.897,85.907 L296.924,85.907 C296.924,85.347 296.47,84.893 295.91,84.893" id="Fill-36" fill="#FBB03B"></path>
            <path d="M335.479,96.659 L335.479,98.051 C335.479,98.172 335.38,98.27 335.259,98.27 L325.71,98.27 C325.589,98.27 325.491,98.172 325.491,98.051 L325.491,96.659 C325.491,96.537 325.392,96.439 325.271,96.439 L324.178,96.439 C324.057,96.439 323.959,96.537 323.959,96.659 L323.959,100.537 C323.959,100.658 324.057,100.757 324.178,100.757 L336.791,100.757 C336.912,100.757 337.01,100.658 337.01,100.537 L337.01,96.659 C337.01,96.537 336.912,96.439 336.791,96.439 L335.698,96.439 C335.577,96.439 335.479,96.537 335.479,96.659" id="Fill-37" fill="#FBB03B"></path>
            <path d="M331.828,93.533 L331.828,85.189 C331.828,85.026 331.695,84.893 331.531,84.893 L329.438,84.893 C329.274,84.893 329.142,85.026 329.142,85.189 L329.142,93.533 L326.543,93.533 L330.197,97.1 C330.357,97.256 330.612,97.256 330.772,97.1 L334.426,93.533 L331.828,93.533" id="Fill-38" fill="#FBB03B"></path>
            <path d="M365.059,89.76 C368.054,89.76 370.745,91.093 372.639,92.366 C371.641,91.122 368.625,87.778 365.059,87.778 C361.492,87.778 358.477,91.122 357.479,92.366 C359.372,91.093 362.063,89.76 365.059,89.76" id="Fill-39" fill="#FBB03B"></path>
            <path d="M365.059,95.867 C363.697,95.867 362.592,94.763 362.592,93.401 C362.592,92.038 363.697,90.934 365.059,90.934 C366.421,90.934 367.526,92.038 367.526,93.401 C367.526,94.763 366.421,95.867 365.059,95.867 Z M372.351,92.794 C370.642,91.645 367.99,90.276 365.059,90.276 C362.128,90.276 359.475,91.645 357.766,92.794 L357.326,93.09 C358.122,94.12 361.279,97.872 365.059,97.872 C368.839,97.872 371.996,94.12 372.792,93.09 L372.351,92.794 Z" id="Fill-40" fill="#FBB03B"></path>
            <path d="M364.911,92.616 C364.911,93.089 364.527,93.473 364.054,93.473 C363.581,93.473 363.197,93.089 363.197,92.616 C363.197,92.143 363.581,91.759 364.054,91.759 C364.527,91.759 364.911,92.143 364.911,92.616" id="Fill-41" fill="#FBB03B"></path>
            <path d="M402.474,86.349 L396.792,86.349 L397.353,85.156 C397.428,84.996 397.589,84.893 397.767,84.893 L401.5,84.893 C401.677,84.893 401.839,84.996 401.914,85.156 L402.474,86.349" id="Fill-42" fill="#FBB03B"></path>
            <path d="M404.003,91.305 C403.944,91.434 403.79,91.489 403.663,91.434 L401.975,90.674 L400.14,92.263 C400.064,92.329 399.957,92.345 399.865,92.302 L398.122,91.509 L395.686,94.112 L395.498,94.194 L395.323,94.124 C395.219,94.028 395.213,93.865 395.311,93.762 L397.874,91.024 C397.948,90.942 398.068,90.918 398.168,90.965 L399.929,91.766 L401.762,90.178 C401.838,90.112 401.943,90.097 402.036,90.137 L403.874,90.964 C404.003,91.023 404.062,91.175 404.003,91.305 Z M396.901,96.129 L403.962,96.129 L403.962,95.606 L396.901,95.606 L396.901,96.129 Z M396.901,97.323 L403.962,97.323 L403.962,96.8 L396.901,96.8 L396.901,97.323 Z M395.305,99.188 L403.962,99.188 L403.962,98.143 L395.305,98.143 L395.305,99.188 Z M402.738,85.697 L402.941,86.13 C403.016,86.289 403.004,86.477 402.91,86.626 C402.815,86.774 402.651,86.865 402.474,86.865 L396.792,86.865 C396.616,86.865 396.452,86.774 396.357,86.626 C396.262,86.477 396.25,86.289 396.326,86.13 L396.529,85.697 L394.376,85.697 C394.168,85.697 393.999,85.866 393.999,86.074 L393.999,100.38 C393.999,100.588 394.168,100.757 394.376,100.757 L404.891,100.757 C405.099,100.757 405.268,100.588 405.268,100.38 L405.268,86.074 C405.268,85.866 405.099,85.697 404.891,85.697 L402.738,85.697 Z" id="Fill-43" fill="#FBB03B"></path>
            <path d="M434.208,92.805 C432.762,92.805 431.591,91.634 431.591,90.189 C431.591,88.743 432.762,87.572 434.208,87.572 C435.653,87.572 436.824,88.743 436.824,90.189 C436.824,91.634 435.653,92.805 434.208,92.805 Z M434.208,84.893 C431.206,84.893 428.772,87.537 428.772,90.798 C428.772,94.06 434.208,100.757 434.208,100.757 C434.208,100.757 439.643,94.06 439.643,90.798 C439.643,87.537 437.21,84.893 434.208,84.893 Z" id="Fill-44" fill="#FBB03B"></path>
            <path d="M471.433,98.224 L466.131,98.224 C465.833,98.224 465.59,97.98 465.59,97.683 C465.59,97.385 465.833,97.142 466.131,97.142 L471.433,97.142 C471.731,97.142 471.974,97.385 471.974,97.683 C471.974,97.98 471.731,98.224 471.433,98.224" id="Fill-45" fill="#FBB03B"></path>
            <path d="M471.433,99.594 L466.131,99.594 C465.833,99.594 465.59,99.351 465.59,99.053 C465.59,98.756 465.833,98.513 466.131,98.513 L471.433,98.513 C471.731,98.513 471.974,98.756 471.974,99.053 C471.974,99.351 471.731,99.594 471.433,99.594" id="Fill-46" fill="#FBB03B"></path>
            <path d="M466.493,99.949 C466.571,100.404 466.95,100.757 467.428,100.757 L470.136,100.757 C470.614,100.757 470.993,100.404 471.071,99.949 L466.493,99.949" id="Fill-47" fill="#FBB03B"></path>
            <path d="M468.095,84.931 C465.39,85.23 463.169,87.395 462.809,90.092 C462.461,92.699 463.781,95.037 465.852,96.19 C466.098,96.328 466.275,96.549 466.374,96.804 L471.191,96.804 C471.29,96.548 471.469,96.326 471.717,96.188 C473.562,95.157 474.811,93.186 474.811,90.922 C474.811,87.366 471.732,84.529 468.095,84.931" id="Fill-48" fill="#FBB03B"></path>
            <path d="M503.352,98.771 L498.107,94.062 C494.258,89.872 499.502,84.164 503.352,88.354 C507.218,84.146 512.462,89.854 508.596,94.062 L503.352,98.771" id="Fill-49" fill="#FBB03B"></path>
            <path d="M534.779,90.326 L534.779,87.531 C534.779,86.972 535.197,86.517 535.712,86.517 L540.149,86.517 C540.664,86.517 541.083,86.972 541.083,87.531 L541.083,90.326 L542.576,90.326 L542.576,87.531 C542.576,86.076 541.487,84.893 540.149,84.893 L535.712,84.893 C534.374,84.893 533.286,86.076 533.286,87.531 L533.286,90.326 L534.779,90.326" id="Fill-50" fill="#FBB03B"></path>
            <path d="M538.451,94.302 L538.451,96.065 C538.451,96.333 538.234,96.549 537.967,96.549 L537.894,96.549 C537.627,96.549 537.411,96.333 537.411,96.065 L537.411,94.302 C537.094,94.121 536.879,93.784 536.879,93.393 C536.879,92.812 537.35,92.341 537.931,92.341 C538.512,92.341 538.982,92.812 538.982,93.393 C538.982,93.784 538.767,94.121 538.451,94.302 Z M542.842,90.849 L533.019,90.849 C532.607,90.849 532.272,91.183 532.272,91.596 L532.272,100.009 C532.272,100.422 532.607,100.757 533.019,100.757 L542.842,100.757 C543.255,100.757 543.589,100.422 543.589,100.009 L543.589,91.596 C543.589,91.183 543.255,90.849 542.842,90.849 Z" id="Fill-51" fill="#FBB03B"></path>
            <path d="M408.118,77.88 C405.04,77.88 402.545,80.375 402.545,83.453 C402.545,85.288 403.436,86.911 404.805,87.926 L402.545,89.026 L408.118,89.026 C411.196,89.026 413.692,86.531 413.692,83.453 C413.692,80.375 411.196,77.88 408.118,77.88" id="Fill-52" fill="#ED1C24"></path>
            <text id="5" font-family="LucidaGrande, Lucida Grande" font-size="8.1892" font-weight="normal" fill="#FFFFFF">
                <tspan x="405.408" y="84.7702977">5</tspan>
            </text>
            <polygon id="Fill-53" fill="#FFFFFF" points="187.066 194.582 309.128 194.582 309.128 131.66 187.066 131.66"></polygon>
            <text id="Orders" font-family="LucidaGrande, Lucida Grande" font-size="9.2836" font-weight="normal" fill="#C0C0C0">
                <tspan x="234.135" y="146.855385">O</tspan>
                <tspan x="241.347015" y="146.855385" letter-spacing="-0.1114032">r</tspan>
                <tspan x="245.034273" y="146.855385">ders</tspan>
            </text>
            <text id="1.700" font-family="LucidaGrande, Lucida Grande" font-size="19.5988" font-weight="normal" fill="#F6712E">
                <tspan x="219.5444" y="176.84582">1.700</tspan>
            </text>
            <polygon id="Fill-54" fill="#FFFFFF" points="314.974 194.582 437.036 194.582 437.036 131.66 314.974 131.66"></polygon>
            <text id="$2.100" font-family="LucidaGrande, Lucida Grande" font-size="19.5988" font-weight="normal" fill="#F6712E">
                <tspan x="340.963" y="176.84582">$2.100</tspan>
            </text>
            <text id="Earnings" font-family="LucidaGrande, Lucida Grande" font-size="9.2836" font-weight="normal" fill="#C0C0C0">
                <tspan x="357.69" y="146.855385">Earnings</tspan>
            </text>
            <polygon id="Fill-55" fill="#FFFFFF" points="442.882 194.582 564.944 194.582 564.944 131.66 442.882 131.66"></polygon>
            <text id="87.5%" font-family="LucidaGrande, Lucida Grande" font-size="19.5988" font-weight="normal" fill="#F6712E">
                <tspan x="474.184" y="176.84582">87.5%</tspan>
            </text>
            <text id="Sales" font-family="LucidaGrande, Lucida Grande" font-size="9.2836" font-weight="normal" fill="#C0C0C0">
                <tspan x="492.908" y="146.855385">Sales</tspan>
            </text>
            <polygon id="Fill-56" points="187.066 318.364 309.128 318.364 309.128 200.083 187.066 200.083"></polygon>
            <text id="25%" font-family="LucidaGrande, Lucida Grande" font-size="15.4727" font-weight="normal" fill="#FDBD4A">
                <tspan x="231.805" y="267.604269">25%</tspan>
            </text>
            <text id="Maintenance" font-family="LucidaGrande, Lucida Grande" font-size="9.2836" font-weight="normal" fill="#C0C0C0">
                <tspan x="220.8418" y="215.279385">Main</tspan>
                <tspan x="242.409851" y="215.279385" letter-spacing="-0.11975844">t</tspan>
                <tspan x="245.762377" y="215.279385">enance</tspan>
            </text>
            <path d="M248.097,236.473 C231.808,236.473 218.556,249.726 218.556,266.015 C218.556,282.303 231.808,295.556 248.097,295.556 C264.386,295.556 277.638,282.303 277.638,266.015 C277.638,249.726 264.386,236.473 248.097,236.473 Z M248.097,303.406 C227.479,303.406 210.705,286.633 210.705,266.015 C210.705,245.397 227.479,228.623 248.097,228.623 C268.715,228.623 285.489,245.397 285.489,266.015 C285.489,286.633 268.715,303.406 248.097,303.406 Z" id="Fill-58" fill="#E6E6E6"></path>
            <path d="M218.556,266.015 C218.558,257.845 221.856,250.484 227.208,245.126 C232.566,239.774 239.927,236.475 248.097,236.474 L248.097,228.622999 C237.784,228.621 228.411,232.814 221.657,239.575 C214.896,246.329 210.703,255.702 210.704999,266.015 L218.556,266.015" id="Fill-59" fill="#FBB03B"></path>
            <polygon id="Fill-60" fill="#FFFFFF" points="442.882 318.364 564.944 318.364 564.944 200.083 442.882 200.083"></polygon>
            <text id="Device-Usage" font-family="LucidaGrande, Lucida Grande" font-size="9.2836" font-weight="normal" fill="#C0C0C0">
                <tspan x="475.414" y="215.279385">Device Usage</tspan>
            </text>
            <text id="2k-/-5k" font-family="LucidaGrande, Lucida Grande" font-size="5.7195" font-weight="normal" letter-spacing="-0.0001" fill="#F99547">
                <tspan x="494.957" y="259.004948">2k / 5k</tspan>
            </text>
            <text id="5k-/-10k" font-family="LucidaGrande, Lucida Grande" font-size="5.7195" font-weight="normal" fill="#FDBD4A">
                <tspan x="493.169084" y="265.771117">5k / 10k</tspan>
            </text>
            <path d="M503.913,237.018 C490.499,237.018 479.586,247.931 479.586,261.345 C479.586,274.759 490.499,285.671 503.913,285.671 C517.326,285.671 528.24,274.759 528.24,261.345 C528.24,247.931 517.326,237.018 503.913,237.018 Z M503.913,293.566 C486.146,293.566 471.691,279.112 471.691,261.345 C471.691,243.578 486.146,229.124 503.913,229.124 C521.68,229.124 536.134,243.578 536.134,261.345 C536.134,279.112 521.68,293.566 503.913,293.566 Z" id="Fill-61" fill="#E6E6E6"></path>
            <path d="M503.913,244.234 C494.477,244.234 486.801,251.91 486.801,261.345 C486.801,270.781 494.477,278.456 503.913,278.456 C513.348,278.456 521.024,270.781 521.024,261.345 C521.024,251.91 513.348,244.234 503.913,244.234 Z M503.913,284.095 C491.368,284.095 481.162,273.89 481.162,261.345 C481.162,248.8 491.368,238.595 503.913,238.595 C516.457,238.595 526.663,248.8 526.663,261.345 C526.663,273.89 516.457,284.095 503.913,284.095 Z" id="Fill-62" fill="#E6E6E6"></path>
            <path d="M479.586,261.345 C479.588,254.615 482.303,248.558 486.711,244.143 C491.126,239.735 497.182,237.02 503.912,237.018 L503.912,229.123999 C495.027,229.122 486.947,232.736 481.129,238.561 C475.304,244.38 471.689,252.46 471.690999,261.345 L479.586,261.345" id="Fill-63" fill="#F58238"></path>
            <path d="M521.024,261.345 C521.022,266.079 519.113,270.339 516.012,273.444 C512.906,276.545 508.647,278.455 503.912,278.456 C499.178,278.455 494.919,276.545 491.813,273.444 C488.712,270.339 486.803,266.079 486.801,261.345 L481.162999,261.345 C481.161,267.618 483.713,273.324 487.826,277.432 C491.934,281.544 497.639,284.096 503.912,284.095 C510.186,284.096 515.891,281.544 519.999,277.432 C524.112,273.324 526.664,267.618 526.663,261.345 L521.024,261.345" id="Fill-64" fill="#FBB03B"></path>
            <polygon id="Fill-65" fill="#F58238" points="472.465 303.406 477.106 303.406 477.106 298.765 472.465 298.765"></polygon>
            <text id="Lorem-Ipsum" font-family="LucidaGrande, Lucida Grande" font-size="3.0945" font-weight="normal" fill="#F99547">
                <tspan x="478.886" y="301.404501">Lo</tspan>
                <tspan x="482.436818" y="301.404501" letter-spacing="-0.01578195">r</tspan>
                <tspan x="483.687242" y="301.404501">em Ipsum</tspan>
            </text>
            <polygon id="Fill-66" fill="#FBB03B" points="509.633 303.406 514.275 303.406 514.275 298.765 509.633 298.765"></polygon>
            <text id="Lorem-Ipsum" font-family="LucidaGrande, Lucida Grande" font-size="3.0945" font-weight="normal" fill="#FDBD4A">
                <tspan x="516.055" y="301.404501">Lo</tspan>
                <tspan x="519.605818" y="301.404501" letter-spacing="-0.01578195">r</tspan>
                <tspan x="520.856242" y="301.404501">em Ipsum</tspan>
            </text>
            <polygon id="Fill-67" fill="#FFFFFF" points="314.974 318.88 437.036 318.88 437.036 200.599 314.974 200.599"></polygon>
            <text id="Visitors" font-family="LucidaGrande, Lucida Grande" font-size="9.2836" font-weight="normal" fill="#C0C0C0">
                <tspan x="361.004" y="215.795385">Visi</tspan>
                <tspan x="377.173239" y="215.795385" letter-spacing="-0.11975844">t</tspan>
                <tspan x="380.525764" y="215.795385">ors</tspan>
            </text>
            <polyline id="Fill-68" fill="#F58238" points="339.472 294.564 339.472 270.921 354.316 272.97 369.16 259.365 384.005 253.533 398.849 264.666 413.693 254.594 413.693 294.564 339.472 294.564"></polyline>
            <polyline id="Fill-69" fill="#FBB03B" points="339.472 282.965 354.316 278.717 369.16 282.497 384.005 272.028 398.849 278.355 413.694 272.028 413.694 294.564 339.472 294.564 339.472 282.965"></polyline>
            <text id="0" font-family="LucidaGrande, Lucida Grande" font-size="3.3358" font-weight="normal" fill="#D6D6D6">
                <tspan x="330.442" y="294.673314">0</tspan>
            </text>
            <polygon id="Fill-70" fill="#CCCCCC" points="339.214 297.566 339.73 297.566 339.73 228.848 339.214 228.848"></polygon>
            <polygon id="Fill-71" fill="#CCCCCC" points="335.58 294.822 423.534 294.822 423.534 294.306 335.58 294.306"></polygon>
            <text id="100" font-family="LucidaGrande, Lucida Grande" font-size="3.3358" font-weight="normal" fill="#D6D6D6">
                <tspan x="328.571" y="282.831314">100</tspan>
            </text>
            <text id="15.3016.0016.3017.0017.3018.00" font-family="LucidaGrande, Lucida Grande" font-size="3.3358" font-weight="normal" fill="#D6D6D6">
                <tspan x="335.405053" y="301.735292">15.3</tspan>
                <tspan x="342.788443" y="301.735292" letter-spacing="6.71229676">0</tspan>
                <tspan x="351.610047" y="301.735292" letter-spacing="0.00033358">1</tspan>
                <tspan x="353.719687" y="301.735292">6.0</tspan>
                <tspan x="358.99377" y="301.735292" letter-spacing="6.71129602">0</tspan>
                <tspan x="367.814373" y="301.735292" letter-spacing="0.00033358">1</tspan>
                <tspan x="369.924013" y="301.735292">6.3</tspan>
                <tspan x="375.198096" y="301.735292" letter-spacing="6.71129602">0</tspan>
                <tspan x="384.018699" y="301.735292" letter-spacing="-0.00033358">1</tspan>
                <tspan x="386.127672" y="301.735292">7.0</tspan>
                <tspan x="391.401755" y="301.735292" letter-spacing="6.7149654">0</tspan>
                <tspan x="400.226027" y="301.735292">17.3</tspan>
                <tspan x="407.609417" y="301.735292" letter-spacing="6.7099617">0</tspan>
                <tspan x="416.428685" y="301.735292" letter-spacing="-0.00033358">1</tspan>
                <tspan x="418.537659" y="301.735292">8.00</tspan>
            </text>
            <polygon id="Fill-72" fill="#CCCCCC" points="335.58 282.98 339.472 282.98 339.472 282.464 335.58 282.464"></polygon>
            <text id="200" font-family="LucidaGrande, Lucida Grande" font-size="3.3358" font-weight="normal" fill="#D6D6D6">
                <tspan x="328.571" y="270.988314">200</tspan>
            </text>
            <polygon id="Fill-73" fill="#CCCCCC" points="335.58 271.137 339.472 271.137 339.472 270.622 335.58 270.622"></polygon>
            <text id="300" font-family="LucidaGrande, Lucida Grande" font-size="3.3358" font-weight="normal" fill="#D6D6D6">
                <tspan x="328.571" y="259.148314">300</tspan>
            </text>
            <polygon id="Fill-74" fill="#CCCCCC" points="335.58 259.295 339.472 259.295 339.472 258.78 335.58 258.78"></polygon>
            <text id="400" font-family="LucidaGrande, Lucida Grande" font-size="3.3358" font-weight="normal" fill="#D6D6D6">
                <tspan x="328.571" y="247.305314">400</tspan>
            </text>
            <polygon id="Fill-75" fill="#CCCCCC" points="335.58 247.453 339.472 247.453 339.472 246.938 335.58 246.938"></polygon>
            <text id="500" font-family="LucidaGrande, Lucida Grande" font-size="3.3358" font-weight="normal" fill="#D6D6D6">
                <tspan x="328.571" y="235.461314">500</tspan>
            </text>
            <polygon id="Fill-76" fill="#CCCCCC" points="335.58 235.611 339.472 235.611 339.472 235.095 335.58 235.095"></polygon>
            <polygon id="Fill-77" fill="#CCCCCC" points="413.436 297.566 413.951 297.566 413.951 294.564 413.436 294.564"></polygon>
            <polygon id="Fill-78" fill="#CCCCCC" points="398.591 297.566 399.107 297.566 399.107 294.564 398.591 294.564"></polygon>
            <polygon id="Fill-79" fill="#CCCCCC" points="383.747 297.566 384.263 297.566 384.263 294.564 383.747 294.564"></polygon>
            <polygon id="Fill-80" fill="#CCCCCC" points="368.903 297.566 369.418 297.566 369.418 294.564 368.903 294.564"></polygon>
            <polygon id="Fill-81" fill="#CCCCCC" points="354.058 297.566 354.574 297.566 354.574 294.564 354.058 294.564"></polygon>
            <polygon id="Fill-82" fill="#FFFFFF" points="187.066 442.833 436.349 442.833 436.349 324.553 187.066 324.553"></polygon>
            <path d="M398.368,367.162 C397.617,366.464 396.641,366.024 395.565,366.062 C394.849,366.088 394.129,366.307 393.425,366.172 C391.591,365.822 390.918,363.394 389.176,362.727 C388.071,362.304 386.789,362.72 385.85,363.433 C384.911,364.147 384.224,365.124 383.46,366.017 C380.733,369.204 375.984,372.493 371.499,371.618 C370.318,371.387 369.126,370.845 367.929,369.938 C366.457,368.822 365.034,367.245 363.089,366.996 C360.972,366.724 359.347,368.257 357.507,368.986 C352.726,370.88 347.539,368.372 343.814,365.492 C342.13,364.19 340.459,362.6 338.329,362.388 C336.599,362.215 334.877,363.034 333.65,364.246 C332.422,365.458 331.627,367.027 330.99,368.619 C330.567,369.676 330.196,370.772 329.531,371.701 C328.866,372.63 327.836,373.388 326.681,373.41 C325.789,373.427 324.846,373.017 324.037,373.389 C322.769,373.972 322.803,376.017 321.528,376.584 C320.33,377.116 319.071,375.939 317.764,375.807 C315.967,375.626 314.676,377.359 313.427,378.643 C307.816,384.418 298.065,382.31 292.625,377.455 C291.433,376.391 290.356,375.175 288.977,374.36 C287.597,373.544 285.783,373.198 284.394,373.996 C283.103,374.737 282.019,376.423 280.597,375.97 C279.567,375.642 279.146,374.302 278.114,373.978 C277.273,373.713 276.383,374.244 275.779,374.878 C275.174,375.512 274.692,376.285 273.936,376.735 C272.231,377.75 269.985,376.653 268.678,375.173 C267.371,373.693 266.505,371.817 264.932,370.615 C263.332,369.392 261.131,369.039 259.167,369.525 C257.203,370.012 255.485,371.285 254.307,372.906 C252.654,375.181 252.048,378.026 250.713,380.495 C249.378,382.964 246.759,385.211 243.981,384.623 C240.081,383.798 237.119,380.5 232.821,381.182 C225.745,382.306 224.067,392.009 224.067,392.009 L224.067,404.746 C224.067,404.746 392.688,404.746 398.368,404.746 L398.368,367.162" id="Fill-83" fill="#F15A24"></path>
            <text id="Network-Activities" font-family="LucidaGrande, Lucida Grande" font-size="9.2836" font-weight="normal" fill="#C0C0C0">
                <tspan x="274.347" y="339.748385">Network Activities</tspan>
            </text>
            <path d="M398.368,371.767 C396.713,371.051 394.615,370.671 393.333,371.172 C390.142,372.418 389.389,377.032 386.171,378.21 C383.969,379.016 381.537,377.858 379.192,378.007 C374.994,378.273 371.616,382.646 367.459,382.008 C364.162,381.502 362.299,378.16 360.275,375.549 C358.125,372.775 355.177,370.451 351.71,369.718 C348.244,368.985 344.257,370.117 342.251,372.994 C341.287,374.375 340.807,376.068 339.67,377.315 C338.134,378.998 335.715,379.548 333.775,380.761 C330.963,382.518 329.3,385.56 327.007,387.938 C324.101,390.952 320.323,393.509 316.069,392.733 C313.801,392.32 311.348,391.761 309.28,392.766 C308.002,393.386 306.823,394.598 305.423,394.337 C303.961,394.064 303.193,392.292 301.744,391.957 C300.238,391.609 298.888,392.952 297.366,393.225 C295.666,393.53 293.998,392.431 292.955,391.075 C291.911,389.719 291.291,388.094 290.336,386.676 C289.483,385.409 288.378,384.328 287.282,383.258 C285.515,381.532 283.521,379.701 281.037,379.537 C277.435,379.298 274.738,382.549 272.453,385.3 C270.205,388.006 267.73,390.53 265.061,392.837 C262.841,394.756 260.268,396.607 257.315,396.694 C254.698,396.772 252.28,395.452 249.769,394.721 C246.232,393.691 242.351,393.849 238.912,395.163 C236.019,396.268 233.53,398.121 230.86,399.637 C230.462,399.863 224.067,402.585 224.067,401.852 C224.067,401.981 224.067,412.165 224.067,412.165 L398.368,412.165 L398.368,371.767" id="Fill-84" fill="#F58238"></path>
            <path d="M398.368,402.892 C398.283,402.791 398.194,402.691 398.133,402.591 C397.227,401.104 396.91,399.761 395.46,398.531 C395.04,398.174 394.571,397.844 394.027,397.735 C392.968,397.523 391.949,398.186 390.887,398.385 C389.02,398.735 387.198,397.732 385.341,397.749 C383.541,397.765 382.024,398.826 380.445,399.577 C377.734,400.867 374.496,400.406 371.643,399.462 C368.79,398.517 366.078,397.117 363.123,396.546 C355.522,395.076 348.847,399.351 342.522,402.775 C340.097,404.088 337.156,405.121 334.617,404.035 C333.711,403.647 332.916,403.008 331.962,402.753 C330.065,402.246 328.169,403.36 326.346,404.084 C323.328,405.281 319.897,405.44 316.778,404.527 C313.966,403.703 311.476,402.064 308.742,401.015 C305.191,399.652 301.238,399.322 297.504,400.074 C296.103,400.357 294.738,400.786 293.377,401.215 C287.311,403.126 280.836,405.822 274.473,403.333 C272.519,402.569 270.516,401.342 268.474,401.838 C266.781,402.249 265.447,403.8 263.704,403.828 C262.622,403.845 261.637,403.261 260.598,402.964 C257.908,402.194 255.056,403.39 252.662,404.822 C250.268,406.254 247.937,407.992 245.174,408.45 C240.779,409.179 236.614,406.652 232.217,407.097 C230.242,407.297 228.377,408.095 226.642,409.01 C226.356,409.16 224.058,410.205 224.057,410.578 L224.048,415.091 L398.368,415.423 L398.368,402.892" id="Fill-85" fill="#FBB03B"></path>
            <text id="0" font-family="LucidaGrande, Lucida Grande" font-size="3.3358" font-weight="normal" fill="#D6D6D6">
                <tspan x="215.0371" y="415.533314">0</tspan>
            </text>
            <polygon id="Fill-86" fill="#CCCCCC" points="223.809 418.426 224.325 418.426 224.325 349.708 223.809 349.708"></polygon>
            <polygon id="Fill-87" fill="#CCCCCC" points="220.175 415.681 410.249 415.681 410.249 415.166 220.175 415.166"></polygon>
            <text id="100" font-family="LucidaGrande, Lucida Grande" font-size="3.3358" font-weight="normal" fill="#D6D6D6">
                <tspan x="213.1655" y="403.692314">100</tspan>
            </text>
            <text id="Aug-1" font-family="LucidaGrande, Lucida Grande" font-size="3.3358" font-weight="normal" fill="#D6D6D6">
                <tspan x="219.813416" y="422.595292">Aug 1</tspan>
            </text>
            <polygon id="Fill-88" fill="#CCCCCC" points="220.175 403.839 224.067 403.839 224.067 403.323 220.175 403.323"></polygon>
            <text id="200" font-family="LucidaGrande, Lucida Grande" font-size="3.3358" font-weight="normal" fill="#D6D6D6">
                <tspan x="213.1655" y="391.849314">200</tspan>
            </text>
            <polygon id="Fill-89" fill="#CCCCCC" points="220.175 391.997 224.067 391.997 224.067 391.481 220.175 391.481"></polygon>
            <text id="300" font-family="LucidaGrande, Lucida Grande" font-size="3.3358" font-weight="normal" fill="#D6D6D6">
                <tspan x="213.1655" y="380.008314">300</tspan>
            </text>
            <polygon id="Fill-90" fill="#CCCCCC" points="220.175 380.155 224.067 380.155 224.067 379.639 220.175 379.639"></polygon>
            <text id="400" font-family="LucidaGrande, Lucida Grande" font-size="3.3358" font-weight="normal" fill="#D6D6D6">
                <tspan x="213.1655" y="368.165314">400</tspan>
            </text>
            <polygon id="Fill-91" fill="#CCCCCC" points="220.175 368.313 224.067 368.313 224.067 367.797 220.175 367.797"></polygon>
            <text id="500" font-family="LucidaGrande, Lucida Grande" font-size="3.3358" font-weight="normal" fill="#D6D6D6">
                <tspan x="213.1655" y="356.321314">500</tspan>
            </text>
            <polygon id="Fill-92" fill="#CCCCCC" points="220.175 356.471 224.067 356.471 224.067 355.955 220.175 355.955"></polygon>
            <polygon id="Fill-93" fill="#CCCCCC" points="223.809 418.426 224.325 418.426 224.325 415.423 223.809 415.423"></polygon>
            <text id="Aug-2" font-family="LucidaGrande, Lucida Grande" font-size="3.3358" font-weight="normal" fill="#D6D6D6">
                <tspan x="248.882" y="422.595314">Aug 2</tspan>
            </text>
            <polygon id="Fill-94" fill="#CCCCCC" points="252.878 418.426 253.393 418.426 253.393 415.423 252.878 415.423"></polygon>
            <text id="Aug-3" font-family="LucidaGrande, Lucida Grande" font-size="3.3358" font-weight="normal" fill="#D6D6D6">
                <tspan x="277.951" y="422.595314">Aug 3</tspan>
            </text>
            <polygon id="Fill-95" fill="#CCCCCC" points="281.946 418.426 282.462 418.426 282.462 415.423 281.946 415.423"></polygon>
            <text id="Aug-4" font-family="LucidaGrande, Lucida Grande" font-size="3.3358" font-weight="normal" fill="#D6D6D6">
                <tspan x="307.021" y="422.595314">Aug 4</tspan>
            </text>
            <polygon id="Fill-96" fill="#CCCCCC" points="311.015 418.426 311.531 418.426 311.531 415.423 311.015 415.423"></polygon>
            <text id="Aug-5" font-family="LucidaGrande, Lucida Grande" font-size="3.3358" font-weight="normal" fill="#D6D6D6">
                <tspan x="336.089" y="422.595314">Aug 5</tspan>
            </text>
            <polygon id="Fill-97" fill="#CCCCCC" points="340.084 418.426 340.6 418.426 340.6 415.423 340.084 415.423"></polygon>
            <text id="Aug-6" font-family="LucidaGrande, Lucida Grande" font-size="3.3358" font-weight="normal" fill="#D6D6D6">
                <tspan x="365.158" y="422.595314">Aug 6</tspan>
            </text>
            <polygon id="Fill-98" fill="#CCCCCC" points="369.153 418.426 369.669 418.426 369.669 415.423 369.153 415.423"></polygon>
            <text id="Aug-7" font-family="LucidaGrande, Lucida Grande" font-size="3.3358" font-weight="normal" letter-spacing="-0.0001" fill="#D6D6D6">
                <tspan x="394.227" y="422.595314">Aug 7</tspan>
            </text>
            <polygon id="Fill-99" fill="#CCCCCC" points="398.222 418.426 398.738 418.426 398.738 415.423 398.222 415.423"></polygon>
            <polygon id="Fill-100" fill="#FFFFFF" points="442.881 442.833 564.944 442.833 564.944 324.553 442.881 324.553"></polygon>
            <text id="2.9K" font-family="LucidaGrande, Lucida Grande" font-size="15.4727" font-weight="normal" fill="#F6712E">
                <tspan x="485.865" y="389.555269">2.9K</tspan>
            </text>
            <text id="Stats" font-family="LucidaGrande, Lucida Grande" font-size="9.2836" font-weight="normal" fill="#C0C0C0">
                <tspan x="493.697" y="339.748385">Stats</tspan>
            </text>
            <path d="M503.913,359.574 C487.215,359.574 473.63,373.159 473.63,389.857 C473.63,406.555 487.215,420.14 503.913,420.14 C520.611,420.14 534.196,406.555 534.196,389.857 C534.196,373.159 520.611,359.574 503.913,359.574 Z M503.913,428.392 C482.664,428.392 465.378,411.105 465.378,389.857 C465.378,368.608 482.664,351.322 503.913,351.322 C525.161,351.322 542.448,368.608 542.448,389.857 C542.448,411.105 525.161,428.392 503.913,428.392 Z" id="Fill-101" fill="#E6E6E6"></path>
            <path d="M525.326,368.444 C530.813,373.937 534.194,381.481 534.196,389.857 C534.194,398.232 530.813,405.777 525.326,411.27 C519.833,416.757 512.288,420.138 503.913,420.14 C495.537,420.138 487.993,416.757 482.5,411.27 L476.664,417.105 C483.625,424.072 493.285,428.394 503.913,428.392 C514.541,428.394 524.201,424.072 531.161,417.105 C538.128,410.145 542.45,400.485 542.448,389.857 C542.45,379.229 538.128,369.569 531.161,362.609 L525.326,368.444" id="Fill-102" fill="#F15A24"></path>
            <text id="10%" font-family="LucidaGrande, Lucida Grande" font-size="7.1106" font-weight="normal" letter-spacing="-0.0001" fill="#F6712E">
                <tspan x="499.127" y="401.157602">10%</tspan>
            </text>
            <polyline id="Fill-103" fill="#F15A24" points="495.328 399.849 496.76 398.417 498.191 399.849 498.471 399.849 498.471 399.569 496.899 397.998 496.62 397.998 495.049 399.569 495.049 399.849 495.328 399.849"></polyline>
            <path d="M496.562,398.137 L496.562,402.532 C496.562,402.641 496.651,402.729 496.76,402.729 C496.869,402.729 496.957,402.641 496.957,402.532 L496.957,398.137 C496.957,398.028 496.869,397.94 496.76,397.94 C496.651,397.94 496.562,398.028 496.562,398.137" id="Fill-104" fill="#F15A24"></path>
        </g>
    </g>
</svg>