<?xml version="1.0" encoding="UTF-8"?>
<svg width="375px" height="250px" viewBox="0 0 375 250" version="1.1" xmlns="http://www.w3.org/2000/svg" xmlns:xlink="http://www.w3.org/1999/xlink">
    <defs></defs>
    <g id="Page-1" stroke="none" stroke-width="1" fill="none" fill-rule="evenodd">
        <g id="Group-6">
            <rect id="Rectangle" fill="#EAEBEC" x="0" y="0" width="375" height="250"></rect>
            <g id="Group-4" transform="translate(90.000000, 43.000000)">
                <g id="Group-2" transform="translate(0.000000, 79.000000)">
                    <polyline id="Fill-155" fill="#DA3535" points="0.402 70.729 4.617 74.942 12.896 66.663 18.218 71.986 21.475 53.871 12.418 55.5 3.358 57.127 8.682 62.45 0.402 70.729"></polyline>
                    <polyline id="Fill-156" fill="#DA3535" points="71.358 4.428 67.145 0.214 58.868 8.492 53.544 3.169 50.287 21.285 59.345 19.657 68.403 18.028 63.082 12.706 71.358 4.428"></polyline>
                    <path d="M19.886,33.231 C21.731,22.921 32.489,17.128 42.332,18.89 C50.507,20.203 56.658,27.43 56.97,35.365 C58.586,51.498 47.52,67.348 32.994,73.813 C31.853,74.042 30.675,74.06 29.571,73.815 C27.966,73.459 26.532,72.573 25.575,71.023 C23.648,60.087 29.371,56.869 25.115,51.089 C20.477,44.79 19.178,39.531 19.886,33.231" id="Fill-157" fill="#F5D08A"></path>
                    <path d="M29.752,48.429 C28.855,49.457 28.804,50.674 30.342,52.066 C32.073,53.166 32.407,54.844 31.644,56.978 C30.928,60.763 31.794,62.464 35.339,60.895 C37.184,59.96 38.891,58.491 40.248,56.644 C41.585,54.052 40.742,52.528 38.916,51.883 C32.313,52.209 31.119,47.056 29.752,48.429" id="Fill-158" fill="#F3B572"></path>
                    <path d="M38.378,48.614 C31.949,47.667 27.212,45.002 25.164,38.329 C23.115,31.656 29.41,24.114 35.168,23.216 C40.925,22.317 47.419,25.378 50.349,32.648 C53.278,39.917 52.443,52.104 45.967,57.027 C49.434,48.583 43.883,34.336 34.566,34.415 C42.807,38.686 42.159,48.784 38.378,48.614" id="Fill-159" fill="#F3B572"></path>
                    <path d="M26.218,40.98 C23.93,36.778 24.268,30.677 28.278,26.619 C32.29,22.561 39.294,21.762 43.596,24.743 C37.996,22.284 31.554,24.892 28.26,29.503 C25.03,34.026 25.58,39.204 26.218,40.98" id="Fill-160" fill="#ED9749"></path>
                    <path d="M29.752,48.429 C28.855,49.457 28.804,50.674 30.342,52.066 C32.073,53.166 32.407,54.844 31.644,56.978 C31.088,59.908 31.484,61.589 33.335,61.47 C32.029,60.649 34.404,58.379 35.382,56.651 C36.221,54.226 33.121,52.14 30.884,50.665 C30.021,49.87 30.415,48.733 31.524,49.017 C30.787,48.023 30.146,48.034 29.752,48.429" id="Fill-161" fill="#ED9749"></path>
                </g>
                <g id="Group-3" transform="translate(111.000000, 77.000000)">
                    <path d="M41.193,33.868 C40.84,32.868 40.217,32.36 39.461,31.781 L38.416,31.037 C38.188,30.834 37.87,31.139 38.022,31.42 C38.249,31.98 38.662,32.381 39.103,32.801 C38.582,32.735 37.6,32.355 37.218,31.974 C36.738,31.483 36.379,30.772 36.173,30.201 C35.927,29.812 35.481,29.99 35.444,30.755 C35.399,31.896 35.692,32.814 36.533,34.18 C37.378,35.126 38.969,36.073 39.709,36.098 C40.151,36.243 40.485,36.521 40.761,36.871 L42.127,34.498 C41.717,34.382 41.403,34.176 41.193,33.868" id="Fill-397" fill="#ED9749"></path>
                    <path d="M57.97,35.488 C56.031,38.418 52.353,40.198 49.066,42.149 L40.424,36.635 C40.311,35.546 40.54,34.652 41.286,34.055 C43.497,34.929 46.287,36.268 48.403,37.342 L53.858,32.979 C56.738,30.676 59.807,32.709 57.97,35.488" id="Fill-398" fill="#DA3535"></path>
                    <path d="M41.709,35.941 C41.354,34.941 40.73,34.433 39.974,33.854 L38.931,33.111 C38.703,32.905 38.384,33.211 38.537,33.493 C38.765,34.054 39.175,34.455 39.616,34.874 C39.096,34.81 38.114,34.428 37.732,34.046 C37.253,33.557 36.892,32.846 36.687,32.274 C36.441,31.885 35.996,32.063 35.959,32.829 C35.914,33.97 36.204,34.888 37.047,36.253 C37.892,37.199 39.483,38.146 40.224,38.172 C40.666,38.314 41,38.594 41.275,38.945 L42.643,36.573 C42.231,36.456 41.916,36.248 41.709,35.941" id="Fill-399" fill="#F3B572"></path>
                    <path d="M33.355,23.265 C32.075,22.938 30.782,22.227 29.671,21.161 L28.209,22.634 L31.879,26.272 L31.891,26.261 L31.893,26.258 L31.896,26.254 L31.899,26.253 L31.899,26.251 L31.903,26.247 L31.907,26.243 L31.908,26.241 L31.912,26.237 L31.919,26.232 L31.921,26.229 L31.928,26.222 L31.932,26.219 L31.934,26.217 L31.937,26.212 L31.938,26.21 L31.939,26.209 L31.942,26.206 L31.945,26.202 L31.948,26.2 L31.951,26.196 L31.958,26.19 L31.961,26.187 L31.964,26.185 L31.967,26.18 L31.973,26.174 L31.978,26.168 L31.981,26.165 L31.985,26.161 L31.988,26.157 L31.99,26.155 L31.994,26.151 L31.997,26.147 L32,26.145 L32.002,26.142 L32.006,26.138 L32.021,26.122 L32.023,26.118 L32.026,26.115 L32.029,26.112 L32.031,26.108 L32.035,26.106 L32.037,26.103 L32.041,26.1 L32.043,26.097 L32.048,26.093 C32.779,25.275 33.217,24.287 33.355,23.265 Z M31.941,18.871 L29.912,20.917 C30.966,21.926 32.186,22.604 33.392,22.924 C33.494,21.478 33.01,19.997 31.941,18.871 Z M24.104,18.985 C23.373,19.803 22.938,20.791 22.796,21.813 C24.076,22.141 25.369,22.852 26.481,23.917 L27.77,22.619 L24.104,18.985 Z M27.308,17.266 C26.287,17.414 25.302,17.857 24.491,18.597 L24.487,18.6 L24.483,18.604 L24.48,18.605 L24.478,18.609 L24.474,18.611 L24.471,18.615 L24.467,18.617 L24.466,18.62 L24.462,18.624 L24.445,18.638 L24.441,18.642 L24.438,18.645 L24.437,18.648 L24.433,18.649 L24.429,18.654 L24.427,18.657 L24.422,18.661 L24.418,18.662 L24.416,18.666 L24.409,18.671 L24.406,18.674 L24.403,18.677 L24.401,18.681 L24.397,18.686 L24.394,18.688 L24.388,18.693 L24.385,18.697 L24.381,18.699 L24.377,18.701 L24.376,18.705 L24.373,18.707 L24.372,18.709 L24.368,18.711 L24.365,18.714 L24.362,18.718 L24.355,18.724 L24.353,18.727 L24.346,18.733 L24.344,18.735 L24.34,18.738 L24.337,18.741 L24.334,18.746 L24.333,18.747 L24.33,18.75 L24.327,18.752 L24.324,18.755 L24.312,18.767 L27.98,22.406 L29.442,20.934 C28.367,19.828 27.647,18.543 27.308,17.266 Z M31.714,18.645 C31.585,18.523 31.453,18.413 31.315,18.308 C30.212,17.563 28.989,17.12 27.649,17.228 C27.979,18.43 28.665,19.645 29.684,20.69 L31.714,18.645 Z M24.211,26.207 C23.141,25.08 22.657,23.601 22.762,22.154 C23.966,22.474 25.187,23.152 26.241,24.16 L24.211,26.207 Z M24.44,26.434 C25.574,27.494 27.059,27.966 28.503,27.851 C28.174,26.647 27.486,25.434 26.47,24.388 L24.44,26.434 Z M31.662,26.48 C30.851,27.221 29.865,27.664 28.844,27.813 C28.506,26.535 27.785,25.249 26.71,24.145 L27.997,22.848 L31.662,26.48 Z" id="Fill-400" fill="#DA3535"></path>
                    <path d="M16.634,3.057 L15.602,14.59 L4.484,14.59 L3.452,3.057 L16.634,3.057 Z M18.551,1.303 L1.536,1.303 L2.88,16.343 L17.207,16.343 L18.551,1.303 Z" id="Fill-401" fill="#996639"></path>
                    <polyline id="Fill-402" fill="#996639" points="15.121 2.873 14.122 14.996 5.964 14.996 4.938 2.873 6.501 2.873 7.272 14.59 12.812 14.59 13.562 2.873 15.121 2.873"></polyline>
                    <polyline id="Fill-403" fill="#996639" points="10.991 2.646 10.784 14.59 9.284 14.59 9.07 2.646 10.991 2.646"></polyline>
                    <path d="M18.682,2.995 C19.329,2.995 19.854,2.392 19.854,1.651 C19.854,0.907 19.329,0.305 18.682,0.305 L1.473,0.305 C0.826,0.305 0.301,0.907 0.301,1.651 C0.301,2.392 0.826,2.995 1.473,2.995 L18.682,2.995" id="Fill-404" fill="#4B3522"></path>
                    <polyline id="Fill-405" fill="#996639" points="2.817 11.401 2.985 13.009 17.311 13.009 17.479 11.401 2.817 11.401"></polyline>
                    <polyline id="Fill-406" fill="#996639" points="2.713 8.146 2.88 9.752 17.207 9.752 17.373 8.146 2.713 8.146"></polyline>
                    <polyline id="Fill-407" fill="#996639" points="2.533 4.706 2.7 6.313 17.026 6.313 17.193 4.706 2.533 4.706"></polyline>
                    <path d="M59.42,29.977 C58.693,29.575 57.87,27.889 58.276,26.312 C59.297,24.552 59.91,22.795 59.087,21.048 C57.788,17.936 53.565,16.963 51.104,19.737 C50.198,21.197 50.59,21.775 50.323,22.797 C49.758,23.565 48.654,23.798 48.491,24.502 C48.441,25.147 49.229,25.086 49.733,25.587 C49.695,25.868 49.604,26.142 49.41,26.403 C49.405,26.551 49.518,26.656 49.753,26.741 C49.517,26.759 49.325,26.894 49.312,27.031 C49.285,27.198 49.674,27.343 49.651,27.615 C49.635,27.932 49.57,27.97 49.427,28.299 C49.268,28.648 49.45,28.944 49.843,29.03 C50.9,29.259 51.806,29.322 52.649,29.28 C53.467,29.703 54.145,31.088 54.204,31.883 L59.42,29.977" id="Fill-408" fill="#F3B572"></path>
                    <path d="M30.491,67.634 C30.105,67.912 29.6,68.294 28.97,68.302 C27.649,67.947 26.016,68.047 24.694,68.028 C23.813,67.513 23.23,68.122 23.755,68.556 L29.732,71.542 C30.896,72.106 31.61,71.927 31.946,71.118 C32.312,69.938 32.686,69.258 33.185,68.528 L30.491,67.634" id="Fill-409" fill="#F3B572"></path>
                    <path d="M61.423,47.366 C62.201,42.605 63.473,33.768 59.542,30.08 C58.271,28.889 55.45,31.23 54.209,32.005 C49.076,39.253 46.46,46.43 45.478,54.403 L61.423,47.366" id="Fill-410" fill="#DF4D4B"></path>
                    <path d="M59.813,30.352 C59.314,29.813 59.282,29.312 59.021,28.595 C57.043,28.875 54.235,30.252 53.561,30.873 C53.913,31.875 53.554,32.071 53.56,32.963 C55.813,31.421 57.408,31.021 59.813,30.352" id="Fill-411" fill="#DA3535"></path>
                    <path d="M58.484,37.561 C56.546,40.492 52.866,42.271 49.581,44.222 L40.937,38.708 C40.826,37.619 41.054,36.726 41.801,36.128 C44.011,37.004 46.802,38.34 48.918,39.415 L54.374,35.053 C57.252,32.75 60.321,34.783 58.484,37.561" id="Fill-412" fill="#DA3535"></path>
                    <path d="M45.74,52.422 C42.418,52.778 36.381,52.159 34.645,55.696 L29.829,67.903 L32.703,69.536 L38.067,58.312 C38.244,58.038 38.315,57.761 38.554,57.628 C38.823,57.475 39.1,57.477 39.488,57.429 L45.622,57.429 L45.74,52.422" id="Fill-413" fill="#588374"></path>
                    <path d="M62.756,57.853 L64.225,40.975 C64.291,40.204 64.529,39.555 64.913,39.128 C65.222,38.783 65.648,38.579 66.177,38.579 L68.7,38.579 L68.7,36.343 L66.177,36.343 C64.969,36.343 63.979,36.824 63.254,37.634 C62.539,38.431 62.104,39.533 61.996,40.781 L60.527,57.661 L62.756,57.853" id="Fill-414" fill="#996639"></path>
                    <path d="M68.169,35.819 L74.614,35.819 C74.807,35.819 74.964,35.977 74.964,36.168 L74.964,38.809 C74.964,39.002 74.807,39.158 74.614,39.158 L68.169,39.158 C67.977,39.158 67.818,39.002 67.818,38.809 L67.818,36.168 C67.818,35.977 67.977,35.819 68.169,35.819" id="Fill-415" fill="#5F4227"></path>
                    <path d="M43.209,50.584 C43.209,48.637 43.487,46.487 45.987,46.431 L49.772,46.431 C49.86,49.683 48.043,51.37 43.209,50.584 Z M42.064,57.693 L62.102,57.693 L63.268,45.286 L45.987,45.286 C43.384,45.346 42.064,47.382 42.064,50.304 L42.064,57.693 Z" id="Fill-416" fill="#5F4227"></path>
                    <path d="M62.563,59.664 L62.796,57.39 L39.192,57.426 C38.71,57.426 38.299,57.731 38.143,58.159 L31.004,73.091 C30.737,73.646 30.974,74.311 31.527,74.576 C32.083,74.842 32.749,74.606 33.013,74.053 L39.892,59.664 L62.563,59.664" id="Fill-417" fill="#996639"></path>
                    <polygon id="Fill-418" fill="#5F4227" points="40.745 66.332 49.83 66.332 49.83 63.226 40.745 63.226"></polygon>
                    <polygon id="Fill-419" fill="#5F4227" points="40.744 69.753 42.564 69.753 42.564 63.226 40.744 63.226"></polygon>
                    <polyline id="Fill-420" fill="#5F4227" points="40.694 63.177 42.574 55.294 44.135 56.214 42.321 64.136 40.694 63.177"></polyline>
                    <polygon id="Fill-421" fill="#588374" points="41.492 72.539 41.799 72.539 41.799 68.929 41.492 68.929"></polygon>
                    <polyline id="Fill-422" fill="#588374" points="44.207 69.811 43.959 69.631 41.838 72.551 42.085 72.732 44.207 69.811"></polyline>
                    <polyline id="Fill-423" fill="#588374" points="45.637 71.94 45.542 71.648 42.109 72.764 42.203 73.058 45.637 71.94"></polyline>
                    <polyline id="Fill-424" fill="#588374" points="45.542 74.505 45.637 74.213 42.203 73.098 42.109 73.39 45.542 74.505"></polyline>
                    <polyline id="Fill-425" fill="#588374" points="43.959 76.521 44.207 76.342 42.085 73.422 41.838 73.603 43.959 76.521"></polyline>
                    <polygon id="Fill-426" fill="#588374" points="41.491 77.224 41.799 77.224 41.799 73.614 41.491 73.614"></polygon>
                    <polyline id="Fill-427" fill="#588374" points="39.082 76.342 39.33 76.521 41.452 73.603 41.204 73.422 39.082 76.342"></polyline>
                    <polyline id="Fill-428" fill="#588374" points="37.651 74.213 37.746 74.505 41.18 73.39 41.086 73.098 37.651 74.213"></polyline>
                    <polyline id="Fill-429" fill="#588374" points="37.746 71.648 37.651 71.94 41.086 73.058 41.18 72.764 37.746 71.648"></polyline>
                    <polyline id="Fill-430" fill="#588374" points="39.33 69.631 39.082 69.811 41.204 72.732 41.452 72.551 39.33 69.631"></polyline>
                    <path d="M41.646,73.269 C41.751,73.269 41.838,73.183 41.838,73.077 C41.838,72.971 41.751,72.884 41.646,72.884 C41.54,72.884 41.452,72.971 41.452,73.077 C41.452,73.183 41.54,73.269 41.646,73.269" id="Fill-431" fill="#5F4227"></path>
                    <path d="M41.646,72.691 C41.858,72.691 42.03,72.864 42.03,73.077 C42.03,73.29 41.858,73.462 41.646,73.462 C41.433,73.462 41.26,73.29 41.26,73.077 C41.26,72.864 41.433,72.691 41.646,72.691 Z M41.646,72.386 C41.264,72.386 40.953,72.695 40.953,73.077 C40.953,73.459 41.264,73.769 41.646,73.769 C42.026,73.769 42.335,73.459 42.335,73.077 C42.335,72.695 42.026,72.386 41.646,72.386 Z" id="Fill-432" fill="#996639"></path>
                    <path d="M41.646,69.917 C43.391,69.917 44.806,71.331 44.806,73.077 C44.806,74.822 43.391,76.236 41.646,76.236 C39.899,76.236 38.485,74.822 38.485,73.077 C38.485,71.331 39.899,69.917 41.646,69.917 Z M41.646,68.478 C39.105,68.478 37.046,70.537 37.046,73.077 C37.046,75.615 39.105,77.675 41.646,77.675 C44.185,77.675 46.244,75.615 46.244,73.077 C46.244,70.537 44.185,68.478 41.646,68.478 Z" id="Fill-433" fill="#996639"></path>
                    <polygon id="Fill-434" fill="#588374" points="62.11 63.167 63.031 63.167 63.031 52.348 62.11 52.348"></polygon>
                    <polyline id="Fill-435" fill="#588374" points="70.249 54.993 69.504 54.451 63.146 63.205 63.89 63.745 70.249 54.993"></polyline>
                    <polyline id="Fill-436" fill="#588374" points="74.534 61.375 74.25 60.498 63.96 63.843 64.245 64.718 74.534 61.375"></polyline>
                    <polyline id="Fill-437" fill="#588374" points="74.25 69.058 74.534 68.183 64.245 64.839 63.96 65.714 74.25 69.058"></polyline>
                    <polyline id="Fill-438" fill="#588374" points="69.504 75.106 70.249 74.565 63.89 65.812 63.146 66.353 69.504 75.106"></polyline>
                    <polygon id="Fill-439" fill="#588374" points="62.11 77.209 63.031 77.209 63.031 66.392 62.11 66.392"></polygon>
                    <polyline id="Fill-440" fill="#588374" points="54.893 74.565 55.636 75.106 61.996 66.353 61.25 65.812 54.893 74.565"></polyline>
                    <polyline id="Fill-441" fill="#588374" points="50.605 68.183 50.89 69.058 61.181 65.714 60.896 64.839 50.605 68.183"></polyline>
                    <polyline id="Fill-442" fill="#588374" points="50.89 60.498 50.605 61.375 60.896 64.718 61.181 63.843 50.89 60.498"></polyline>
                    <polyline id="Fill-443" fill="#588374" points="55.636 54.451 54.893 54.993 61.25 63.745 61.996 63.205 55.636 54.451"></polyline>
                    <path d="M62.57,53.844 C68.609,53.844 73.506,58.739 73.506,64.778 C73.506,70.817 68.609,75.716 62.57,75.716 C56.531,75.716 51.634,70.817 51.634,64.778 C51.634,58.739 56.531,53.844 62.57,53.844 Z M62.57,51.889 C55.451,51.889 49.679,57.659 49.679,64.778 C49.679,71.898 55.451,77.671 62.57,77.671 C69.689,77.671 75.461,71.898 75.461,64.778 C75.461,57.659 69.689,51.889 62.57,51.889 Z" id="Fill-444" fill="#996639"></path>
                    <path d="M62.57,65.354 C62.888,65.354 63.146,65.096 63.146,64.778 C63.146,64.462 62.888,64.202 62.57,64.202 C62.254,64.202 61.995,64.462 61.995,64.778 C61.995,65.096 62.254,65.354 62.57,65.354" id="Fill-445" fill="#5F4227"></path>
                    <path d="M62.57,63.623 C63.209,63.623 63.726,64.14 63.726,64.778 C63.726,65.416 63.209,65.933 62.57,65.933 C61.934,65.933 61.416,65.416 61.416,64.778 C61.416,64.14 61.934,63.623 62.57,63.623 Z M62.57,62.706 C61.427,62.706 60.498,63.635 60.498,64.778 C60.498,65.924 61.427,66.851 62.57,66.851 C63.714,66.851 64.643,65.924 64.643,64.778 C64.643,63.635 63.714,62.706 62.57,62.706 Z" id="Fill-446" fill="#996639"></path>
                    <path d="M23.755,68.556 L33.382,73.366 C33.6,73.475 33.691,73.736 33.584,73.955 L32.639,75.9 C32.533,76.118 32.267,76.211 32.051,76.103 L22.422,71.294 C22.204,71.185 22.112,70.923 22.219,70.705 L23.165,68.758 C23.271,68.54 23.536,68.447 23.755,68.556" id="Fill-447" fill="#5F4227"></path>
                    <path d="M50.674,20.007 C50.67,21.899 53.683,20.267 54.279,24.396 L54.585,24.45 C54.878,23.578 56.489,23.732 56.331,24.803 C56.285,25.312 56.487,26.218 56.797,26.665 C57.157,27.133 57.842,27.185 58.183,26.856 C59.485,24.475 60.651,22.19 59.313,20.022 C56.985,16.938 52.56,17.055 50.674,20.007" id="Fill-448" fill="#5F4227"></path>
                </g>
                <g id="Group" transform="translate(0.000000, 13.000000)">
                    <path d="M0.165,19.578 C18.92,-5.353 59.127,-5.353 77.882,19.578 C59.127,44.509 18.92,44.509 0.165,19.578" id="Fill-449" fill="#ED9749"></path>
                    <path d="M72.409,20.368 C55.133,39.296 22.913,39.296 5.638,20.368 L4.917,19.578 L5.638,18.788 C22.913,-0.141 55.133,-0.141 72.409,18.788 L73.129,19.578 L72.409,20.368" id="Fill-450" fill="#996639"></path>
                    <path d="M6.502,19.578 C23.314,37.998 54.732,37.998 71.544,19.578 C54.732,1.158 23.314,1.158 6.502,19.578" id="Fill-451" fill="#D6EEF5"></path>
                    <path d="M39.024,33.415 C46.644,33.415 52.86,27.199 52.86,19.578 C52.86,11.957 46.644,5.741 39.024,5.741 C31.402,5.741 25.187,11.957 25.187,19.578 C25.187,27.199 31.402,33.415 39.024,33.415" id="Fill-452" fill="#588374"></path>
                    <path d="M42.82,23.222 C46.708,23.222 49.878,20.05 49.878,16.164 C49.878,12.276 46.708,9.106 42.82,9.106 C38.934,9.106 35.763,12.276 35.763,16.164 C35.763,20.05 38.934,23.222 42.82,23.222" id="Fill-453" fill="#FFFFFE"></path>
                    <path d="M21.102,35.069 C19.802,34.583 18.522,34.044 17.266,33.448 L21.251,31.147 C22.606,31.695 23.989,32.178 25.388,32.594 L21.102,35.069" id="Fill-454" fill="#99612F"></path>
                    <path d="M25.388,32.594 C23.989,32.178 22.606,31.695 21.251,31.147 L22.548,30.398 C23.943,30.929 25.362,31.388 26.801,31.778 L25.388,32.594" id="Fill-455" fill="#5D4027"></path>
                    <path d="M26.801,31.778 C25.362,31.388 23.943,30.929 22.548,30.398 L27.655,27.45 C28.303,28.382 29.064,29.233 29.916,29.98 L26.801,31.778" id="Fill-456" fill="#849699"></path>
                    <path d="M62.811,10.988 C61.687,10.32 60.538,9.706 59.363,9.143 L63.19,6.933 C64.301,7.54 65.391,8.188 66.454,8.885 L62.811,10.988" id="Fill-457" fill="#99612F"></path>
                    <path d="M61.643,11.663 C60.498,11.007 59.322,10.404 58.126,9.857 L59.363,9.143 C60.538,9.706 61.687,10.32 62.811,10.988 L61.643,11.663" id="Fill-458" fill="#5D4027"></path>
                    <path d="M52.597,16.885 C52.372,15.757 52.011,14.678 51.529,13.665 L58.126,9.857 C59.322,10.404 60.498,11.007 61.643,11.663 L52.597,16.885" id="Fill-459" fill="#849699"></path>
                    <path d="M29.916,29.98 C29.064,29.233 28.303,28.382 27.655,27.45 L38.111,21.413 C39.112,22.312 40.371,22.931 41.76,23.142 L29.916,29.98 M49.391,18.736 C49.705,17.938 49.878,17.071 49.878,16.164 C49.878,15.664 49.826,15.177 49.726,14.706 L51.529,13.665 C52.011,14.678 52.372,15.757 52.597,16.885 L49.391,18.736" id="Fill-460" fill="#375249"></path>
                    <path d="M41.76,23.142 C40.371,22.931 39.112,22.312 38.111,21.413 L49.726,14.706 C49.826,15.177 49.878,15.664 49.878,16.164 C49.878,17.071 49.705,17.938 49.391,18.736 L41.76,23.142" id="Fill-461" fill="#9D9E9A"></path>
                    <path d="M9.779,34.702 C8.992,35.156 8.717,36.184 9.171,36.97 C9.626,37.757 10.653,38.033 11.44,37.578 L68.467,4.654 C69.254,4.2 69.529,3.172 69.075,2.385 C68.62,1.597 67.593,1.323 66.806,1.777 L9.779,34.702" id="Fill-462" fill="#5F4227"></path>
                </g>
                <g id="Group-5" transform="translate(113.000000, 0.000000)">
                    <path d="M26.462,35.875 C27.681,35.913 28.773,35.768 29.787,35.406 C31.481,34.801 33.083,33.553 34.818,31.507 C35.297,30.94 35.977,30.644 36.664,30.632 C35.834,30.471 35.107,29.888 34.803,29.033 C34.598,28.461 34.371,27.939 34.122,27.469 C33.982,27.208 33.837,26.961 33.685,26.731 C32.919,25.577 31.974,24.804 30.888,24.466 L30.877,24.463 L30.877,24.466 C29.738,24.113 28.357,24.195 26.762,24.764 C26.356,24.909 25.94,25.083 25.516,25.287 C25.363,25.361 25.209,25.439 25.052,25.521 C19.671,28.93 21.441,35.554 26.462,35.875 Z M39.468,27.368 C39.927,28.656 39.256,30.073 37.968,30.533 C37.708,30.625 37.44,30.672 37.179,30.678 C37.581,30.755 37.968,30.935 38.302,31.216 C39.344,32.098 39.475,33.658 38.593,34.701 C36.267,37.446 33.992,39.164 31.45,40.071 C30.926,40.258 30.396,40.409 29.855,40.524 L29.855,40.525 C26.516,41.472 21.071,42.246 16.396,42.004 C12.395,42.162 9.769,43.988 7.808,46.628 C3.521,44.029 0.803,40.177 0.761,34.186 C3.769,33.116 6.282,31.342 8.249,28.79 C9.857,22.267 12.257,15.501 15.32,9.696 C15.649,9.043 15.999,8.407 16.365,7.788 C17.855,5.264 19.634,3.004 21.672,0.985 C22.641,0.023 24.204,0.028 25.166,0.995 C26.128,1.962 26.123,3.527 25.156,4.488 C23.42,6.208 21.9,8.14 20.623,10.304 C20.531,10.457 20.442,10.611 20.355,10.766 C21.271,9.827 22.263,8.94 23.331,8.13 C25.963,6.133 29.033,4.607 32.48,3.921 C33.821,3.653 35.125,4.524 35.392,5.866 C35.659,7.208 34.789,8.512 33.445,8.779 C30.755,9.315 28.361,10.504 26.312,12.059 C25.2,12.902 24.185,13.855 23.271,14.875 C25.401,13.548 27.588,12.682 29.793,12.39 C33.432,11.906 36.997,12.95 40.305,15.971 C41.31,16.891 41.379,18.452 40.459,19.456 C39.541,20.46 37.98,20.53 36.977,19.611 C36.366,19.054 35.748,18.6 35.125,18.244 C33.582,17.362 32.005,17.078 30.433,17.286 C28.694,17.517 26.899,18.324 25.096,19.584 C24.61,19.924 24.124,20.297 23.638,20.7 C24.134,20.47 24.619,20.27 25.096,20.1 C27.738,19.157 30.18,19.069 32.348,19.744 L32.347,19.747 C34.562,20.438 36.404,21.888 37.809,24.002 C38.466,24.995 39.021,26.121 39.468,27.368 Z" id="Fill-474" fill="#F5D08A"></path>
                    <path d="M51.967,27.28 C50.749,27.243 49.655,27.389 48.643,27.75 C46.948,28.354 45.345,29.603 43.61,31.649 C43.131,32.215 42.452,32.512 41.765,32.523 C42.596,32.686 43.322,33.268 43.627,34.124 C43.829,34.695 44.058,35.217 44.307,35.687 C44.446,35.949 44.591,36.194 44.744,36.424 C45.51,37.579 46.455,38.351 47.542,38.689 L47.55,38.692 L47.552,38.689 C48.689,39.043 50.072,38.961 51.667,38.392 C52.073,38.247 52.487,38.073 52.911,37.869 C53.065,37.795 53.222,37.717 53.377,37.636 C58.758,34.227 56.987,27.603 51.967,27.28 Z M38.961,35.788 C38.501,34.5 39.174,33.083 40.461,32.623 C40.723,32.53 40.988,32.484 41.249,32.479 C40.849,32.401 40.46,32.222 40.127,31.94 C39.085,31.058 38.955,29.498 39.837,28.455 C42.162,25.71 44.437,23.992 46.978,23.085 C47.503,22.898 48.033,22.748 48.572,22.631 C51.912,21.684 57.357,20.911 62.032,21.153 C66.033,20.995 68.661,19.168 70.62,16.527 C74.907,19.126 77.625,22.98 77.667,28.97 C74.659,30.04 72.147,31.814 70.181,34.366 C68.572,40.889 66.172,47.654 63.11,53.46 C62.778,54.113 62.431,54.749 62.064,55.368 C60.575,57.892 58.796,60.151 56.756,62.171 C55.789,63.132 54.226,63.128 53.264,62.161 C52.301,61.193 52.305,59.628 53.272,58.667 C55.01,56.947 56.528,55.016 57.806,52.851 C57.896,52.7 57.984,52.545 58.072,52.391 C57.158,53.328 56.166,54.215 55.099,55.026 C52.467,57.023 49.397,58.549 45.95,59.234 C44.608,59.502 43.305,58.631 43.037,57.29 C42.769,55.948 43.64,54.645 44.981,54.376 C47.675,53.84 50.068,52.652 52.117,51.096 C53.228,50.253 54.243,49.3 55.157,48.282 C53.028,49.609 50.842,50.473 48.636,50.767 C44.997,51.25 41.431,50.206 38.123,47.184 C37.118,46.265 37.049,44.705 37.969,43.7 C38.889,42.695 40.448,42.626 41.453,43.545 C42.063,44.103 42.682,44.556 43.305,44.912 C44.849,45.793 46.424,46.078 47.996,45.87 C49.734,45.639 51.53,44.832 53.332,43.571 C53.817,43.232 54.304,42.859 54.79,42.457 C54.296,42.686 53.81,42.886 53.332,43.057 C50.69,44 48.248,44.086 46.081,43.412 L46.081,43.409 C43.866,42.719 42.024,41.268 40.622,39.154 C39.964,38.162 39.407,37.035 38.961,35.788 Z" id="Fill-475" fill="#F5D08A"></path>
                    <path d="M5.235,31.256 C5.626,36.172 7.813,40.282 11.905,43.538 C10.306,44.406 9.014,45.644 7.917,47.122 C3.347,44.35 0.449,40.243 0.403,33.854 C2.179,33.223 3.793,32.361 5.235,31.256" id="Fill-476" fill="#DA3535"></path>
                    <path d="M73.209,32.03 C72.812,27.034 70.589,22.856 66.429,19.546 C68.054,18.665 69.367,17.406 70.482,15.903 C75.128,18.721 78.074,22.897 78.12,29.39 C76.315,30.032 74.676,30.908 73.209,32.03" id="Fill-477" fill="#DA3535"></path>
                    <path d="M26.961,23.748 C27.875,23.748 28.747,23.928 29.543,24.256 C28.708,24.236 27.778,24.401 26.762,24.764 C26.356,24.909 25.94,25.083 25.516,25.287 C25.363,25.361 25.209,25.439 25.052,25.521 C19.671,28.93 21.441,35.553 26.462,35.875 C27.681,35.913 28.774,35.768 29.787,35.406 C30.948,34.992 32.068,34.274 33.217,33.204 C32.182,35.635 29.77,37.34 26.961,37.34 C23.206,37.34 20.164,34.297 20.164,30.544 C20.164,26.791 23.206,23.748 26.961,23.748" id="Fill-478" fill="#F3B572"></path>
                    <path d="M51.494,39.409 C50.58,39.409 49.707,39.228 48.91,38.901 C49.746,38.92 50.676,38.755 51.693,38.393 C52.099,38.247 52.513,38.074 52.938,37.869 C53.09,37.796 53.246,37.718 53.401,37.636 C58.783,34.227 57.012,27.604 51.992,27.282 C50.773,27.244 49.682,27.39 48.667,27.751 C47.505,28.165 46.385,28.882 45.237,29.953 C46.273,27.521 48.684,25.816 51.494,25.816 C55.247,25.816 58.29,28.859 58.29,32.613 C58.29,36.366 55.247,39.409 51.494,39.409" id="Fill-479" fill="#F3B572"></path>
                </g>
            </g>
        </g>
    </g>
</svg>