<?xml version="1.0" encoding="UTF-8"?>
<svg width="150px" height="101px" viewBox="0 0 150 101" version="1.1" xmlns="http://www.w3.org/2000/svg" xmlns:xlink="http://www.w3.org/1999/xlink">
    <defs></defs>
    <g id="Page-1" stroke="none" stroke-width="1" fill="none" fill-rule="evenodd">
        <g id="Group">
            <polygon id="Fill-1" fill="#EAEBEC" points="0 100.188 150 100.188 150 0.188 0 0.188"></polygon>
            <polygon id="Fill-3" fill="#FFFFFE" points="38.196 59.1596 112.7004 59.1596 112.7004 35.1888 38.196 35.1888"></polygon>
            <polygon id="Fill-4" fill="#013958" points="38.196 73.7008 112.7004 73.7008 112.7004 61.2472 38.196 61.2472"></polygon>
            <path d="M53.3004,41.2636 C53.4252,41.2636 53.5288,41.2392 53.6116,41.1908 C53.6944,41.1424 53.7604,41.0796 53.8096,41.0016 C53.8588,40.9244 53.8936,40.8356 53.914,40.7356 C53.934,40.636 53.944,40.5344 53.944,40.432 L53.944,39.3468 L54.2164,39.3468 L54.2164,40.432 C54.2164,40.5772 54.1996,40.7148 54.1664,40.8448 C54.1332,40.9748 54.0804,41.0892 54.008,41.1876 C53.9352,41.2864 53.8408,41.3648 53.7248,41.422 C53.6092,41.4796 53.4684,41.5084 53.3032,41.5084 C53.132,41.5084 52.988,41.478 52.8708,41.4176 C52.754,41.3572 52.6596,41.2772 52.5884,41.1772 C52.5164,41.0776 52.4652,40.9628 52.434,40.8328 C52.4028,40.7024 52.3872,40.5688 52.3872,40.432 L52.3872,39.3468 L52.6592,39.3468 L52.6592,40.432 C52.6592,40.5388 52.67,40.642 52.6908,40.742 C52.7124,40.8416 52.7476,40.93 52.7968,41.0064 C52.8464,41.0832 52.9116,41.1452 52.9932,41.1924 C53.0748,41.2396 53.1772,41.2636 53.3004,41.2636" id="Fill-6" fill="#9FA4B9"></path>
            <path d="M55.1656,41.5232 C55.0388,41.5232 54.9136,41.5036 54.7908,41.4644 C54.6676,41.4252 54.562,41.368 54.4732,41.2936 L54.588,41.1156 C54.6808,41.1856 54.7736,41.2388 54.866,41.274 C54.9588,41.3092 55.0568,41.3268 55.1596,41.3268 C55.2744,41.3268 55.3656,41.304 55.4332,41.2588 C55.5004,41.2136 55.5344,41.1496 55.5344,41.0668 C55.5344,41.0288 55.5252,40.996 55.5072,40.9684 C55.4892,40.9412 55.462,40.9176 55.4256,40.8976 C55.3892,40.8776 55.3428,40.8592 55.2864,40.8432 C55.23,40.8272 55.1644,40.81 55.09,40.7916 C54.9952,40.7672 54.9136,40.7444 54.8452,40.722 C54.7764,40.7 54.72,40.674 54.6756,40.6436 C54.6316,40.6136 54.5992,40.5772 54.5792,40.5344 C54.5588,40.4924 54.5488,40.44 54.5488,40.3776 C54.5488,40.2992 54.5644,40.2292 54.5956,40.1672 C54.6268,40.106 54.6696,40.0544 54.7244,40.0132 C54.7784,39.972 54.8424,39.9408 54.916,39.9192 C54.9896,39.8984 55.0688,39.8876 55.1536,39.8876 C55.2724,39.8876 55.3832,39.9068 55.486,39.9452 C55.5888,39.9832 55.6756,40.0336 55.746,40.0964 L55.6252,40.2564 C55.5584,40.1984 55.484,40.1544 55.4012,40.1252 C55.3188,40.096 55.234,40.0816 55.1476,40.0816 C55.0508,40.0816 54.9684,40.1016 54.9008,40.1432 C54.8332,40.1844 54.7996,40.2504 54.7996,40.3412 C54.7996,40.3776 54.8064,40.4076 54.8192,40.432 L54.8844,40.4956 C54.9148,40.5136 54.9536,40.53 55.0008,40.544 C55.0484,40.558 55.1052,40.5732 55.1716,40.5892 C55.2764,40.6136 55.3676,40.638 55.4452,40.6632 C55.5228,40.6884 55.5872,40.718 55.6388,40.7524 C55.6904,40.7868 55.7284,40.8272 55.7536,40.8732 C55.7788,40.9196 55.7916,40.976 55.7916,41.0428 C55.7916,41.1896 55.7348,41.3068 55.622,41.3936 C55.5092,41.4804 55.3572,41.5232 55.1656,41.5232" id="Fill-7" fill="#9FA4B9"></path>
            <path d="M57.3424,40.5984 C57.3364,40.5236 57.3176,40.4544 57.2864,40.3912 C57.2552,40.3276 57.216,40.2736 57.1688,40.2296 C57.1212,40.1848 57.0664,40.15 57.004,40.1252 C56.9412,40.1 56.8748,40.0872 56.8044,40.0872 C56.734,40.0872 56.6672,40.1 56.6048,40.1252 C56.5424,40.15 56.4872,40.1856 56.44,40.2312 C56.3924,40.2764 56.3544,40.3304 56.3252,40.3928 C56.296,40.4552 56.2784,40.5236 56.2724,40.5984 L57.3424,40.5984 Z M56.8012,41.5232 C56.6824,41.5232 56.5736,41.5016 56.4748,41.4584 C56.376,41.4152 56.2912,41.356 56.2208,41.2816 C56.1504,41.2068 56.0952,41.1196 56.056,41.02 C56.0168,40.92 55.9972,40.8152 55.9972,40.704 C55.9972,40.5932 56.0168,40.4884 56.056,40.3896 C56.0952,40.2908 56.1508,40.204 56.2224,40.1296 C56.294,40.0552 56.3792,39.9964 56.478,39.9528 C56.5764,39.9096 56.6852,39.8876 56.8044,39.8876 C56.9232,39.8876 57.0316,39.91 57.1292,39.954 C57.2272,39.9988 57.31,40.0576 57.3788,40.1312 C57.4472,40.2048 57.5,40.2904 57.5376,40.388 C57.5748,40.4856 57.5932,40.5872 57.5932,40.692 L57.592,40.7524 L57.5876,40.7948 L56.2784,40.7948 C56.2844,40.8732 56.3024,40.9452 56.3328,41.0096 C56.3628,41.074 56.4024,41.1296 56.4504,41.1756 C56.4992,41.222 56.554,41.2584 56.6156,41.2844 C56.6768,41.3108 56.7416,41.324 56.8104,41.324 C56.8588,41.324 56.906,41.3172 56.9524,41.304 C56.9988,41.2912 57.042,41.2736 57.0824,41.2512 C57.1228,41.2292 57.1584,41.2016 57.19,41.1696 C57.2212,41.1372 57.2448,41.1008 57.2608,41.0608 L57.4908,41.1244 C57.4644,41.1828 57.4288,41.236 57.3832,41.2844 C57.338,41.3332 57.2856,41.3748 57.226,41.41 C57.1664,41.4452 57.1004,41.4728 57.028,41.4932 C56.9556,41.5136 56.88,41.5232 56.8012,41.5232 Z" id="Fill-8" fill="#9FA4B9"></path>
            <path d="M58.718,40.148 C58.5848,40.1516 58.4676,40.186 58.366,40.2504 C58.264,40.3152 58.192,40.4048 58.1496,40.5196 L58.1496,41.4932 L57.8836,41.4932 L57.8836,39.9152 L58.1316,39.9152 L58.1316,40.2808 C58.186,40.172 58.2576,40.082 58.346,40.0104 C58.4348,39.9388 58.5296,39.9028 58.6304,39.9028 L58.682,39.9028 L58.718,39.906 L58.718,40.148" id="Fill-9" fill="#9FA4B9"></path>
            <path d="M60.3476,41.4932 L60.0816,41.4932 L60.0816,40.6104 C60.0816,40.4412 60.056,40.318 60.0044,40.2416 C59.9532,40.1652 59.8752,40.1268 59.7704,40.1268 C59.716,40.1268 59.6612,40.1372 59.6072,40.1584 C59.5524,40.1796 59.5012,40.2084 59.4528,40.2444 C59.4044,40.2808 59.362,40.324 59.3256,40.3744 C59.2896,40.4248 59.2624,40.4804 59.244,40.5408 L59.244,41.4932 L58.978,41.4932 L58.978,39.9152 L59.22,39.9152 L59.22,40.2536 C59.2824,40.1428 59.3728,40.054 59.4908,39.9876 C59.6084,39.9208 59.7368,39.8876 59.876,39.8876 C59.9668,39.8876 60.0424,39.9044 60.1028,39.9376 C60.1632,39.9708 60.2116,40.0172 60.248,40.0768 C60.284,40.136 60.31,40.2064 60.3252,40.2868 C60.3404,40.3672 60.3476,40.4552 60.3476,40.55 L60.3476,41.4932" id="Fill-10" fill="#9FA4B9"></path>
            <path d="M61.2424,41.324 C61.3272,41.324 61.41,41.3056 61.4908,41.2692 C61.5712,41.2332 61.6344,41.1888 61.6812,41.1364 C61.7192,41.092 61.7384,41.0504 61.7384,41.0124 L61.7384,40.7796 C61.676,40.7552 61.61,40.7368 61.5404,40.7236 C61.4708,40.7108 61.404,40.704 61.3396,40.704 C61.2024,40.704 61.0924,40.732 61.0096,40.7872 C60.9272,40.8428 60.886,40.9184 60.886,41.0156 C60.886,41.0556 60.894,41.0948 60.91,41.132 C60.926,41.1692 60.9496,41.2016 60.9796,41.2304 C61.0096,41.2584 61.0472,41.2812 61.0916,41.2984 C61.1356,41.3156 61.186,41.324 61.2424,41.324 Z M61.176,41.5232 C61.0976,41.5232 61.0252,41.5108 60.9584,41.4856 C60.892,41.4604 60.8344,41.4264 60.786,41.3828 C60.7376,41.3396 60.7,41.288 60.6728,41.2288 C60.6456,41.1692 60.632,41.106 60.632,41.0396 C60.632,40.9652 60.648,40.8972 60.6804,40.8356 C60.7124,40.774 60.7584,40.7216 60.8176,40.6784 C60.8772,40.6348 60.948,40.6016 61.0296,40.5788 C61.1112,40.5552 61.2004,40.544 61.2972,40.544 C61.3736,40.544 61.4512,40.5508 61.53,40.5652 C61.6084,40.5792 61.678,40.5984 61.7384,40.6224 L61.7384,40.4956 C61.7384,40.3668 61.702,40.2652 61.6296,40.1916 C61.5572,40.118 61.4544,40.0816 61.3212,40.0816 C61.162,40.0816 60.9948,40.1428 60.8192,40.266 L60.7316,40.0932 C60.8344,40.0248 60.9364,39.9736 61.0372,39.9392 C61.138,39.9048 61.2424,39.8876 61.3516,39.8876 C61.5528,39.8876 61.7124,39.9432 61.8292,40.054 C61.946,40.1652 62.0044,40.3212 62.0044,40.5228 L62.0044,41.1668 C62.0044,41.2292 62.0328,41.2616 62.0892,41.2636 L62.0892,41.4932 L62.0316,41.502 L61.9804,41.5052 C61.936,41.5052 61.8924,41.4932 61.8504,41.4688 C61.808,41.4448 61.7848,41.4032 61.7808,41.3452 L61.7748,41.2332 C61.7384,41.2816 61.6972,41.324 61.6508,41.36 C61.6044,41.3964 61.5552,41.4268 61.5028,41.4508 C61.45,41.4752 61.3964,41.4932 61.3408,41.5052 C61.2852,41.5172 61.2304,41.5232 61.176,41.5232 Z" id="Fill-11" fill="#9FA4B9"></path>
            <path d="M64.8132,41.4932 L64.5472,41.4932 L64.5472,40.6104 C64.5472,40.4452 64.5204,40.3232 64.4668,40.2444 C64.4136,40.166 64.3344,40.1268 64.2296,40.1268 C64.1208,40.1268 64.0236,40.1656 63.938,40.2432 C63.852,40.3204 63.7912,40.4208 63.7552,40.544 L63.7552,41.4932 L63.4888,41.4932 L63.4888,40.6104 C63.4888,40.4412 63.4628,40.318 63.4104,40.2416 C63.358,40.1652 63.2792,40.1268 63.1748,40.1268 C63.0676,40.1268 62.9708,40.1644 62.8844,40.24 C62.7976,40.3156 62.736,40.416 62.7,40.5408 L62.7,41.4932 L62.4336,41.4932 L62.4336,39.9152 L62.6756,39.9152 L62.6756,40.2536 C62.7404,40.1364 62.824,40.0468 62.9264,39.9832 C63.0296,39.9192 63.1452,39.8876 63.2744,39.8876 C63.4076,39.8876 63.5128,39.9236 63.5904,39.9952 C63.6676,40.0668 63.7156,40.1588 63.7336,40.2716 C63.8752,40.016 64.0756,39.8876 64.3356,39.8876 C64.426,39.8876 64.5024,39.9044 64.5636,39.9376 C64.6252,39.9708 64.674,40.0172 64.7104,40.0768 C64.7468,40.136 64.7728,40.2064 64.7892,40.2868 C64.8052,40.3672 64.8132,40.4552 64.8132,40.55 L64.8132,41.4932" id="Fill-12" fill="#9FA4B9"></path>
            <path d="M66.4608,40.5984 C66.4548,40.5236 66.436,40.4544 66.4048,40.3912 C66.3736,40.3276 66.3344,40.2736 66.2872,40.2296 C66.2396,40.1848 66.1848,40.15 66.1224,40.1252 C66.0596,40.1 65.9932,40.0872 65.9228,40.0872 C65.852,40.0872 65.7856,40.1 65.7232,40.1252 C65.6608,40.15 65.6056,40.1856 65.5584,40.2312 C65.5108,40.2764 65.4728,40.3304 65.4436,40.3928 C65.4144,40.4552 65.3968,40.5236 65.3908,40.5984 L66.4608,40.5984 Z M65.9196,41.5232 C65.8008,41.5232 65.692,41.5016 65.5932,41.4584 C65.4944,41.4152 65.4096,41.356 65.3392,41.2816 C65.2684,41.2068 65.2136,41.1196 65.1744,41.02 C65.1352,40.92 65.1156,40.8152 65.1156,40.704 C65.1156,40.5932 65.1352,40.4884 65.1744,40.3896 C65.2136,40.2908 65.2692,40.204 65.3408,40.1296 C65.4124,40.0552 65.4976,39.9964 65.5964,39.9528 C65.6948,39.9096 65.8036,39.8876 65.9228,39.8876 C66.0416,39.8876 66.15,39.91 66.2476,39.954 C66.3456,39.9988 66.4284,40.0576 66.4972,40.1312 C66.5656,40.2048 66.6184,40.2904 66.656,40.388 C66.6932,40.4856 66.7116,40.5872 66.7116,40.692 L66.7104,40.7524 L66.706,40.7948 L65.3968,40.7948 C65.4028,40.8732 65.4208,40.9452 65.4512,41.0096 C65.4812,41.074 65.5208,41.1296 65.5688,41.1756 C65.6172,41.222 65.6724,41.2584 65.7336,41.2844 C65.7952,41.3108 65.86,41.324 65.9288,41.324 C65.9772,41.324 66.0244,41.3172 66.0708,41.304 C66.1172,41.2912 66.1604,41.2736 66.2008,41.2512 C66.2412,41.2292 66.2768,41.2016 66.3084,41.1696 C66.3396,41.1372 66.3632,41.1008 66.3792,41.0608 L66.6088,41.1244 C66.5828,41.1828 66.5472,41.236 66.5016,41.2844 C66.4564,41.3332 66.404,41.3748 66.3444,41.41 C66.2848,41.4452 66.2188,41.4728 66.1464,41.4932 C66.074,41.5136 65.9984,41.5232 65.9196,41.5232 Z" id="Fill-13" fill="#9FA4B9"></path>
            <polyline id="Fill-14" fill="#9FA4B9" points="52.6592 53.8496 52.9188 53.466 52.5116 53.3356 52.5884 53.088 53.0016 53.2476 52.984 52.8104 53.2848 52.8104 53.2672 53.2476 53.6804 53.088 53.7572 53.3356 53.3496 53.466 53.6156 53.8496 53.3908 53.9972 53.1372 53.6012 52.8776 53.9972 52.6592 53.8496"></polyline>
            <polyline id="Fill-15" fill="#9FA4B9" points="54.6072 53.8496 54.8668 53.466 54.4592 53.3356 54.536 53.088 54.9492 53.2476 54.9316 52.8104 55.2324 52.8104 55.2152 53.2476 55.628 53.088 55.7048 53.3356 55.2976 53.466 55.5632 53.8496 55.3388 53.9972 55.0852 53.6012 54.8252 53.9972 54.6072 53.8496"></polyline>
            <polyline id="Fill-16" fill="#9FA4B9" points="56.5548 53.8496 56.8148 53.466 56.4072 53.3356 56.484 53.088 56.8972 53.2476 56.8796 52.8104 57.1804 52.8104 57.1628 53.2476 57.576 53.088 57.6528 53.3356 57.2456 53.466 57.5112 53.8496 57.2868 53.9972 57.0328 53.6012 56.7732 53.9972 56.5548 53.8496"></polyline>
            <polyline id="Fill-17" fill="#9FA4B9" points="58.5028 53.8496 58.7624 53.466 58.3552 53.3356 58.432 53.088 58.8452 53.2476 58.8272 52.8104 59.1284 52.8104 59.1108 53.2476 59.524 53.088 59.6004 53.3356 59.1932 53.466 59.4588 53.8496 59.2344 53.9972 58.9808 53.6012 58.7212 53.9972 58.5028 53.8496"></polyline>
            <polyline id="Fill-18" fill="#9FA4B9" points="60.4504 53.8496 60.7104 53.466 60.3028 53.3356 60.3796 53.088 60.7928 53.2476 60.7752 52.8104 61.076 52.8104 61.0584 53.2476 61.4716 53.088 61.5484 53.3356 61.1412 53.466 61.4068 53.8496 61.1824 53.9972 60.9288 53.6012 60.6688 53.9972 60.4504 53.8496"></polyline>
            <polyline id="Fill-19" fill="#9FA4B9" points="62.3984 53.8496 62.6584 53.466 62.2508 53.3356 62.3276 53.088 62.7408 53.2476 62.7232 52.8104 63.024 52.8104 63.0064 53.2476 63.4196 53.088 63.4964 53.3356 63.0892 53.466 63.3548 53.8496 63.1304 53.9972 62.8764 53.6012 62.6168 53.9972 62.3984 53.8496"></polyline>
            <polyline id="Fill-20" fill="#9FA4B9" points="64.3464 53.8496 64.6064 53.466 64.1988 53.3356 64.2756 53.088 64.6888 53.2476 64.6712 52.8104 64.972 52.8104 64.9544 53.2476 65.3676 53.088 65.4444 53.3356 65.0372 53.466 65.3028 53.8496 65.0784 53.9972 64.8248 53.6012 64.5648 53.9972 64.3464 53.8496"></polyline>
            <polyline id="Fill-21" fill="#9FA4B9" points="66.2944 53.8496 66.554 53.466 66.1468 53.3356 66.2236 53.088 66.6368 53.2476 66.6188 52.8104 66.92 52.8104 66.9024 53.2476 67.3156 53.088 67.392 53.3356 66.9848 53.466 67.2504 53.8496 67.026 53.9972 66.7724 53.6012 66.5128 53.9972 66.2944 53.8496"></polyline>
            <polyline id="Fill-22" fill="#9FA4B9" points="68.242 53.8496 68.502 53.466 68.0944 53.3356 68.1712 53.088 68.5844 53.2476 68.5668 52.8104 68.8676 52.8104 68.85 53.2476 69.2632 53.088 69.34 53.3356 68.9328 53.466 69.1984 53.8496 68.974 53.9972 68.7204 53.6012 68.4604 53.9972 68.242 53.8496"></polyline>
            <path d="M45.7648,39.9252 C46.0148,39.792 46.1872,39.532 46.1872,39.2292 C46.1872,38.7916 45.832,38.4376 45.3944,38.4376 C44.9568,38.4376 44.602,38.7916 44.602,39.2292 C44.602,39.532 44.774,39.792 45.024,39.9252 C44.5236,40.084 44.158,40.554 44.158,41.1044 L44.158,41.7276 L46.6304,41.7276 L46.6304,41.1044 C46.6304,40.554 46.2652,40.084 45.7648,39.9252" id="Fill-23" fill="#013958"></path>
            <path d="M45.5684,53.8392 L45.5684,54.3088 L45.5312,54.3436 L45.306,54.3436 L45.2724,54.3088 L45.2724,53.8392 C45.118,53.7792 45.0072,53.6308 45.0072,53.4544 C45.0072,53.2268 45.192,53.0416 45.4204,53.0416 C45.648,53.0416 45.8332,53.2268 45.8332,53.4544 C45.8332,53.6308 45.722,53.7792 45.5684,53.8392 Z M44.8752,51.9212 C44.8752,51.6356 45.1076,51.4028 45.3928,51.4028 C45.6792,51.4028 45.9112,51.6356 45.9112,51.9212 L45.9112,52.204 L44.8752,52.204 L44.8752,51.9212 Z M46.5652,52.204 L46.3396,52.204 L46.3396,51.9212 C46.3396,51.3996 45.9148,50.9752 45.3928,50.9752 C44.872,50.9752 44.4476,51.3996 44.4476,51.9212 L44.4476,52.204 L44.2208,52.204 C44.0436,52.204 43.8988,52.3492 43.8988,52.5256 L43.8988,54.366 C43.8988,54.5456 44.0436,54.6912 44.2208,54.6912 L46.5652,54.6912 C46.7452,54.6912 46.8908,54.5456 46.8908,54.366 L46.8908,52.5256 C46.8908,52.3492 46.7452,52.204 46.5652,52.204 Z" id="Fill-24" fill="#013958"></path>
            <path d="M52.7792,27.5824 C52.7792,27.392 52.8128,27.202 52.8796,27.0132 C52.9468,26.824 53.0444,26.6548 53.1724,26.506 C53.3004,26.3572 53.4576,26.2356 53.6436,26.142 C53.8296,26.0484 54.0416,26.0012 54.28,26.0012 C54.5628,26.0012 54.804,26.066 55.0036,26.1956 C55.2028,26.3252 55.3504,26.4912 55.4456,26.6936 L55.258,26.8008 C55.2044,26.6908 55.14,26.5988 55.064,26.524 C54.988,26.4492 54.906,26.3892 54.818,26.3432 C54.7304,26.2972 54.6388,26.2636 54.5436,26.2428 C54.4484,26.2216 54.3544,26.2116 54.262,26.2116 C54.0596,26.2116 53.8808,26.252 53.726,26.334 C53.5712,26.416 53.4404,26.5224 53.3328,26.6532 C53.226,26.7844 53.1448,26.9324 53.0896,27.098 C53.0344,27.2632 53.0072,27.4292 53.0072,27.596 C53.0072,27.7832 53.04,27.9624 53.1052,28.132 C53.1708,28.3016 53.26,28.4512 53.3732,28.5808 C53.4864,28.7104 53.6204,28.814 53.7752,28.8912 C53.93,28.9684 54.0968,29.0072 54.2756,29.0072 C54.3708,29.0072 54.468,28.9956 54.568,28.9716 C54.6676,28.948 54.7648,28.9108 54.8584,28.86 C54.952,28.8092 55.0392,28.7448 55.1196,28.666 C55.2,28.5868 55.2668,28.4936 55.3208,28.3864 L55.5128,28.4804 C55.4592,28.5992 55.3868,28.7052 55.296,28.7976 C55.2052,28.8896 55.1032,28.9668 54.99,29.0296 C54.8768,29.092 54.7572,29.1392 54.6308,29.1704 C54.504,29.2016 54.3796,29.2172 54.2576,29.2172 C54.0404,29.2172 53.8416,29.1696 53.6612,29.0744 C53.4812,28.9792 53.3256,28.8548 53.1948,28.7012 C53.0636,28.548 52.9616,28.374 52.8888,28.1788 C52.8156,27.9836 52.7792,27.7848 52.7792,27.5824" id="Fill-25" fill="#013958"></path>
            <path d="M57.804,29.0028 C58.0184,29.0028 58.1964,28.9628 58.3376,28.8824 C58.4792,28.8016 58.5916,28.6964 58.6748,28.5652 C58.7584,28.434 58.8168,28.2852 58.8512,28.1184 C58.8856,27.9516 58.9028,27.7832 58.9028,27.614 L58.9028,26.0192 L59.1304,26.0192 L59.1304,27.614 C59.1304,27.8252 59.1076,28.0276 59.0612,28.2212 C59.0152,28.4148 58.94,28.5852 58.8356,28.7324 C58.7316,28.88 58.5952,28.9972 58.4268,29.0832 C58.2588,29.1696 58.0524,29.2128 57.8084,29.2128 C57.5584,29.2128 57.3484,29.1672 57.1788,29.0764 C57.0088,28.9856 56.8728,28.8652 56.77,28.7148 C56.6672,28.5644 56.594,28.394 56.5512,28.2032 C56.508,28.0128 56.4864,27.816 56.4864,27.614 L56.4864,26.0192 L56.714,26.0192 L56.714,27.614 C56.714,27.7896 56.7312,27.9608 56.7656,28.1276 C56.7996,28.2944 56.8584,28.4424 56.942,28.5716 C57.0252,28.7012 57.1368,28.8056 57.2768,28.8844 C57.4168,28.9636 57.5924,29.0028 57.804,29.0028" id="Fill-26" fill="#013958"></path>
            <path d="M62.2168,26.5464 C62.0112,26.3168 61.7208,26.2024 61.346,26.2024 C61.036,26.2024 60.8104,26.2612 60.6692,26.3788 C60.5276,26.4964 60.4572,26.6548 60.4572,26.8544 C60.4572,26.9556 60.4748,27.0404 60.5104,27.1092 C60.5464,27.1776 60.602,27.2348 60.678,27.2812 C60.754,27.3272 60.8508,27.3672 60.9684,27.4016 C61.086,27.4356 61.2252,27.4692 61.386,27.502 C61.5584,27.5376 61.7136,27.5776 61.8504,27.6204 C61.9876,27.664 62.1044,27.718 62.2012,27.7832 C62.298,27.8492 62.3724,27.9296 62.4244,28.0248 C62.4764,28.12 62.5024,28.2376 62.5024,28.3776 C62.5024,28.5172 62.4752,28.6396 62.42,28.744 C62.3648,28.8484 62.2876,28.9348 62.1876,29.0048 C62.088,29.0752 61.9688,29.128 61.8304,29.1636 C61.692,29.1992 61.538,29.2172 61.368,29.2172 C60.874,29.2172 60.4556,29.0596 60.1132,28.744 L60.2336,28.5608 C60.3676,28.7004 60.5316,28.8116 60.7252,28.8936 C60.9184,28.9752 61.136,29.016 61.3772,29.016 C61.654,29.016 61.8708,28.966 62.0268,28.8644 C62.1832,28.7632 62.2616,28.61 62.2616,28.4044 C62.2616,28.3 62.2416,28.2116 62.2012,28.1384 C62.1608,28.066 62.0992,28.0024 62.016,27.9488 C61.9324,27.8952 61.8288,27.8492 61.7052,27.8104 C61.582,27.7716 61.4364,27.7344 61.27,27.6988 C61.1,27.6632 60.9504,27.6248 60.8212,27.5844 C60.6916,27.5448 60.582,27.494 60.4928,27.4328 C60.4032,27.372 60.3364,27.2984 60.2916,27.212 C60.2472,27.1256 60.2248,27.0168 60.2248,26.8856 C60.2248,26.7428 60.252,26.616 60.3076,26.506 C60.3624,26.396 60.4392,26.3028 60.5372,26.2272 C60.6356,26.1508 60.7532,26.0936 60.8904,26.0548 C61.0272,26.016 61.1792,25.9972 61.346,25.9972 C61.5512,25.9972 61.7344,26.0276 61.8952,26.0884 C62.056,26.1492 62.2016,26.2428 62.3328,26.3676 L62.2168,26.5464" id="Fill-27" fill="#013958"></path>
            <polyline id="Fill-28" fill="#013958" points="65.7184 26.2248 64.5572 26.2248 64.5572 29.1904 64.3292 29.1904 64.3292 26.2248 63.168 26.2248 63.168 26.0192 65.7184 26.0192 65.7184 26.2248"></polyline>
            <path d="M66.5404,27.6048 C66.5404,27.7864 66.5708,27.9616 66.632,28.1296 C66.6928,28.298 66.7792,28.4468 66.8908,28.5764 C67.0024,28.7056 67.1348,28.8092 67.2884,28.8864 C67.4416,28.9644 67.6104,29.0028 67.7952,29.0028 C67.9856,29.0028 68.158,28.9628 68.3112,28.8824 C68.4644,28.8016 68.5964,28.6956 68.7064,28.5632 C68.8168,28.4304 68.9012,28.2808 68.9608,28.114 C69.0204,27.9476 69.0504,27.7776 69.0504,27.6048 C69.0504,27.4232 69.0192,27.2484 68.9568,27.08 C68.894,26.912 68.8068,26.7632 68.6952,26.6332 C68.5836,26.5036 68.4512,26.4004 68.298,26.3228 C68.1444,26.2456 67.9768,26.2068 67.7952,26.2068 C67.6048,26.2068 67.432,26.2472 67.2772,26.3276 C67.1224,26.408 66.9908,26.5144 66.882,26.6468 C66.7732,26.7796 66.6892,26.9292 66.6296,27.0956 C66.57,27.2624 66.5404,27.4324 66.5404,27.6048 Z M67.7952,29.2128 C67.5748,29.2128 67.374,29.1664 67.1924,29.0744 C67.0108,28.9824 66.8544,28.8616 66.7236,28.7128 C66.592,28.5636 66.4912,28.3924 66.4196,28.1992 C66.3484,28.0052 66.3124,27.8072 66.3124,27.6048 C66.3124,27.3936 66.3504,27.1908 66.4264,26.9976 C66.5024,26.8036 66.6064,26.6324 66.7392,26.4836 C66.8716,26.3348 67.0284,26.2164 67.21,26.1288 C67.3916,26.0408 67.5884,25.9972 67.8,25.9972 C68.02,25.9972 68.2212,26.044 68.4028,26.1376 C68.5844,26.2316 68.74,26.354 68.8696,26.506 C68.9992,26.658 69.0996,26.83 69.1708,27.022 C69.2424,27.214 69.278,27.4084 69.278,27.6048 C69.278,27.8192 69.2404,28.0232 69.1644,28.2164 C69.0884,28.4104 68.984,28.5808 68.8516,28.7284 C68.7192,28.8756 68.5628,28.9932 68.3828,29.0812 C68.2024,29.1688 68.0068,29.2128 67.7952,29.2128 Z" id="Fill-29" fill="#013958"></path>
            <polyline id="Fill-30" fill="#013958" points="73.2308 29.1904 73.2308 26.4484 71.9804 28.5872 71.8372 28.5872 70.5868 26.4484 70.5868 29.1904 70.3588 29.1904 70.3588 26.0192 70.5868 26.0192 71.9088 28.288 73.2308 26.0192 73.4584 26.0192 73.4584 29.1904 73.2308 29.1904"></polyline>
            <polyline id="Fill-31" fill="#013958" points="76.8576 28.9848 76.8576 29.1904 74.7448 29.1904 74.7448 26.0192 76.8172 26.0192 76.8172 26.2248 74.9728 26.2248 74.9728 27.4708 76.5848 27.4708 76.5848 27.6672 74.9728 27.6672 74.9728 28.9848 76.8576 28.9848"></polyline>
            <path d="M78.1664,27.7832 L79.2784,27.7832 C79.3796,27.7832 79.472,27.7612 79.5552,27.7164 C79.6384,27.6716 79.71,27.6132 79.7696,27.54 C79.8292,27.4668 79.8748,27.3836 79.906,27.29 C79.9372,27.1964 79.9528,27.1 79.9528,27.0016 C79.9528,26.9004 79.934,26.8032 79.8968,26.7092 C79.8596,26.6156 79.8088,26.5328 79.7452,26.4616 C79.6812,26.39 79.6068,26.3324 79.5216,26.2896 C79.4368,26.2464 79.3452,26.2248 79.2472,26.2248 L78.1664,26.2248 L78.1664,27.7832 Z M77.9384,29.1904 L77.9384,26.0192 L79.2604,26.0192 C79.3944,26.0192 79.518,26.0476 79.6312,26.104 C79.7444,26.1608 79.8412,26.2356 79.9216,26.33 C80.002,26.4236 80.0652,26.5292 80.1112,26.6468 C80.1576,26.7648 80.1804,26.8828 80.1804,27.0016 C80.1804,27.118 80.1628,27.2304 80.1268,27.3392 C80.0912,27.448 80.0408,27.5456 79.9752,27.632 C79.9096,27.718 79.8308,27.7896 79.7384,27.846 C79.646,27.9024 79.5448,27.9396 79.4344,27.9576 L80.2252,29.1904 L79.9616,29.1904 L79.1936,27.9936 L78.1664,27.9936 L78.1664,29.1904 L77.9384,29.1904 Z" id="Fill-32" fill="#013958"></path>
            <polyline id="Fill-33" fill="#013958" points="82.9272 29.1904 82.9272 26.0192 83.1552 26.0192 83.1552 28.9848 85.0488 28.9848 85.0488 29.1904 82.9272 29.1904"></polyline>
            <path d="M85.8168,27.6048 C85.8168,27.7864 85.8476,27.9616 85.9084,28.1296 C85.9696,28.298 86.056,28.4468 86.1676,28.5764 C86.2792,28.7056 86.4116,28.8092 86.5652,28.8864 C86.7184,28.9644 86.8872,29.0028 87.072,29.0028 C87.2624,29.0028 87.4344,28.9628 87.588,28.8824 C87.7412,28.8016 87.8732,28.6956 87.9832,28.5632 C88.0932,28.4304 88.178,28.2808 88.2376,28.114 C88.2972,27.9476 88.3272,27.7776 88.3272,27.6048 C88.3272,27.4232 88.296,27.2484 88.2332,27.08 C88.1708,26.912 88.0836,26.7632 87.972,26.6332 C87.8604,26.5036 87.728,26.4004 87.5748,26.3228 C87.4212,26.2456 87.2536,26.2068 87.072,26.2068 C86.8816,26.2068 86.7088,26.2472 86.554,26.3276 C86.3992,26.408 86.2672,26.5144 86.1584,26.6468 C86.05,26.7796 85.966,26.9292 85.9064,27.0956 C85.8468,27.2624 85.8168,27.4324 85.8168,27.6048 Z M87.072,29.2128 C86.8516,29.2128 86.6504,29.1664 86.4692,29.0744 C86.2876,28.9824 86.1312,28.8616 86,28.7128 C85.8688,28.5636 85.7676,28.3924 85.6964,28.1992 C85.6252,28.0052 85.5892,27.8072 85.5892,27.6048 C85.5892,27.3936 85.6272,27.1908 85.7032,26.9976 C85.7792,26.8036 85.8832,26.6324 86.016,26.4836 C86.1484,26.3348 86.3052,26.2164 86.4868,26.1288 C86.6684,26.0408 86.8652,25.9972 87.0764,25.9972 C87.2968,25.9972 87.498,26.044 87.6796,26.1376 C87.8612,26.2316 88.0168,26.354 88.1464,26.506 C88.2756,26.658 88.376,26.83 88.4476,27.022 C88.5192,27.214 88.5548,27.4084 88.5548,27.6048 C88.5548,27.8192 88.5168,28.0232 88.4412,28.2164 C88.3652,28.4104 88.2608,28.5808 88.1284,28.7284 C87.996,28.8756 87.8396,28.9932 87.6592,29.0812 C87.4792,29.1688 87.2832,29.2128 87.072,29.2128 Z" id="Fill-34" fill="#013958"></path>
            <path d="M91.9804,28.6992 C91.674,29.0416 91.3196,29.2128 90.9176,29.2128 C90.7032,29.2128 90.5044,29.1664 90.3212,29.0744 C90.138,28.9824 89.9812,28.86 89.85,28.708 C89.7188,28.556 89.6164,28.3832 89.5416,28.19 C89.4672,27.9964 89.4304,27.7996 89.4304,27.6 C89.4304,27.392 89.4668,27.1908 89.5396,26.9976 C89.6124,26.8036 89.714,26.6324 89.8432,26.4836 C89.9728,26.3348 90.126,26.2164 90.3032,26.1288 C90.4804,26.0408 90.6748,25.9972 90.8864,25.9972 C91.0472,25.9972 91.1908,26.0144 91.3172,26.0484 C91.4436,26.0824 91.5564,26.1304 91.6544,26.1912 C91.7528,26.252 91.8384,26.3252 91.9112,26.41 C91.984,26.4952 92.046,26.588 92.0968,26.6892 L91.9136,26.8008 C91.8032,26.5924 91.6596,26.4412 91.4828,26.3476 C91.3052,26.2536 91.1052,26.2068 90.882,26.2068 C90.694,26.2068 90.5252,26.2472 90.3748,26.3276 C90.2244,26.408 90.0956,26.5136 89.9884,26.6448 C89.8812,26.7756 89.7996,26.9244 89.7428,27.0912 C89.6864,27.258 89.658,27.4292 89.658,27.6048 C89.658,27.7924 89.6908,27.9704 89.7564,28.1384 C89.8216,28.3068 89.9116,28.4548 90.0264,28.5828 C90.1412,28.7112 90.2756,28.8132 90.4308,28.8888 C90.5856,28.9652 90.7524,29.0028 90.9308,29.0028 C91.1244,29.0028 91.3068,28.958 91.478,28.8688 C91.6492,28.7796 91.8168,28.6396 91.9804,28.4492 L91.9804,27.8324 L91.2616,27.8324 L91.2616,27.6492 L92.1816,27.6492 L92.1816,29.1904 L91.9804,29.1904 L91.9804,28.6992" id="Fill-35" fill="#013958"></path>
            <polyline id="Fill-37" fill="#013958" points="95.0624 26.4484 95.0624 29.1904 94.8344 29.1904 94.8344 26.0192 95.0084 26.0192 97.2332 28.8108 97.2332 26.0236 97.4608 26.0236 97.4608 29.1904 97.2508 29.1904 95.0624 26.4484"></polyline>
            <polyline id="Fill-38" fill="#EBEBE8" points="70.094 68.5008 70.094 66.2716 70.5272 66.2716 70.5272 68.1208 71.664 68.1208 71.664 68.5008 70.094 68.5008"></polyline>
            <path d="M72.4768,67.3864 C72.4768,67.4828 72.4912,67.576 72.5192,67.666 C72.5476,67.7556 72.5884,67.8352 72.6416,67.9044 C72.6952,67.9736 72.7604,68.0292 72.838,68.0708 C72.9156,68.1128 73.0032,68.1336 73.1016,68.1336 C73.202,68.1336 73.2908,68.1124 73.3668,68.0692 C73.4432,68.0264 73.508,67.9692 73.56,67.8984 C73.6124,67.8272 73.652,67.7472 73.6796,67.658 C73.7068,67.5688 73.7204,67.4788 73.7204,67.3864 C73.7204,67.29 73.7056,67.1972 73.676,67.1068 C73.6468,67.0168 73.6056,66.9372 73.5524,66.8684 C73.4988,66.7996 73.434,66.7444 73.3576,66.7036 C73.2812,66.6628 73.1948,66.6424 73.0988,66.6424 C72.998,66.6424 72.9096,66.664 72.8332,66.7068 C72.7568,66.7496 72.692,66.806 72.6388,66.8764 C72.5852,66.9464 72.5448,67.026 72.5176,67.1148 C72.4904,67.2036 72.4768,67.2944 72.4768,67.3864 Z M73.0956,68.5168 C72.9384,68.5168 72.7952,68.4848 72.6652,68.4208 C72.5356,68.3572 72.424,68.2724 72.3308,68.1668 C72.2376,68.0612 72.166,67.94 72.116,67.804 C72.0656,67.6676 72.0404,67.5288 72.0404,67.3864 C72.0404,67.2376 72.0672,67.0956 72.1204,66.9596 C72.174,66.8232 72.2484,66.7028 72.3436,66.5984 C72.4388,66.4936 72.5512,66.4104 72.6812,66.3488 C72.8108,66.2868 72.952,66.256 73.1048,66.256 C73.262,66.256 73.4052,66.2892 73.5348,66.3548 C73.6648,66.4208 73.7756,66.5072 73.8676,66.614 C73.96,66.7208 74.0312,66.8424 74.0812,66.9784 C74.1316,67.1144 74.1568,67.2524 74.1568,67.3928 C74.1568,67.5412 74.13,67.6832 74.0764,67.818 C74.0232,67.9528 73.9496,68.0724 73.8552,68.176 C73.7612,68.2796 73.6492,68.3624 73.5192,68.424 C73.3896,68.4856 73.2484,68.5168 73.0956,68.5168 Z" id="Fill-39" fill="#EBEBE8"></path>
            <path d="M76.3008,68.25 C76.1292,68.428 75.9316,68.5168 75.7076,68.5168 C75.5652,68.5168 75.4312,68.4852 75.3056,68.4224 C75.18,68.3596 75.0708,68.2756 74.9776,68.1696 C74.8844,68.0644 74.8112,67.942 74.758,67.804 C74.7044,67.666 74.6776,67.5224 74.6776,67.374 C74.6776,67.2208 74.7044,67.0772 74.758,66.942 C74.8112,66.8072 74.8856,66.6888 74.9808,66.5872 C75.076,66.4856 75.188,66.4052 75.3168,66.3456 C75.4456,66.286 75.5852,66.256 75.736,66.256 C75.9388,66.256 76.1128,66.3 76.2572,66.388 C76.4016,66.476 76.5104,66.5944 76.5836,66.7428 L76.26,66.9816 C76.2056,66.8704 76.1308,66.7856 76.0356,66.7272 C75.9404,66.6684 75.8352,66.6392 75.72,66.6392 C75.628,66.6392 75.5448,66.6592 75.4704,66.6992 C75.3964,66.7384 75.3332,66.7932 75.2808,66.862 C75.2284,66.9312 75.1876,67.0108 75.1584,67.1004 C75.1288,67.1908 75.1144,67.286 75.1144,67.3864 C75.1144,67.4912 75.13,67.5888 75.1612,67.68 C75.1928,67.7708 75.2368,67.85 75.2932,67.9168 C75.3496,67.984 75.4164,68.0368 75.4924,68.0756 C75.5688,68.1144 75.6532,68.1336 75.7452,68.1336 C75.9504,68.1336 76.1356,68.0324 76.3008,67.8292 L76.3008,67.672 L75.852,67.672 L75.852,67.3548 L76.6588,67.3548 L76.6588,68.5008 L76.3008,68.5008 L76.3008,68.25" id="Fill-40" fill="#EBEBE8"></path>
            <polyline id="Fill-42" fill="#EBEBE8" points="78.9916 67.0724 78.9916 68.5008 78.5584 68.5008 78.5584 66.2716 78.8944 66.2716 80.056 67.7348 80.056 66.2748 80.4892 66.2748 80.4892 68.5008 80.1376 68.5008 78.9916 67.0724"></polyline>
            <polygon id="Fill-36" fill="#013958" points="93.403595 29.1794434 93.6228638 29.1794434 93.6228638 26 93.403595 26"></polygon>
            <polygon id="Fill-36" fill="#EBEBE8" points="77.4659576 68.5135803 77.9319153 68.5135803 77.9319153 66.270874 77.4659576 66.270874"></polygon>
        </g>
    </g>
</svg>