<?xml version="1.0" encoding="UTF-8"?>
<svg width="150px" height="100px" viewBox="0 0 150 100" version="1.1" xmlns="http://www.w3.org/2000/svg" xmlns:xlink="http://www.w3.org/1999/xlink">
    <defs>
        <polygon id="path-1" points="0 0 150 0 150 100 0 100"></polygon>
    </defs>
    <g id="Page-1" stroke="none" stroke-width="1" fill="none" fill-rule="evenodd">
        <g id="Group">
            <g id="Group-3">
                <mask id="mask-2" fill="white">
                    <use xlink:href="#path-1"></use>
                </mask>
                <g id="Clip-2"></g>
                <polygon id="Fill-1" fill="#01A3A2" mask="url(#mask-2)" points="0 100 150 100 150 0 0 0"></polygon>
            </g>
            <path d="M108.8062,54.456 C108.8062,73.2356 93.5824,88.4594 74.803,88.4594 C56.0234,88.4594 40.7996,73.2356 40.7996,54.456 C40.7996,35.6766 56.0234,20.4526 74.803,20.4526 C93.5824,20.4526 108.8062,35.6766 108.8062,54.456" id="Fill-4" fill="#009293"></path>
            <path d="M103.7982,43.0656 L103.7982,79.4544 C103.7982,80.2406 103.155,80.8884 102.364,80.8884 L47.8858,80.8884 C47.0996,80.8884 46.4516,80.2406 46.4516,79.4544 L46.4516,43.0656 C46.4516,42.2792 47.0996,41.6314 47.8858,41.6314 L102.364,41.6314 C103.155,41.6314 103.7982,42.2792 103.7982,43.0656" id="Fill-5" fill="#FFFFFE"></path>
            <path d="M103.7982,43.063 L103.7982,75.4536 L46.4516,75.4536 L46.4516,43.063 C46.4516,42.2768 47.0996,41.6288 47.8858,41.6288 L102.364,41.6288 C103.155,41.6288 103.7982,42.2768 103.7982,43.063" id="Fill-6" fill="#27313B"></path>
            <path d="M47.8872,74.4076 C47.6282,74.4076 47.4092,74.2042 47.4092,73.9642 L47.4092,43.0292 C47.4092,42.7888 47.6282,42.5858 47.8872,42.5858 L102.3654,42.5858 C102.6246,42.5858 102.8434,42.7888 102.8434,43.0292 L102.8434,73.9642 C102.8434,74.2042 102.6246,74.4076 102.3654,74.4076 L47.8872,74.4076" id="Fill-7" fill="#27313B"></path>
            <polyline id="Fill-8" fill="#AAB1AB" points="80.96 83.5932 68.8436 83.5932 70.6352 75.4536 79.6148 75.4536 80.96 83.5932"></polyline>
            <path d="M103.7982,43.1432 L103.7982,79.5322 C103.7982,80.3184 103.155,80.9662 102.364,80.9662 L47.8858,80.9662 C47.0996,80.9662 46.4516,80.3184 46.4516,79.5322 L46.4516,43.1432 C46.4516,42.357 47.0996,41.709 47.8858,41.709 L102.364,41.709 C103.155,41.709 103.7982,42.357 103.7982,43.1432" id="Fill-9" fill="#FFFFFE"></path>
            <path d="M103.7982,43.063 L103.7982,75.4536 L46.4516,75.4536 L46.4516,43.063 C46.4516,42.2768 47.0996,41.6288 47.8858,41.6288 L102.364,41.6288 C103.155,41.6288 103.7982,42.2768 103.7982,43.063" id="Fill-10" fill="#27313B"></path>
            <path d="M47.8956,74.2184 C47.7374,74.2184 47.5986,74.0958 47.5986,73.9558 L47.5986,43.0208 C47.5986,42.881 47.7374,42.7584 47.8956,42.7584 L102.3738,42.7584 C102.532,42.7584 102.6708,42.881 102.6708,43.0208 L102.6708,73.9558 C102.6708,74.0958 102.532,74.2184 102.3738,74.2184 L47.8956,74.2184" id="Fill-11" fill="#55BCBC"></path>
            <path d="M76.3602,78.2358 C76.3602,78.917 75.8078,79.4696 75.1262,79.4696 C74.4448,79.4696 73.8922,78.917 73.8922,78.2358 C73.8922,77.5542 74.4448,77.0018 75.1262,77.0018 C75.8078,77.0018 76.3602,77.5542 76.3602,78.2358" id="Fill-12" fill="#27313B"></path>
            <path d="M85.2522,84.2036 C85.2522,84.5406 84.979,84.8138 84.6418,84.8138 L65.6082,84.8138 C65.2712,84.8138 64.9978,84.5406 64.9978,84.2036 C64.9978,83.8662 65.2712,83.5932 65.6082,83.5932 L84.6418,83.5932 C84.979,83.5932 85.2522,83.8662 85.2522,84.2036" id="Fill-13" fill="#FFFFFE"></path>
            <polygon id="Fill-14" fill="#FFFFFE" points="56.3654 74.2292 93.9806 74.2292 93.9806 22.1998 56.3654 22.1998"></polygon>
            <polygon id="Fill-15" fill="#E46E2A" points="56.3654 26.6232 93.9806 26.6232 93.9806 22.1998 56.3654 22.1998"></polygon>
            <polygon id="Fill-16" fill="#FFFFFE" points="57.8724 23.905 65.4678 23.905 65.4678 23.3694 57.8724 23.3694"></polygon>
            <polygon id="Fill-17" fill="#FFFFFE" points="57.8724 25.4536 69.7026 25.4536 69.7026 24.918 57.8724 24.918"></polygon>
            <polygon id="Fill-18" fill="#E46E2A" points="60.4042 32.8206 90.6652 32.8206 90.6652 30.609 60.4042 30.609"></polygon>
            <polygon id="Fill-19" fill="#E46E2A" points="60.4042 45.3474 69.145 45.3474 69.145 36.6068 60.4042 36.6068"></polygon>
            <polygon id="Fill-20" fill="#E46E2A" points="60.4042 70.0188 74.1784 70.0188 74.1784 66.8522 60.4042 66.8522"></polygon>
            <polygon id="Fill-21" fill="#27313B" points="60.4042 36.0852 69.145 36.0852 69.145 35.1752 60.4042 35.1752"></polygon>
            <polygon id="Fill-22" fill="#27313B" points="71.1644 36.0852 79.905 36.0852 79.905 35.1752 71.1644 35.1752"></polygon>
            <polygon id="Fill-23" fill="#27313B" points="81.9246 36.0852 90.6654 36.0852 90.6654 35.1752 81.9246 35.1752"></polygon>
            <polygon id="Fill-24" fill="#AAB1AB" points="71.1644 45.3474 79.9048 45.3474 79.9048 36.6068 71.1644 36.6068"></polygon>
            <polygon id="Fill-25" fill="#F1AE2A" points="60.4042 56.6152 90.6648 56.6152 90.6648 47.8746 60.4042 47.8746"></polygon>
            <polygon id="Fill-26" fill="#AAB1AB" points="60.4042 59.5404 90.6648 59.5404 90.6648 58.9932 60.4042 58.9932"></polygon>
            <polygon id="Fill-27" fill="#AAB1AB" points="60.4042 60.9868 90.6648 60.9868 90.6648 60.4394 60.4042 60.4394"></polygon>
            <polygon id="Fill-28" fill="#AAB1AB" points="60.4042 62.4328 90.6648 62.4328 90.6648 61.8856 60.4042 61.8856"></polygon>
            <polygon id="Fill-29" fill="#AAB1AB" points="60.4042 63.8792 74.1784 63.8792 74.1784 63.3318 60.4042 63.3318"></polygon>
            <polygon id="Fill-30" fill="#AAB1AB" points="81.9246 45.3474 90.665 45.3474 90.665 36.6068 81.9246 36.6068"></polygon>
            <polygon id="Fill-31" fill="#FFFFFE" points="69.145 32.4386 87.9338 32.4386 87.9338 31.0384 69.145 31.0384"></polygon>
            <path d="M89.9964,31.7384 C89.9964,32.0912 89.7106,32.377 89.3578,32.377 C89.005,32.377 88.7194,32.0912 88.7194,31.7384 C88.7194,31.3858 89.005,31.1 89.3578,31.1 C89.7106,31.1 89.9964,31.3858 89.9964,31.7384" id="Fill-32" fill="#FFFFFE"></path>
            <path d="M92.6866,24.4116 C92.6866,24.6912 92.4598,24.918 92.1798,24.918 C91.9002,24.918 91.6734,24.6912 91.6734,24.4116 C91.6734,24.1318 91.9002,23.905 92.1798,23.905 C92.4598,23.905 92.6866,24.1318 92.6866,24.4116" id="Fill-33" fill="#FFFFFE"></path>
            <path d="M90.765,24.4116 C90.765,24.6912 90.5382,24.918 90.2586,24.918 C89.9788,24.918 89.752,24.6912 89.752,24.4116 C89.752,24.1318 89.9788,23.905 90.2586,23.905 C90.5382,23.905 90.765,24.1318 90.765,24.4116" id="Fill-34" fill="#FFFFFE"></path>
            <path d="M88.8436,24.4116 C88.8436,24.6912 88.6168,24.918 88.3372,24.918 C88.0572,24.918 87.8306,24.6912 87.8306,24.4116 C87.8306,24.1318 88.0572,23.905 88.3372,23.905 C88.6168,23.905 88.8436,24.1318 88.8436,24.4116" id="Fill-35" fill="#FFFFFE"></path>
            <path d="M100.6738,51.921 L99.597,50.8446 C99.102,50.3492 98.2986,50.3492 97.803,50.8446 L96.637,52.0108 L99.5076,54.8816 L100.6738,53.7154 C101.1694,53.22 101.1694,52.4164 100.6738,51.921" id="Fill-36" fill="#A5272E"></path>
            <polyline id="Fill-37" fill="#E7A22E" points="83.8826 70.5066 81.0118 67.636 95.9042 52.7434 98.775 55.6142 83.8826 70.5066"></polyline>
            <polyline id="Fill-38" fill="#F1AE2A" points="83.0152 69.6394 81.879 68.5032 96.7714 53.6108 97.9078 54.747 83.0152 69.6394"></polyline>
            <polyline id="Fill-39" fill="#EEDAB1" points="83.8828 70.5064 80.9682 71.5248 79.4714 72.0468 81.012 67.6356 83.8828 70.5064"></polyline>
            <polyline id="Fill-40" fill="#E7A22E" points="80.9682 71.5248 79.4714 72.0468 79.9938 70.5504 80.9682 71.5248"></polyline>
            <polyline id="Fill-41" fill="#AAB1AB" points="100.016 54.3732 97.1452 51.5024 95.6798 52.9676 98.5506 55.8384 100.016 54.3732"></polyline>
            <path d="M99.788,54.7358 C99.7404,54.7834 99.6636,54.7834 99.616,54.7358 L96.7826,51.9024 C96.7352,51.855 96.7352,51.7782 96.7828,51.7302 C96.8302,51.683 96.9072,51.683 96.9546,51.7302 L99.788,54.5638 C99.8358,54.6116 99.8358,54.6884 99.788,54.7358" id="Fill-42" fill="#BBC2BC"></path>
            <path d="M99.3508,55.173 C99.3034,55.2208 99.2262,55.2208 99.1786,55.1732 L96.3454,52.3398 C96.2978,52.2924 96.2978,52.2152 96.3456,52.1678 C96.393,52.1204 96.47,52.1204 96.5174,52.1678 L99.351,55.0014 C99.3984,55.0488 99.3984,55.1258 99.3508,55.173" id="Fill-43" fill="#BBC2BC"></path>
            <path d="M98.9134,55.6106 C98.866,55.658 98.789,55.658 98.7414,55.6108 L95.9078,52.7772 C95.8604,52.7294 95.8604,52.6528 95.908,52.6052 C95.9554,52.5576 96.0326,52.5576 96.0798,52.6052 L98.9134,55.4386 C98.961,55.4862 98.961,55.563 98.9134,55.6106" id="Fill-44" fill="#BBC2BC"></path>
            <polyline id="Fill-45" fill="#F8CA22" points="78.0774 74.274 71.6048 77.9694 45.2642 31.8384 45.2458 31.807 51.7182 28.1098 78.0774 74.274"></polyline>
            <polyline id="Fill-46" fill="#F7C224" points="75.98 75.4714 71.6048 77.9694 45.2642 31.8384 49.6414 29.3384 75.98 75.4714"></polyline>
            <polyline id="Fill-47" fill="#27313B" points="52.3602 29.3598 51.819 29.6688 52.0514 30.0762 52.5928 29.767 52.3602 29.3598"></polyline>
            <polyline id="Fill-48" fill="#27313B" points="53.2342 30.8826 52.693 31.1918 52.9254 31.599 53.4666 31.2898 53.2342 30.8826"></polyline>
            <polyline id="Fill-49" fill="#27313B" points="54.1082 32.4056 53.5666 32.7146 53.7992 33.1218 54.3406 32.8128 54.1082 32.4056"></polyline>
            <polyline id="Fill-50" fill="#27313B" points="54.982 33.9284 54.4406 34.2376 54.6732 34.6448 55.2144 34.3358 54.982 33.9284"></polyline>
            <polyline id="Fill-51" fill="#27313B" points="55.856 35.4514 55.3144 35.7604 55.5472 36.1676 56.0882 35.8584 55.856 35.4514"></polyline>
            <polyline id="Fill-52" fill="#27313B" points="56.7296 36.9742 56.1884 37.2832 56.421 37.6904 56.9622 37.3814 56.7296 36.9742"></polyline>
            <polyline id="Fill-53" fill="#27313B" points="57.6036 38.4972 57.0624 38.8062 57.2948 39.2134 57.836 38.9042 57.6036 38.4972"></polyline>
            <polyline id="Fill-54" fill="#27313B" points="58.4774 40.02 57.9362 40.329 58.1686 40.7364 58.7098 40.4272 58.4774 40.02"></polyline>
            <polyline id="Fill-55" fill="#27313B" points="59.3514 41.5428 58.81 41.852 59.0426 42.259 59.5838 41.95 59.3514 41.5428"></polyline>
            <polyline id="Fill-56" fill="#27313B" points="60.2252 43.0658 59.6838 43.3748 59.9166 43.782 60.4578 43.473 60.2252 43.0658"></polyline>
            <polyline id="Fill-57" fill="#27313B" points="61.0992 44.5886 60.5578 44.8976 60.7904 45.3048 61.3316 44.9958 61.0992 44.5886"></polyline>
            <polyline id="Fill-58" fill="#27313B" points="61.973 46.1116 61.4318 46.4206 61.6642 46.8278 62.2054 46.5188 61.973 46.1116"></polyline>
            <polyline id="Fill-59" fill="#27313B" points="62.8468 47.6344 62.3058 47.9434 62.5382 48.3506 63.0792 48.0416 62.8468 47.6344"></polyline>
            <polyline id="Fill-60" fill="#27313B" points="63.7208 49.1574 63.1796 49.4666 63.4122 49.8734 63.9534 49.5644 63.7208 49.1574"></polyline>
            <polyline id="Fill-61" fill="#27313B" points="64.5948 50.68 64.0534 50.9894 64.286 51.3964 64.8272 51.0876 64.5948 50.68"></polyline>
            <polyline id="Fill-62" fill="#27313B" points="65.4686 52.2032 64.9272 52.5124 65.1598 52.9192 65.7012 52.6102 65.4686 52.2032"></polyline>
            <polyline id="Fill-63" fill="#27313B" points="66.3424 53.7256 65.8012 54.035 66.0336 54.442 66.575 54.1332 66.3424 53.7256"></polyline>
            <polyline id="Fill-64" fill="#27313B" points="67.2164 55.2486 66.675 55.558 66.9076 55.965 67.4488 55.656 67.2164 55.2486"></polyline>
            <polyline id="Fill-65" fill="#27313B" points="68.0902 56.7716 67.549 57.0808 67.7814 57.488 68.3226 57.1792 68.0902 56.7716"></polyline>
            <polyline id="Fill-66" fill="#27313B" points="68.9642 58.2946 68.423 58.6036 68.6554 59.011 69.1964 58.7018 68.9642 58.2946"></polyline>
            <polyline id="Fill-67" fill="#27313B" points="69.838 59.8172 69.2968 60.1266 69.5292 60.5336 70.0706 60.2248 69.838 59.8172"></polyline>
            <polyline id="Fill-68" fill="#27313B" points="70.712 61.3402 70.1708 61.6496 70.4032 62.0566 70.9444 61.7476 70.712 61.3402"></polyline>
            <polyline id="Fill-69" fill="#27313B" points="71.5858 62.8632 71.0446 63.172 71.277 63.5792 71.8184 63.2704 71.5858 62.8632"></polyline>
            <polyline id="Fill-70" fill="#27313B" points="72.4598 64.3862 71.9184 64.6956 72.151 65.1026 72.692 64.7934 72.4598 64.3862"></polyline>
            <polyline id="Fill-71" fill="#27313B" points="73.3336 65.9092 72.7924 66.2182 73.0248 66.6252 73.566 66.3162 73.3336 65.9092"></polyline>
            <polyline id="Fill-72" fill="#27313B" points="74.2074 67.4318 73.6662 67.741 73.8988 68.1482 74.4398 67.8388 74.2074 67.4318"></polyline>
            <polyline id="Fill-73" fill="#27313B" points="75.0814 68.9546 74.5402 69.2636 74.7726 69.6708 75.314 69.362 75.0814 68.9546"></polyline>
            <polyline id="Fill-74" fill="#27313B" points="75.9554 70.4774 75.414 70.7868 75.6464 71.1938 76.1876 70.8848 75.9554 70.4774"></polyline>
            <polyline id="Fill-75" fill="#27313B" points="76.8294 72.0008 76.2878 72.3098 76.5206 72.7168 77.0618 72.4078 76.8294 72.0008"></polyline>
            <polygon id="Fill-76" fill="#FFFFFE" points="53.0416 78.7768 61.6316 78.7768 61.6316 51.9176 53.0416 51.9176"></polygon>
            <polygon id="Fill-77" fill="#F9DF8C" points="53.9458 77.8436 60.7274 77.8436 60.7274 73.5792 53.9458 73.5792"></polygon>
            <polygon id="Fill-78" fill="#F8D453" points="53.9458 72.6594 60.7274 72.6594 60.7274 68.395 53.9458 68.395"></polygon>
            <polygon id="Fill-79" fill="#F8CA22" points="53.9458 67.475 60.7274 67.475 60.7274 63.2106 53.9458 63.2106"></polygon>
            <polygon id="Fill-80" fill="#F7C124" points="53.9458 62.2908 60.7274 62.2908 60.7274 58.0264 53.9458 58.0264"></polygon>
            <polygon id="Fill-81" fill="#F1AE2A" points="53.9458 57.1066 60.7274 57.1066 60.7274 52.8422 53.9458 52.8422"></polygon>
            <polyline id="Fill-82" fill="#FFFFFE" points="61.5218 79.0086 53.7644 82.6978 42.2292 58.4416 49.9866 54.7524 61.5218 79.0086"></polyline>
            <polyline id="Fill-83" fill="#F2B06F" points="58.473 74.703 52.3488 77.6152 54.1802 81.4664 60.3044 78.554 58.473 74.703"></polyline>
            <polyline id="Fill-84" fill="#EF9E4F" points="56.2466 70.021 50.1222 72.9336 51.9538 76.7848 58.078 73.8722 56.2466 70.021"></polyline>
            <polyline id="Fill-85" fill="#EB8B30" points="54.0202 65.3394 47.8958 68.2518 49.7272 72.103 55.8516 69.1904 54.0202 65.3394"></polyline>
            <polyline id="Fill-86" fill="#E87D2C" points="51.7936 60.6576 45.6694 63.5702 47.5008 67.4212 53.625 64.5086 51.7936 60.6576"></polyline>
            <polyline id="Fill-87" fill="#E46E2A" points="49.567 55.976 43.4428 58.8884 45.2742 62.7394 51.3986 59.8272 49.567 55.976"></polyline>
            <polyline id="Fill-88" fill="#FFFFFE" points="61.4628 79.2012 55.0832 84.9534 37.0974 65.0048 43.4772 59.2528 61.4628 79.2012"></polyline>
            <polyline id="Fill-89" fill="#E46F46" points="57.3108 75.9464 52.2742 80.4876 55.1296 83.6546 60.1664 79.1136 57.3108 75.9464"></polyline>
            <polyline id="Fill-90" fill="#DB382A" points="53.8394 72.096 48.8026 76.6372 51.6584 79.8042 56.6948 75.263 53.8394 72.096"></polyline>
            <polyline id="Fill-91" fill="#C7242B" points="50.3678 68.2458 45.3312 72.7868 48.1868 75.954 53.2234 71.4128 50.3678 68.2458"></polyline>
            <polyline id="Fill-92" fill="#A5272E" points="46.8964 64.3956 41.8596 68.9368 44.7154 72.1038 49.7518 67.5626 46.8964 64.3956"></polyline>
            <polyline id="Fill-93" fill="#8F2530" points="43.4248 60.5452 38.3882 65.0864 41.2438 68.2536 46.2804 63.7124 43.4248 60.5452"></polyline>
            <path d="M94.523,79.7218 C92.4326,79.7218 90.7308,78.0202 90.7308,75.9296 C90.7308,73.839 92.4326,72.1374 94.523,72.1374 C96.6136,72.1374 98.3154,73.839 98.3154,75.9296 C98.3154,78.0202 96.6136,79.7218 94.523,79.7218 Z M94.523,69.8404 C91.1614,69.8404 88.4342,72.5676 88.4342,75.9296 C88.4342,79.2914 91.1614,82.0186 94.523,82.0186 C97.885,82.0186 100.6122,79.2914 100.6122,75.9296 C100.6122,72.5676 97.885,69.8404 94.523,69.8404 Z" id="Fill-94" fill="#E46F46"></path>
            <path d="M95.1598,68.5034 L93.8864,68.5034 C93.5866,68.5034 93.3438,68.746 93.3438,69.0458 L93.3438,70.7186 L95.7024,70.7186 L95.7024,69.0458 C95.7024,68.746 95.4596,68.5034 95.1598,68.5034" id="Fill-95" fill="#E46F46"></path>
            <path d="M89.7278,70.2632 L89.3228,70.6684 L89.2322,70.7588 L88.8274,71.164 C88.6154,71.3758 88.6154,71.7192 88.8274,71.931 L90.0102,73.114 L91.678,71.446 L90.4952,70.2632 C90.2832,70.0514 89.9396,70.0514 89.7278,70.2632" id="Fill-96" fill="#E46F46"></path>
            <path d="M87.1312,75.349 L87.1314,75.9216 L87.1312,76.0496 L87.1316,76.6224 C87.1312,76.9218 87.3742,77.165 87.6738,77.165 L89.3466,77.165 L89.3466,74.8064 L87.6738,74.8062 C87.3742,74.8062 87.1312,75.0492 87.1312,75.349" id="Fill-97" fill="#E46F46"></path>
            <path d="M88.8912,80.781 L89.2962,81.186 L89.3868,81.2764 L89.7922,81.6812 C90.0038,81.8934 90.3472,81.8934 90.5592,81.6814 L91.742,80.4984 L90.9536,79.71 L90.8628,79.6194 L90.0744,78.8308 L88.8912,80.0136 C88.6792,80.2256 88.6792,80.5692 88.8912,80.781" id="Fill-98" fill="#E46F46"></path>
            <path d="M93.9772,83.3776 L94.5496,83.3774 L94.6776,83.3776 L95.2504,83.3772 C95.55,83.3776 95.7932,83.1346 95.7932,82.8348 L95.793,81.1622 L93.4346,81.1622 L93.4342,82.835 C93.4342,83.1346 93.6772,83.3776 93.9772,83.3776" id="Fill-99" fill="#E46F46"></path>
            <path d="M99.409,81.6176 L99.8138,81.2124 L99.9044,81.122 L100.3094,80.7168 C100.5214,80.505 100.5214,80.1614 100.3096,79.9494 L99.1266,78.7668 L98.338,79.5552 L98.2472,79.6458 L97.459,80.4344 L98.6416,81.6176 C98.8536,81.8294 99.197,81.8294 99.409,81.6176" id="Fill-100" fill="#E46F46"></path>
            <path d="M102.0056,76.5318 L102.0054,75.9592 L102.0056,75.8312 L102.0052,75.2584 C102.0056,74.9586 101.7626,74.7156 101.4628,74.7156 L99.7902,74.7158 L99.7902,77.0742 L101.4628,77.0746 C101.7626,77.0746 102.0056,76.8316 102.0056,76.5318" id="Fill-101" fill="#E46F46"></path>
            <path d="M100.2456,71.0996 L99.8402,70.695 L99.7502,70.6042 L99.3448,70.1994 C99.1332,69.9874 98.7894,69.9874 98.5776,70.1992 L97.395,71.382 L98.1834,72.1708 L98.274,72.2612 L99.0626,73.0498 L100.2456,71.8672 C100.4576,71.6552 100.4576,71.3118 100.2456,71.0996" id="Fill-102" fill="#E46F46"></path>
            <path d="M94.523,79.7218 C92.4326,79.7218 90.7308,78.0202 90.7308,75.9296 C90.7308,73.839 92.4326,72.1374 94.523,72.1374 C96.6136,72.1374 98.3154,73.839 98.3154,75.9296 C98.3154,78.0202 96.6136,79.7218 94.523,79.7218 Z M94.523,71.2982 C91.9354,71.2982 89.8358,73.3978 89.8358,75.9856 C89.8358,78.5734 91.9354,80.673 94.523,80.673 C97.111,80.673 99.2106,78.5734 99.2106,75.9856 C99.2106,73.3978 97.111,71.2982 94.523,71.2982 Z" id="Fill-103" fill="#A5272E"></path>
            <path d="M101.1828,68.8416 C99.838,68.8416 98.7434,67.747 98.7434,66.4022 C98.7434,65.0574 99.838,63.9626 101.1828,63.9626 C102.5276,63.9626 103.6222,65.0574 103.6222,66.4022 C103.6222,67.747 102.5276,68.8416 101.1828,68.8416 Z M101.1828,62.4854 C99.0204,62.4854 97.266,64.2394 97.266,66.4022 C97.266,68.5648 99.0204,70.3192 101.1828,70.3192 C103.3454,70.3192 105.0998,68.5648 105.0998,66.4022 C105.0998,64.2394 103.3454,62.4854 101.1828,62.4854 Z" id="Fill-104" fill="#E46F46"></path>
            <path d="M101.5924,61.625 L100.773,61.625 C100.5804,61.625 100.4242,61.7812 100.4242,61.974 L100.4242,63.0502 L101.9414,63.0502 L101.9414,61.974 C101.9414,61.7812 101.7852,61.625 101.5924,61.625" id="Fill-105" fill="#E46F46"></path>
            <path d="M98.0978,62.7572 L97.8376,63.0178 L97.7792,63.0762 L97.519,63.3366 C97.3826,63.4728 97.3826,63.6938 97.519,63.83 L98.2798,64.591 L98.8454,64.0256 L99.3526,63.5182 L98.5918,62.7572 C98.4554,62.6208 98.2342,62.6208 98.0978,62.7572" id="Fill-106" fill="#E46F46"></path>
            <path d="M96.4278,66.0288 L96.428,66.397 L96.4278,66.4794 L96.428,66.848 C96.4278,67.0406 96.5842,67.1968 96.777,67.1968 L97.853,67.1968 L97.853,65.6796 L96.777,65.6794 C96.5842,65.6794 96.4278,65.836 96.4278,66.0288" id="Fill-107" fill="#E46F46"></path>
            <path d="M97.56,69.5232 L97.8208,69.7834 L97.8788,69.8416 L98.1394,70.1022 C98.2756,70.2386 98.4966,70.2386 98.633,70.1022 L99.394,69.3412 L98.8866,68.834 L98.8282,68.7758 L98.3208,68.2686 L97.56,69.0292 C97.4236,69.1656 97.4236,69.387 97.56,69.5232" id="Fill-108" fill="#E46F46"></path>
            <path d="M100.8316,71.1934 L101.1998,71.1932 L101.282,71.1934 L101.6506,71.1932 C101.8436,71.1934 101.9998,71.037 101.9998,70.8442 L101.9996,69.7682 L100.4826,69.7682 L100.4822,70.8444 C100.4822,71.037 100.6386,71.1934 100.8316,71.1934" id="Fill-109" fill="#E46F46"></path>
            <path d="M104.3258,70.0612 L104.5862,69.8004 L104.6446,69.7426 L104.9048,69.4816 C105.0414,69.3456 105.0414,69.1244 104.905,68.988 L104.1442,68.2272 L103.637,68.7346 L103.0714,69.3002 L103.832,70.0612 C103.9684,70.1974 104.1894,70.1974 104.3258,70.0612" id="Fill-110" fill="#E46F46"></path>
            <path d="M105.996,66.7896 L105.9958,66.4212 L105.996,66.339 L105.9958,65.9706 C105.996,65.7776 105.8398,65.6212 105.647,65.6212 L104.5708,65.6214 L104.5708,67.1384 L105.647,67.1388 C105.8398,67.1388 105.996,66.9824 105.996,66.7896" id="Fill-111" fill="#E46F46"></path>
            <path d="M104.8638,63.2954 L104.6034,63.035 L104.5454,62.9766 L104.2846,62.7162 C104.1484,62.5796 103.9274,62.5796 103.791,62.716 L103.03,63.477 L103.5376,63.9842 L104.103,64.5496 L104.8638,63.789 C105.0004,63.6528 105.0004,63.4316 104.8638,63.2954" id="Fill-112" fill="#E46F46"></path>
            <path d="M101.1828,68.8416 C99.838,68.8416 98.7434,67.747 98.7434,66.4022 C98.7434,65.0574 99.838,63.9626 101.1828,63.9626 C102.5276,63.9626 103.6222,65.0574 103.6222,66.4022 C103.6222,67.747 102.5276,68.8416 101.1828,68.8416 Z M101.1828,63.4228 C99.5182,63.4228 98.1676,64.7736 98.1676,66.4382 C98.1676,68.103 99.5182,69.4536 101.1828,69.4536 C102.8474,69.4536 104.1982,68.103 104.1982,66.4382 C104.1982,64.7736 102.8474,63.4228 101.1828,63.4228 Z" id="Fill-113" fill="#A5272E"></path>
        </g>
    </g>
</svg>