<?xml version="1.0" encoding="UTF-8"?>
<svg width="150px" height="100px" viewBox="0 0 150 100" version="1.1" xmlns="http://www.w3.org/2000/svg" xmlns:xlink="http://www.w3.org/1999/xlink">
    <defs>
        <path d="M73.1005408,51.7880616 L1.2718802,51.7880616 C0.602870216,51.7880616 0,51.1534942 0,50.4169717 L0,1.42899334 C0,0.692470882 0.602870216,0.124168053 1.2718802,0.124168053 L73.1005408,0.124168053 C73.7695507,0.124168053 74.2512479,0.692470882 74.2512479,1.42899334 L74.2512479,50.4169717 C74.2512479,51.1534942 73.7695507,51.7880616 73.1005408,51.7880616 Z" id="path-1"></path>
        <path d="M19.8864809,4.99105657 L0.00574043261,4.99105657 C0.0258319468,4.85428453 0.0487936772,4.68681364 0.0725041597,4.49188852 L19.2803661,4.49188852 C20.2797005,4.49188852 21.0898502,3.65341098 21.0898502,2.55761231 C21.0898502,1.46181364 20.2797005,0.623336106 19.2803661,0.623336106 L0.256572379,0.623336106 C0.252703827,0.459484193 0.24733777,0.293011647 0.240099834,0.124168053 L19.8864809,0.124168053 C20.9037854,0.124168053 21.728411,1.18614809 21.728411,2.55761231 C21.728411,3.92907654 20.9037854,4.99105657 19.8864809,4.99105657 Z" id="path-3"></path>
    </defs>
    <g id="Page-1" stroke="none" stroke-width="1" fill="none" fill-rule="evenodd">
        <g id="Group">
            <polygon id="Fill-1" fill="#E2614E" points="0.0542845258 99.9577787 149.953203 99.9577787 149.953203 0.124168053 0.0542845258 0.124168053"></polygon>
            <path d="M113.186356,73.4946339 C113.186356,74.2534942 112.689933,74.874584 112.000832,74.874584 L37.9991681,74.874584 C37.3099418,74.874584 36.6888519,74.2534942 36.6888519,73.4946339 L36.6888519,23.0247504 C36.6888519,22.2658902 37.3099418,21.7131864 37.9991681,21.7131864 L112.000832,21.7131864 C112.689933,21.7131864 113.186356,22.2658902 113.186356,23.0247504 L113.186356,73.4946339" id="Fill-6" fill="#1E679E"></path>
            <path d="M112.063228,72.255574 C112.063228,72.9920965 111.581531,73.6266639 110.912521,73.6266639 L39.0838602,73.6266639 C38.4148502,73.6266639 37.81198,72.9920965 37.81198,72.255574 L37.81198,23.2675957 C37.81198,22.5310732 38.4148502,21.9627704 39.0838602,21.9627704 L110.912521,21.9627704 C111.581531,21.9627704 112.063228,22.5310732 112.063228,23.2675957 L112.063228,72.255574" id="Fill-7" fill="#FFFFFF"></path>
            <path d="M113.186356,29.2631032 L112.063228,29.2631032 L112.063228,23.2675957 C112.063228,22.8642679 111.918844,22.5114809 111.678245,22.2747504 L112.000832,22.2747504 C112.689933,22.2747504 113.186356,22.8274542 113.186356,23.5863145 L113.186356,29.2631032 M37.81198,29.2631032 L36.6888519,29.2631032 L36.6888519,23.5863145 C36.6888519,22.8274542 37.3099418,22.2747504 37.9991681,22.2747504 L38.2660982,22.2747504 C37.9926789,22.5114809 37.81198,22.8642679 37.81198,23.2675957 L37.81198,29.2631032" id="Fill-8" fill="#1B5C8E"></path>
            <path d="M112.063228,29.2631032 L37.81198,29.2631032 L37.81198,23.2675957 C37.81198,22.8642679 37.9926789,22.5114809 38.2660982,22.2747504 L111.678245,22.2747504 C111.918844,22.5114809 112.063228,22.8642679 112.063228,23.2675957 L112.063228,29.2631032" id="Fill-9" fill="#E5E5E5"></path>
            <path d="M113.186356,28.202371 L113.186356,22.5255824 C113.186356,21.7667221 112.689933,21.2140183 112.000832,21.2140183 L37.9991681,21.2140183 C37.3099418,21.2140183 36.6888519,21.7667221 36.6888519,22.5255824 L36.6888519,28.202371 L113.186356,28.202371" id="Fill-10" fill="#436995"></path>
            <path d="M42.2378536,26.456406 C42.0622712,26.6319884 41.7776206,26.6319884 41.6021631,26.456406 L39.2460899,24.100208 C39.0703827,23.9247504 39.0703827,23.639975 39.2460899,23.4645175 L39.2834027,23.4270799 C39.458985,23.2514975 39.7436356,23.2514975 39.919218,23.4270799 L42.2752912,25.7831531 C42.4508735,25.9587354 42.4508735,26.243386 42.2752912,26.4188436 L42.2378536,26.456406" id="Fill-11" fill="#F24B69"></path>
            <path d="M39.2459651,26.4188436 C39.0703827,26.2432612 39.0703827,25.9587354 39.2459651,25.7831531 L41.6021631,23.4270799 C41.7776206,23.2514975 42.062396,23.2514975 42.2378536,23.4270799 L42.2752912,23.4643927 C42.4508735,23.639975 42.4508735,23.9246256 42.2752912,24.100208 L39.919218,26.4562812 C39.7436356,26.6319884 39.458985,26.6319884 39.2835275,26.4562812 L39.2459651,26.4188436" id="Fill-12" fill="#F24B69"></path>
            <path d="M47.046589,25.628411 C47.046589,26.085025 46.6763311,26.4552829 46.2197171,26.4552829 L44.8784526,26.4552829 C44.4218386,26.4552829 44.0515807,26.085025 44.0515807,25.628411 L44.0515807,24.2871464 C44.0515807,23.8305324 44.4218386,23.4602745 44.8784526,23.4602745 L46.2197171,23.4602745 C46.6763311,23.4602745 47.046589,23.8305324 47.046589,24.2871464 L47.046589,25.628411" id="Fill-13" fill="#0DC415"></path>
            <path d="M51.6638935,25.7922629 C51.6638935,26.0206323 51.478827,26.2056988 51.2504576,26.2056988 L49.0823211,26.2056988 C48.8539517,26.2056988 48.6688852,26.0206323 48.6688852,25.7922629 L48.6688852,25.7455907 C48.6688852,25.5172213 48.8539517,25.3321547 49.0823211,25.3321547 L51.2504576,25.3321547 C51.478827,25.3321547 51.6638935,25.5172213 51.6638935,25.7455907 L51.6638935,25.7922629" id="Fill-14" fill="#F8E71C"></path>
            <g id="Group-28" transform="translate(37.811980, 21.838602)">
                <mask id="mask-2" fill="white">
                    <use xlink:href="#path-1"></use>
                </mask>
                <g id="Clip-16"></g>
                <path d="M36.9150998,55.531822 L47.2835691,55.531822 C49.5298253,55.531822 51.3505408,53.7128536 51.3505408,51.4668469 C51.3505408,51.4668469 52.0880616,47.6041597 51.3505408,43.2321963 C50.9770383,41.0173877 49.2915973,39.2915141 47.2835691,38.580574 C44.8206739,37.7085275 39.4860649,37.312188 36.8935108,37.312188 L36.7324043,37.312188 C34.1397255,37.312188 28.8041181,37.7090266 26.341223,38.5808236 C24.3331947,39.2920133 22.6478785,41.0306156 22.274376,43.2454243 C21.53698,47.6172629 22.274376,51.4729617 22.274376,51.4729617 C22.274376,53.7189684 24.0952163,55.531822 26.341223,55.531822 L36.9150998,55.531822" id="Fill-15" fill="#C9D3DF" mask="url(#mask-2)"></path>
                <path d="M30.3544093,37.7264975 C28.7951331,37.9340266 27.3344426,38.2075707 26.341223,38.5591098 C24.3331947,39.2701747 22.6478785,41.0197587 22.274376,43.2345674 C21.53698,47.606406 22.274376,51.4675957 22.274376,51.4675957 C22.274376,53.7136023 24.0952163,55.531822 26.341223,55.531822 L34.3326539,55.531822 L30.3544093,37.7264975" id="Fill-17" fill="#7792AF" mask="url(#mask-2)"></path>
                <path d="M51.3505408,43.2270799 C50.9770383,41.0122712 49.2915973,39.2620632 47.2835691,38.5511231 C46.2878536,38.1985857 44.822421,37.9300333 43.2586522,37.7230033 L39.0455491,55.531822 L47.2835691,55.531822 C49.5298253,55.531822 51.3505408,53.7128536 51.3505408,51.4668469 C51.3505408,51.4668469 52.0880616,47.5990433 51.3505408,43.2270799" id="Fill-18" fill="#7792AF" mask="url(#mask-2)"></path>
                <polyline id="Fill-19" fill="#657B8E" mask="url(#mask-2)" points="30.3706323 37.7264975 26.8118136 42.2918885 30.3584027 44.563228 28.1415973 49.1789101 32.2175541 55.531822 34.364975 55.531822 30.3706323 37.7264975"></polyline>
                <polyline id="Fill-20" fill="#657B8E" mask="url(#mask-2)" points="43.1603161 37.7264975 46.7191348 42.2918885 43.1725458 44.563228 45.3893511 49.1789101 41.3132696 55.531822 39.1660982 55.531822 43.1603161 37.7264975"></polyline>
                <polygon id="Fill-21" fill="#EDB9A2" mask="url(#mask-2)" points="32.0715474 38.1857321 41.1813644 38.1857321 41.1813644 31.0725874 32.0715474 31.0725874"></polygon>
                <path d="M45.9234609,26.9168885 C45.9234609,31.9191764 41.755782,35.9741681 36.6888519,35.9741681 C31.6220466,35.9741681 27.4542429,31.9191764 27.4542429,26.9168885 L27.4542429,21.9233361 C27.4542429,16.9210483 31.6220466,12.8659318 36.6888519,12.8659318 C41.755782,12.8659318 45.893386,16.9210483 45.893386,21.9233361 L45.9234609,26.9168885" id="Fill-22" fill="#FFD6BB" mask="url(#mask-2)"></path>
                <path d="M27.6200915,22.5828619 C32.8948003,24.2714226 38.584817,21.4390183 40.2517887,16.2315724 L41.1460483,13.378827 C39.8237521,12.6554077 38.3039101,12.2419717 36.6888519,12.2419717 C31.6220466,12.2419717 27.4542429,16.2970882 27.4542429,21.299376 L27.4542429,22.525208 C27.5097754,22.5440516 27.5640599,22.5648918 27.6200915,22.5828619" id="Fill-23" fill="#866855" mask="url(#mask-2)"></path>
                <path d="M45.893386,21.299376 C45.893386,17.4908486 43.4936356,14.2336522 40.1128952,12.8947587 C39.6867304,16.8908486 42.0340682,20.8027038 45.8996256,22.3452579 L45.893386,21.299376" id="Fill-24" fill="#866855" mask="url(#mask-2)"></path>
                <path d="M41.1460483,38.1857321 C41.1460483,38.6113977 39.153619,38.9565724 36.6959651,38.9565724 C34.2383111,38.9565724 32.2460067,38.6113977 32.2460067,38.1857321 C32.2460067,37.7600666 34.2383111,37.4148918 36.6959651,37.4148918 C39.153619,37.4148918 41.1460483,37.7600666 41.1460483,38.1857321" id="Fill-25" fill="#EDB9A2" mask="url(#mask-2)"></path>
                <path d="M38.6855241,40.5597754 C38.6855241,41.3852745 38.0165141,42.0542845 37.191015,42.0542845 L36.3114809,42.0542845 C35.4861065,42.0542845 34.8169717,41.3852745 34.8169717,40.5597754 L34.8169717,40.5537854 C34.8169717,39.7282862 35.4861065,39.0592762 36.3114809,39.0592762 L37.191015,39.0592762 C38.0165141,39.0592762 38.6855241,39.7282862 38.6855241,40.5537854 L38.6855241,40.5597754" id="Fill-26" fill="#657B8E" mask="url(#mask-2)"></path>
                <polyline id="Fill-27" fill="#657B8E" mask="url(#mask-2)" points="39.0455491 56.9045341 34.364975 56.9045341 35.7004992 41.5551165 37.9265391 41.5551165 39.0455491 56.9045341"></polyline>
            </g>
            <g id="Group-31" transform="translate(89.226290, 67.886855)">
                <mask id="mask-4" fill="white">
                    <use xlink:href="#path-3"></use>
                </mask>
                <g id="Clip-30"></g>
                <polygon id="Fill-29" fill="#E5E5E5" mask="url(#mask-4)" points="0.00574043261 4.99105657 21.728411 4.99105657 21.728411 0.124168053 0.00574043261 0.124168053"></polygon>
            </g>
            <path d="M89.23203,72.8779118 L89.2319052,72.8779118 C89.2519967,72.7411398 89.2749584,72.5736689 89.2986689,72.3787438 L89.2987937,72.3787438 C89.2750832,72.5736689 89.2521215,72.7411398 89.23203,72.8779118 M78.9535358,68.5101913 L78.109193,68.5101913 L77.1550333,68.0110233 L79.0717138,68.0110233 L78.9535358,68.5101913" id="Fill-32" fill="#B5BDC8"></path>
            <path d="M89.2319052,72.8779118 L86.3396007,72.8779118 C86.3392263,72.8570715 86.3388519,72.8364809 86.3383527,72.8155158 L85.503619,72.3787438 L89.2986689,72.3787438 C89.2749584,72.5736689 89.2519967,72.7411398 89.2319052,72.8779118 M89.4828619,68.5101913 L81.9970882,68.5101913 L81.7573627,68.0110233 L89.4663894,68.0110233 C89.4736273,68.1798669 89.4789933,68.3463394 89.4828619,68.5101913 M78.9656406,68.5101913 L78.9535358,68.5101913 L79.0717138,68.0110233 L79.0777038,68.0110233 L78.9656406,68.5101913" id="Fill-33" fill="#6B839D"></path>
            <path d="M60.0158486,72.8779118 L40.2632696,72.8779118 C39.2459651,72.8779118 38.4213394,71.8159318 38.4213394,70.4444676 C38.4213394,69.0730033 39.2459651,68.0110233 40.2632696,68.0110233 L59.7827371,68.0110233 C59.7754992,68.1797421 59.7701331,68.3464642 59.7661398,68.5101913 L40.8693844,68.5101913 C39.8700499,68.5101913 39.0599002,69.3486689 39.0599002,70.4444676 C39.0599002,71.5402662 39.8700499,72.3787438 40.8693844,72.3787438 L59.9492097,72.3787438 C59.9727953,72.5734193 59.9957571,72.7408902 60.0158486,72.8779118" id="Fill-35" fill="#E5E5E5"></path>
            <path d="M67.147213,72.8779118 L60.0167221,72.8779118 C59.9966306,72.7411398 59.9736689,72.5736689 59.9499584,72.3787438 L66.8269967,72.3787438 L67.147213,72.8779118 M67.1578203,68.5101913 L59.7661398,68.5101913 C59.7701331,68.3464642 59.7754992,68.1797421 59.7827371,68.0110233 L67.3975458,68.0110233 L67.1578203,68.5101913" id="Fill-37" fill="#6B839D"></path>
            <path d="M69.0490433,72.8779118 L67.147213,72.8779118 L66.8269967,72.3787438 L69.0336938,72.3787438 C69.0429285,72.5480865 69.0477953,72.7146839 69.0490433,72.8779118 M67.978203,68.5101913 L67.1578203,68.5101913 L67.3975458,68.0110233 L67.762188,68.0110233 C67.7343594,68.0282446 67.7196339,68.0383527 67.7196339,68.0383527 C67.8116057,68.1967138 67.8977121,68.3540765 67.978203,68.5101913" id="Fill-38" fill="#5B6E80"></path>
            <path d="M110.31614,70.4444676 C110.31614,71.5402662 109.50599,72.3787438 108.506656,72.3787438 L40.8693844,72.3787438 C39.8700499,72.3787438 39.0599002,71.5402662 39.0599002,70.4444676 C39.0599002,69.3486689 39.8700499,68.5101913 40.8693844,68.5101913 L108.506656,68.5101913 C109.50599,68.5101913 110.31614,69.3486689 110.31614,70.4444676" id="Fill-40" fill="#F2F2F2"></path>
            <path d="M109.317804,70.4444676 C109.317804,70.8924709 108.954659,71.2556156 108.506656,71.2556156 L41.4933444,71.2556156 C41.0453411,71.2556156 40.6821963,70.8924709 40.6821963,70.4444676 C40.6821963,69.9964642 41.0453411,69.6333195 41.4933444,69.6333195 L108.506656,69.6333195 C108.954659,69.6333195 109.317804,69.9964642 109.317804,70.4444676" id="Fill-41" fill="#4987D8"></path>
            <path d="M61.0232945,70.4444676 C61.0232945,70.8924709 60.6601498,71.2556156 60.2121464,71.2556156 L41.4933444,71.2556156 C41.0453411,71.2556156 40.6821963,70.8924709 40.6821963,70.4444676 C40.6821963,69.9964642 41.0453411,69.6333195 41.4933444,69.6333195 L60.2121464,69.6333195 C60.6601498,69.6333195 61.0232945,69.9964642 61.0232945,70.4444676" id="Fill-42" fill="#F24B69"></path>
            <path d="M59.9625624,71.2556156 L58.0704659,71.2556156 C57.9259567,71.0191348 57.8410982,70.7419717 57.8410982,70.4444676 C57.8410982,70.1469634 57.9259567,69.8699251 58.0704659,69.6333195 L59.9625624,69.6333195 C60.4105657,69.6333195 60.7737105,69.9964642 60.7737105,70.4444676 C60.7737105,70.8924709 60.4105657,71.2556156 59.9625624,71.2556156" id="Fill-43" fill="#D9435E"></path>
            <path d="M61.4600666,70.4444676 C61.4600666,71.3059068 60.7616057,72.0043677 59.9001664,72.0043677 C59.0387271,72.0043677 58.3402662,71.3059068 58.3402662,70.4444676 C58.3402662,69.5830283 59.0387271,68.8845674 59.9001664,68.8845674 C60.7616057,68.8845674 61.4600666,69.5830283 61.4600666,70.4444676" id="Fill-44" fill="#4987D8"></path>
            <path d="M86.890183,61.3714642 C86.7207155,61.240183 86.5450083,61.1175125 86.3638103,61.0039517 C89.1198419,58.4730449 91.0330283,55.0382696 91.6341514,51.1699667 C91.258777,55.1267471 89.5186772,58.6854409 86.890183,61.3714642" id="Fill-45" fill="#E5E5E5"></path>
            <path d="M75.9585275,66.4126872 L75.8866473,65.4263311 C77.24401,65.3512063 78.5583195,65.1159734 79.8117304,64.7389767 L79.5806156,65.7688852 C78.4200499,66.1095674 77.2081947,66.3289517 75.9585275,66.4126872 M73.2868552,65.9872712 L71.6560732,65.1340682 C72.2080283,65.2427621 72.7699667,65.3245008 73.3398918,65.3780366 L73.2868552,65.9872712" id="Fill-46" fill="#B5BDC8"></path>
            <path d="M84.1486273,63.6399334 L83.6691764,63.0247088 C84.6344426,62.4409318 85.5374376,61.762812 86.3638103,61.0039517 C86.5450083,61.1175125 86.7207155,61.240183 86.890183,61.3714642 C86.059817,62.2199251 85.1414725,62.9806572 84.1486273,63.6399334" id="Fill-47" fill="#6B839D"></path>
            <path d="M79.5806156,65.7688852 L79.8117304,64.7389767 C81.1785774,64.3279118 82.4721714,63.7486273 83.6691764,63.0247088 L84.1486273,63.6399334 C82.7573211,64.5638935 81.2202579,65.2875624 79.5806156,65.7688852" id="Fill-48" fill="#5B6E80"></path>
            <path d="M74.812812,66.4508735 C74.5900582,66.4508735 74.3690516,66.4466306 74.1484193,66.43802 L73.2868552,65.9872712 L73.3398918,65.3780366 C73.8657654,65.4273295 74.3987521,65.4525374 74.937604,65.4525374 C75.2559484,65.4525374 75.5726705,65.4436772 75.8866473,65.4263311 L75.9585275,66.4126872 C75.5799085,66.43802 75.1977953,66.4508735 74.812812,66.4508735" id="Fill-49" fill="#5B6E80"></path>
            <path d="M62.5828203,61.2134775 C59.6905158,58.1809068 57.9150998,54.0747504 57.9150998,49.5531614 C57.9150998,48.6635191 57.9837354,47.790599 58.1161398,46.93802 C58.0657238,47.4698835 58.0398918,48.0097338 58.0398918,48.5548253 C58.0398918,53.3656822 60.0505408,57.7071963 63.2771631,60.7845674 C63.0374376,60.912604 62.8051997,61.05599 62.5828203,61.2134775" id="Fill-50" fill="#E5E5E5"></path>
            <path d="M71.4521631,66.1166805 C70.8,65.9851498 70.1615641,65.8159318 69.5389767,65.6116473 L69.2861481,64.484401 C70.0042013,64.7391015 70.7437188,64.9465058 71.5027038,65.1032446 C71.4949667,65.2264143 71.4737521,65.5830699 71.4521631,66.1166805" id="Fill-51" fill="#B5BDC8"></path>
            <path d="M65.1692596,63.4306572 C64.2336938,62.7793677 63.3672629,62.0358569 62.5828203,61.2134775 C62.8051997,61.05599 63.0374376,60.912604 63.2771631,60.7845674 C64.0296589,61.502371 64.8476705,62.1507903 65.7224626,62.7210899 L65.1692596,63.4306572" id="Fill-52" fill="#6B839D"></path>
            <path d="M69.5389767,65.6116473 C67.9684692,65.0961314 66.4989185,64.3563644 65.1692596,63.4306572 L65.7224626,62.7210899 C66.827371,63.4411398 68.022629,64.0360233 69.2861481,64.484401 L69.5389767,65.6116473" id="Fill-53" fill="#5B6E80"></path>
            <path d="M74.937604,61.8962146 C67.5693844,61.8962146 61.5962146,55.9231697 61.5962146,48.5548253 C61.5962146,41.1866057 67.5693844,35.2135607 74.937604,35.2135607 C82.3058236,35.2135607 88.2788686,41.1866057 88.2788686,48.5548253 C88.2788686,55.9231697 82.3058236,61.8962146 74.937604,61.8962146 M74.937604,31.6571131 C65.6052829,31.6571131 58.0398918,39.2225042 58.0398918,48.5548253 C58.0398918,57.8872712 65.6052829,65.4525374 74.937604,65.4525374 C84.2699251,65.4525374 91.8353161,57.8872712 91.8353161,48.5548253 C91.8353161,39.2225042 84.2699251,31.6571131 74.937604,31.6571131" id="Fill-54" fill="#436995"></path>
            <path d="M82.2277038,59.7300749 C81.8522047,59.6698003 81.4644759,59.6137687 81.0706323,59.5616057 L81.0641431,59.5885607 C81.0370632,59.5850666 81.009609,59.5815724 80.9824043,59.5780782 L80.9722962,59.5650998 L80.9698003,59.5764559 C80.3177621,59.4937188 79.65,59.4233361 78.9933444,59.365183 L78.9933444,56.6625624 C81.8136439,55.1125208 83.7354409,52.1524542 83.7354409,48.7554908 L83.7078619,44.1823627 C83.708985,44.1828619 83.7104825,44.1833611 83.7116057,44.1838602 L83.7053661,43.1379784 C83.7053661,41.499584 83.2613561,39.9635191 82.4861481,38.6381032 C85.9146839,41.052579 88.1540765,45.0411814 88.1540765,49.5531614 C88.1540765,49.947629 88.13698,50.3383527 88.103411,50.7240849 C87.4879368,54.4895591 85.2963394,57.7244176 82.2277038,59.7300749 M67.5324459,59.6540765 C63.9532862,57.2614393 61.5962146,53.1833611 61.5962146,48.5548253 C61.5962146,48.1604825 61.6134359,47.7696339 61.6468802,47.3839018 C62.1586522,44.2533694 63.7602329,41.4894759 66.0491681,39.4936772 C65.5462562,40.6086938 65.266223,41.8416389 65.266223,43.1379784 L65.266223,48.7554908 C65.266223,52.1020383 67.1314892,55.0246672 69.8835275,56.5926789 L69.8835275,59.3995008 C69.3170965,59.453411 68.7462978,59.5163062 68.1878536,59.5884359 L68.1826123,59.5650998 L68.1700083,59.581198 L68.1663894,59.5650998 C67.952995,59.5935524 67.7413478,59.6232529 67.5324459,59.6540765" id="Fill-55" fill="#FFFFFF"></path>
            <path d="M76.3834443,61.8187188 C76.1585691,61.2781198 75.625208,60.8978785 75.002995,60.8978785 L74.1234609,60.8978785 C73.5384359,60.8978785 73.0319052,61.2340682 72.7864393,61.7237521 C71.1802413,61.4634359 69.6703827,60.916223 68.3107737,60.1366473 L68.1878536,59.5884359 C68.7462978,59.5163062 69.3170965,59.453411 69.8835275,59.3995008 L69.8835275,60.0243344 L70.0579867,60.0243344 C70.0579867,60.45 72.0502912,60.7951747 74.5079451,60.7951747 C76.965599,60.7951747 78.9580283,60.45 78.9580283,60.0243344 L78.9933444,60.0243344 L78.9933444,59.365183 C79.65,59.4233361 80.3177621,59.4937188 80.9698003,59.5764559 L80.7472962,60.568178 C79.4029118,61.2197171 77.9333611,61.6517471 76.3834443,61.8187188 M81.0470466,59.6609401 L80.9824043,59.5780782 C81.009609,59.5815724 81.0370632,59.5850666 81.0641431,59.5885607 L81.0470466,59.6609401" id="Fill-56" fill="#D9E0E9"></path>
            <path d="M81.4628536,60.1943012 L81.0470466,59.6609401 L81.0641431,59.5885607 L81.0706323,59.5616057 C81.4644759,59.6137687 81.8522047,59.6698003 82.2277038,59.7300749 C81.9783694,59.893178 81.7234193,60.0479201 81.4628536,60.1943012" id="Fill-58" fill="#A0B3C7"></path>
            <path d="M80.7472962,60.568178 L80.9698003,59.5764559 L80.9722962,59.5650998 L80.9824043,59.5780782 L81.0470466,59.6609401 L81.4628536,60.1943012 C81.2288686,60.3257072 80.9896423,60.4507488 80.7472962,60.568178" id="Fill-60" fill="#94A3B0"></path>
            <path d="M78.9933444,60.0243344 L78.9580283,60.0243344 C78.9580283,59.5986689 76.965599,59.2534942 74.5079451,59.2534942 C72.0502912,59.2534942 70.0579867,59.5986689 70.0579867,60.0243344 L69.8835275,60.0243344 L69.8835275,56.5926789 C71.2451331,57.3685108 72.8237521,57.8127704 74.5008319,57.8127704 C76.1268719,57.8127704 77.6605657,57.3950915 78.9933444,56.6625624 L78.9933444,60.0243344" id="Fill-61" fill="#F2CEBE"></path>
            <path d="M74.5008319,57.8127704 C72.8237521,57.8127704 71.2451331,57.3685108 69.8835275,56.5926789 C67.1314892,55.0246672 65.266223,52.1020383 65.266223,48.7554908 L65.266223,43.7619384 L65.266223,44.3638103 C65.3217554,44.3826539 65.3760399,44.4034942 65.4320715,44.4214642 C66.464975,44.7521631 67.5143511,44.909401 68.5457571,44.9095258 C72.7815724,44.9097754 76.7232529,42.2580699 78.0637687,38.0701747 L78.1406406,37.8247088 C78.8368552,40.6206739 80.8598586,43.0445092 83.7078619,44.1823627 L83.7354409,48.7554908 C83.7354409,52.1524542 81.8136439,55.1125208 78.9933444,56.6625624 C77.6605657,57.3950915 76.1268719,57.8127704 74.5008319,57.8127704" id="Fill-62" fill="#FFE2D0"></path>
            <path d="M68.5457571,44.9095258 C67.5143511,44.909401 66.464975,44.7521631 65.4320715,44.4214642 C65.3760399,44.4034942 65.3217554,44.3826539 65.266223,44.3638103 L65.266223,43.1379784 C65.266223,41.8416389 65.5462562,40.6086938 66.0491681,39.4936772 C68.393386,37.449584 71.4584027,36.2118968 74.812812,36.2118968 C75.8831531,36.2118968 76.9244176,36.3379368 77.9218802,36.5760399 C77.9653078,36.9983361 78.0388103,37.4155158 78.1406406,37.8247088 L78.0637687,38.0701747 C76.7232529,42.2580699 72.7815724,44.9097754 68.5457571,44.9095258" id="Fill-63" fill="#AB9688"></path>
            <path d="M83.7116057,44.1838602 C83.7104825,44.1833611 83.708985,44.1828619 83.7078619,44.1823627 C80.8598586,43.0445092 78.8368552,40.6206739 78.1406406,37.8247088 C78.0388103,37.4155158 77.9653078,36.9983361 77.9218802,36.5760399 C79.5859817,36.9732529 81.1292845,37.6824459 82.4861481,38.6381032 C83.2613561,39.9635191 83.7053661,41.499584 83.7053661,43.1379784 L83.7116057,44.1838602" id="Fill-64" fill="#AB9688"></path>
            <path d="M74.5079451,60.7951747 C72.0502912,60.7951747 70.0579867,60.45 70.0579867,60.0243344 C70.0579867,59.5986689 72.0502912,59.2534942 74.5079451,59.2534942 C76.965599,59.2534942 78.9580283,59.5986689 78.9580283,60.0243344 C78.9580283,60.45 76.965599,60.7951747 74.5079451,60.7951747" id="Fill-65" fill="#F2CEBE"></path>
            <path d="M74.937604,61.8962146 C74.2054493,61.8962146 73.4866473,61.837188 72.7864393,61.7237521 C73.0319052,61.2340682 73.5384359,60.8978785 74.1234609,60.8978785 L75.002995,60.8978785 C75.625208,60.8978785 76.1585691,61.2781198 76.3834443,61.8187188 C75.9087354,61.8698835 75.4260399,61.8962146 74.937604,61.8962146" id="Fill-66" fill="#94A3B0"></path>
            <path d="M88.103411,50.7240849 C88.13698,50.3383527 88.1540765,49.947629 88.1540765,49.5531614 C88.1540765,45.0411814 85.9146839,41.052579 82.4861481,38.6381032 C82.0438852,37.8818636 81.4936772,37.1938852 80.8567388,36.5952579 C85.2552829,38.7763727 88.2788686,43.3124376 88.2788686,48.5548253 C88.2788686,49.2933444 88.2188436,50.0182612 88.103411,50.7240849 M61.6468802,47.3839018 C61.9891847,43.4463394 64.0423877,39.9985857 67.0584859,37.7875208 C66.6621464,38.3156406 66.3225874,38.8873128 66.0491681,39.4936772 C63.7602329,41.4894759 62.1586522,44.2533694 61.6468802,47.3839018" id="Fill-67" fill="#EDEDED"></path>
            <path d="M66.0491681,39.4936772 C66.3225874,38.8873128 66.6621464,38.3156406 67.0584859,37.7875208 C69.2664309,36.1689684 71.9901414,35.2135607 74.937604,35.2135607 C75.9471714,35.2135607 76.9306572,35.325624 77.8760815,35.5381448 C77.8709651,35.8865641 77.8864393,36.2328619 77.9218802,36.5760399 C76.9244176,36.3379368 75.8831531,36.2118968 74.812812,36.2118968 C71.4584027,36.2118968 68.393386,37.449584 66.0491681,39.4936772" id="Fill-68" fill="#A18E82"></path>
            <path d="M82.4861481,38.6381032 C81.1292845,37.6824459 79.5859817,36.9732529 77.9218802,36.5760399 C77.8864393,36.2328619 77.8709651,35.8865641 77.8760815,35.5381448 C78.9213394,35.7731281 79.9201747,36.130782 80.8567388,36.5952579 C81.4936772,37.1938852 82.0438852,37.8818636 82.4861481,38.6381032" id="Fill-69" fill="#A18E82"></path>
            <path d="M74.937604,61.8962146 C67.5693844,61.8962146 61.5962146,55.9231697 61.5962146,48.5548253 C61.5962146,53.1833611 63.9532862,57.2614393 67.5324459,59.6540765 C67.6597338,59.7391847 67.7887687,59.8222962 67.9191764,59.9030366 C68.0483361,59.9831531 68.178619,60.0608985 68.3107737,60.1366473 C69.6703827,60.916223 71.1802413,61.4634359 72.7864393,61.7237521 C73.4866473,61.837188 74.2054493,61.8962146 74.937604,61.8962146 C75.4260399,61.8962146 75.9087354,61.8698835 76.3834443,61.8187188 C77.9333611,61.6517471 79.4029118,61.2197171 80.7472962,60.568178 C80.9896423,60.4507488 81.2288686,60.3257072 81.4628536,60.1943012 C81.7234193,60.0479201 81.9783694,59.893178 82.2277038,59.7300749 C85.2963394,57.7244176 87.4879368,54.4895591 88.103411,50.7240849 C88.2188436,50.0182612 88.2788686,49.2933444 88.2788686,48.5548253 C88.2788686,55.9231697 82.3058236,61.8962146 74.937604,61.8962146" id="Fill-70" fill="#80ABE4"></path>
            <polyline id="Fill-71" fill="#436995" points="70.2740017 41.4320715 83.3696755 49.6402662 70.3460067 57.7763311 70.2740017 41.4320715"></polyline>
            <path d="M76.1231281,71.0684276 C76.1231281,72.3434276 75.0894759,73.3770799 73.8144759,73.3770799 C72.5394759,73.3770799 71.5058236,72.3434276 71.5058236,71.0684276 L71.5058236,56.5925541 C71.5058236,55.3175541 72.5394759,54.2839018 73.8144759,54.2839018 C75.0894759,54.2839018 76.1231281,55.3175541 76.1231281,56.5925541 L76.1231281,71.0684276" id="Fill-103" fill="#F4AB76"></path>
            <path d="M79.6173045,77.1299501 C79.6173045,78.1587354 78.7833195,78.9927205 77.7545341,78.9927205 L77.7363145,78.9927205 C76.7075291,78.9927205 75.8735441,78.1587354 75.8735441,77.1299501 L75.8735441,65.5060732 C75.8735441,64.4772879 76.7075291,63.6433028 77.7363145,63.6433028 L77.7545341,63.6433028 C78.7833195,63.6433028 79.6173045,64.4772879 79.6173045,65.5060732 L79.6173045,77.1299501" id="Fill-104" fill="#F4AB76"></path>
            <path d="M83.3610649,78.6274542 C83.3610649,79.6562396 82.5270799,80.4902246 81.4982945,80.4902246 L81.4800749,80.4902246 C80.4512895,80.4902246 79.6173045,79.6562396 79.6173045,78.6274542 L79.6173045,67.0035774 C79.6173045,65.974792 80.4512895,65.140807 81.4800749,65.140807 L81.4982945,65.140807 C82.5270799,65.140807 83.3610649,65.974792 83.3610649,67.0035774 L83.3610649,78.6274542" id="Fill-105" fill="#F4AB76"></path>
            <path d="M67.7196339,68.0383527 C67.7196339,68.0383527 70.9146839,65.8360233 72.2025374,71.33099 C73.490391,76.8260815 73.7520799,81.7189268 73.7520799,81.7189268 L73.7520799,82.4868968 C73.7520799,82.4868968 70.0377704,78.6230865 69.0297005,77.4569052 C68.0217554,76.2908486 70.4019135,72.6571547 67.7196339,68.0383527" id="Fill-106" fill="#D3946A"></path>
            <path d="M85.8129784,79.9920549 C85.7379784,81.0180948 84.8453411,81.7889351 83.8193012,81.7139351 C82.793386,81.6386855 82.022421,80.7460483 82.0975458,79.7200083 L82.9503744,68.0714226 C83.0253744,67.0455075 83.9181364,66.2745424 84.9440516,66.349792 C85.9699667,66.424792 86.7409318,67.3174293 86.665807,68.3434692 L85.8129784,79.9920549" id="Fill-107" fill="#F4AB76"></path>
            <path d="M71.5058236,65.0554493 C71.5058236,65.0554493 70.3175541,82.6083195 75.6863561,83.7673877 C81.3512895,84.9903494 86.6475874,88.3933028 86.3383527,72.8155158 L71.5058236,65.0554493" id="Fill-108" fill="#F4AB76"></path>
            <path d="M75.3615225,56.8422629 C75.3615225,57.7047005 74.6624376,58.4040349 73.7998752,58.4040349 C72.9374376,58.4040349 72.238228,57.7047005 72.238228,56.8422629 C72.238228,55.9797005 72.9374376,55.2806156 73.7998752,55.2806156 C74.6624376,55.2806156 75.3615225,55.9797005 75.3615225,56.8422629" id="Fill-109" fill="#F9C19B"></path>
            <polygon id="Path-2" fill="#436995" points="72.7221271 81.6139767 69.7587354 99.9584027 88.4775374 99.9584027 85.5174009 81.6139767"></polygon>
        </g>
    </g>
</svg>