<?xml version="1.0" encoding="UTF-8"?>
<svg width="1200px" height="800px" viewBox="0 0 1200 800" version="1.1" xmlns="http://www.w3.org/2000/svg" xmlns:xlink="http://www.w3.org/1999/xlink">
    <defs>
        <polygon id="path-1" points="0 0 1200 0 1200 800 0 800"></polygon>
    </defs>
    <g id="Page-1" stroke="none" stroke-width="1" fill="none" fill-rule="evenodd">
        <g id="Group">
            <mask id="mask-2" fill="white">
                <use xlink:href="#path-1"></use>
            </mask>
            <g id="Clip-2"></g>
            <polygon id="Fill-1" fill="#FF825C" mask="url(#mask-2)" points="0 800 1200 800 1200 0 0 0"></polygon>
            <polygon id="Fill-3" fill="#FF9574" mask="url(#mask-2)" points="0 800 1200 800 1200 0 0 0"></polygon>
            <path d="M640.19,365.506 L625.535,338.049 L683.461,307.125 L698.135,334.584 C715.501,329.069 733.797,326.165 752.435,326.18 L752.435,373.22 C695.476,373.199 642.794,410.109 625.367,467.433 C604.034,537.609 643.626,611.792 713.803,633.126 C726.662,637.035 739.656,638.891 752.435,638.894 L752.435,685.94 C745.794,685.936 739.111,685.561 732.413,684.803 L723.355,714.597 L660.523,695.496 L669.581,665.702 C646.784,653.91 627.297,637.63 611.884,618.306 L584.41,632.955 L553.496,575.021 L580.956,560.356 C573.474,536.805 570.808,511.547 573.688,486.041 L543.902,476.986 L563.006,414.146 L592.791,423.201 C604.591,400.415 620.863,380.918 640.19,365.506 Z M752.435,326.18 C759.072,326.185 765.752,326.559 772.449,327.319 L781.506,297.525 L844.338,316.626 L835.281,346.42 C858.067,358.209 877.572,374.494 892.985,393.819 L920.441,379.166 L951.365,437.101 L923.909,451.756 C931.386,475.316 934.053,500.571 931.175,526.078 L960.958,535.133 L941.857,597.964 L912.074,588.91 C900.269,611.703 883.996,631.203 864.672,646.616 L879.324,674.081 L821.39,704.996 L806.734,677.54 C789.365,683.052 771.066,685.953 752.435,685.94 L752.435,638.894 C809.393,638.914 862.078,602.007 879.502,544.689 C900.838,474.507 861.235,400.321 791.061,378.988 C778.203,375.08 765.212,373.224 752.435,373.22 L752.435,326.18 Z" id="Fill-31" fill="#FFA185" mask="url(#mask-2)"></path>
            <path d="M341.596,166.868 L332.727,150.252 L367.782,131.537 L376.662,148.155 C387.172,144.817 398.244,143.06 409.523,143.069 L409.523,171.537 C375.053,171.524 343.171,193.861 332.625,228.552 C319.715,271.022 343.675,315.915 386.145,328.826 C393.927,331.192 401.79,332.315 409.523,332.317 L409.523,360.788 C405.505,360.786 401.461,360.559 397.406,360.1 L391.926,378.13 L353.901,366.571 L359.382,348.54 C345.586,341.404 333.793,331.552 324.465,319.857 L307.838,328.723 L289.13,293.663 L305.748,284.788 C301.22,270.535 299.606,255.249 301.35,239.813 L283.324,234.334 L294.885,196.305 L312.91,201.785 C320.052,187.995 329.899,176.195 341.596,166.868 Z M409.523,143.069 C413.54,143.072 417.583,143.299 421.636,143.758 L427.117,125.728 L465.142,137.287 L459.66,155.317 C473.45,162.452 485.254,172.308 494.582,184.002 L511.197,175.135 L529.912,210.196 L513.296,219.065 C517.821,233.323 519.436,248.607 517.693,264.043 L535.717,269.522 L524.158,307.547 L506.134,302.068 C498.989,315.861 489.142,327.663 477.447,336.99 L486.314,353.611 L451.253,372.321 L442.385,355.705 C431.873,359.04 420.799,360.796 409.523,360.788 L409.523,332.317 C443.993,332.329 475.877,309.994 486.422,275.306 C499.334,232.833 475.367,187.938 432.899,175.027 C425.118,172.662 417.256,171.539 409.523,171.537 L409.523,143.069 Z" id="Fill-32" fill="#FFA185" mask="url(#mask-2)"></path>
            <polyline id="Fill-33" fill="#FFFFFF" mask="url(#mask-2)" points="758.498 191.635 896.716 191.635 919.91 214.829 919.91 191.635 919.911 419.917 758.499 419.917 758.498 191.635"></polyline>
            <polygon id="Fill-34" fill="#CCCCCC" mask="url(#mask-2)" points="856.055 367.809 857.015 367.809 857.015 353.543 856.055 353.543"></polygon>
            <polygon id="Fill-35" fill="#CCCCCC" mask="url(#mask-2)" points="890.718 382.077 891.678 382.077 891.678 353.543 890.718 353.543"></polygon>
            <polygon id="Fill-36" fill="#CCCCCC" mask="url(#mask-2)" points="800.023 221.661 878.386 221.661 878.386 216.086 800.023 216.086"></polygon>
            <polygon id="Fill-37" fill="#CCCCCC" mask="url(#mask-2)" points="773.313 235.595 905.097 235.595 905.097 230.021 773.313 230.021"></polygon>
            <polygon id="Fill-38" fill="#CCCCCC" mask="url(#mask-2)" points="773.313 245.35 905.097 245.35 905.097 239.775 773.313 239.775"></polygon>
            <polygon id="Fill-39" fill="#CCCCCC" mask="url(#mask-2)" points="773.313 255.103 905.097 255.103 905.097 249.53 773.313 249.53"></polygon>
            <polygon id="Fill-40" fill="#CCCCCC" mask="url(#mask-2)" points="773.313 264.858 835.073 264.858 835.073 259.284 773.313 259.284"></polygon>
            <path d="M888.006,290.021 C897.444,290.021 905.096,297.672 905.096,307.111 C905.096,316.549 897.445,324.201 888.006,324.201 C878.568,324.201 870.916,316.549 870.916,307.111 C870.916,297.672 878.568,290.021 888.006,290.021" id="Fill-41" fill="#EF4136" mask="url(#mask-2)"></path>
            <path d="M878.602,321.381 C876.148,319.761 874.137,317.526 872.788,314.895 L888.006,307.111 L878.602,321.381" id="Fill-42" fill="#FCD8D6" mask="url(#mask-2)"></path>
            <path d="M872.788,314.895 C871.592,312.56 870.916,309.914 870.916,307.111 C870.916,301.646 873.481,296.781 877.473,293.653 L888.006,307.111 L872.788,314.895" id="Fill-43" fill="#F9B3AF" mask="url(#mask-2)"></path>
            <path d="M877.473,293.653 C880.375,291.377 884.032,290.021 888.006,290.021 L888.006,307.111 L877.473,293.653" id="Fill-44" fill="#F48C85" mask="url(#mask-2)"></path>
            <path d="M888.006,290.021 L888.006,307.111 L900.186,295.124 C897.086,291.975 892.774,290.021 888.006,290.021" id="Fill-45" fill="#F2675D" mask="url(#mask-2)"></path>
            <polygon id="Fill-46" fill="#CCCCCC" mask="url(#mask-2)" points="773.313 329.111 851.729 329.111 851.729 327.105 773.313 327.105"></polygon>
            <polygon id="Fill-47" fill="#4C8EB4" mask="url(#mask-2)" points="773.313 327.105 787.253 327.105 787.253 285.111 773.313 285.111"></polygon>
            <polyline id="Fill-48" fill="#609DC1" mask="url(#mask-2)" points="789.432 300.945 803.371 300.945 803.372 327.105 789.432 327.105 789.432 300.945"></polyline>
            <polygon id="Fill-49" fill="#73ACCD" mask="url(#mask-2)" points="805.55 327.105 819.49 327.105 819.49 309.804 805.55 309.804"></polygon>
            <polygon id="Fill-50" fill="#87BBDA" mask="url(#mask-2)" points="821.669 327.105 835.609 327.105 835.609 301.692 821.669 301.692"></polygon>
            <polygon id="Fill-51" fill="#9ACAE6" mask="url(#mask-2)" points="837.787 327.105 851.728 327.105 851.728 308.933 837.787 308.933"></polygon>
            <polygon id="Fill-52" fill="#CCCCCC" mask="url(#mask-2)" points="872.004 329.111 879.039 329.111 879.039 327.105 872.004 327.105"></polygon>
            <polygon id="Fill-53" fill="#CCCCCC" mask="url(#mask-2)" points="882.298 329.111 903.196 329.111 903.196 327.105 882.298 327.105"></polygon>
            <polyline id="Fill-54" fill="#CCCCCC" mask="url(#mask-2)" points="896.716 214.829 919.91 214.829 896.716 191.635 896.716 214.829"></polyline>
            <polygon id="Fill-55" fill="#EF4136" mask="url(#mask-2)" points="773.313 357.785 801.109 357.785 801.109 349.302 773.313 349.302"></polygon>
            <polygon id="Fill-56" fill="#9ACAE6" mask="url(#mask-2)" points="808.069 357.785 835.866 357.785 835.866 349.302 808.069 349.302"></polygon>
            <polygon id="Fill-57" fill="#609DC1" mask="url(#mask-2)" points="842.637 357.785 870.434 357.785 870.434 349.302 842.637 349.302"></polygon>
            <polygon id="Fill-58" fill="#9ACAE6" mask="url(#mask-2)" points="877.3 357.785 905.097 357.785 905.097 349.302 877.3 349.302"></polygon>
            <polygon id="Fill-59" fill="#F2675D" mask="url(#mask-2)" points="773.313 372.051 801.109 372.051 801.109 363.568 773.313 363.568"></polygon>
            <polygon id="Fill-60" fill="#F48C85" mask="url(#mask-2)" points="773.313 386.318 801.109 386.318 801.109 377.835 773.313 377.835"></polygon>
            <polygon id="Fill-61" fill="#FCD8D6" mask="url(#mask-2)" points="773.313 400.585 801.109 400.585 801.109 392.101 773.313 392.101"></polygon>
            <polygon id="Fill-62" fill="#609DC1" mask="url(#mask-2)" points="842.637 372.051 870.434 372.051 870.434 363.568 842.637 363.568"></polygon>
            <polygon id="Fill-63" fill="#9ACAE6" mask="url(#mask-2)" points="877.3 372.051 905.097 372.051 905.097 363.568 877.3 363.568"></polygon>
            <polygon id="Fill-64" fill="#9ACAE6" mask="url(#mask-2)" points="877.3 386.318 905.097 386.318 905.097 377.835 877.3 377.835"></polygon>
            <path d="M427.447,339.79 L774.473,339.79 C781.566,339.79 787.368,345.593 787.368,352.686 L787.368,571.921 C787.368,579.014 781.566,584.817 774.473,584.817 L427.447,584.817 C420.354,584.817 414.552,579.014 414.552,571.921 L414.552,352.686 C414.552,345.593 420.354,339.79 427.447,339.79" id="Fill-65" fill="#808080" mask="url(#mask-2)"></path>
            <polygon id="Fill-66" fill="#FFFFFF" mask="url(#mask-2)" points="433.895 544.747 768.023 544.747 768.023 365.374 433.895 365.374"></polygon>
            <polygon id="Fill-67" fill="#CCCCCC" mask="url(#mask-2)" points="593.032 571.768 608.887 571.768 608.887 555.914 593.032 555.914"></polygon>
            <polyline id="Fill-68" fill="#808080" mask="url(#mask-2)" points="414.552 584.817 787.369 584.817 852.121 627.26 349.799 627.26 414.552 584.817"></polyline>
            <path d="M349.799,627.261 L852.121,627.261 L852.121,641.724 C852.121,646.849 847.927,651.043 842.801,651.043 L359.119,651.043 C353.993,651.043 349.799,646.849 349.799,641.724 L349.799,627.261" id="Fill-69" fill="#4D4D4D" mask="url(#mask-2)"></path>
            <polygon id="Fill-70" fill="#808080" mask="url(#mask-2)" points="550.227 646.054 651.691 646.054 651.691 639.584 550.227 639.584"></polygon>
            <polygon id="Fill-71" fill="#666666" mask="url(#mask-2)" points="349.799 634.491 852.121 634.491 852.121 627.261 349.799 627.261"></polygon>
            <path d="M429.809,609.32 L428.893,610.008 L429.809,610.007 L429.809,609.32 Z M429.809,600.692 L429.809,601.339 C427.915,602.679 426.041,604.013 424.149,605.36 C421.979,606.906 419.828,608.473 417.621,610.026 C406.679,610.047 395.782,610.061 384.886,610.08 C387.469,608.518 390.006,606.957 392.542,605.396 C395.078,603.836 397.613,602.27 400.197,600.706 C410.037,600.703 419.923,600.696 429.809,600.692 Z M429.809,587.702 L429.809,597.064 C421.896,597.064 413.991,597.066 406.115,597.063 C408.604,595.503 411.188,593.941 413.723,592.381 C416.259,590.819 418.796,589.255 421.379,587.69 L429.809,587.702 Z M378.593,613.961 L429.809,613.856 L429.809,623.135 C407.633,623.2 385.457,623.266 363.282,623.33 C365.865,621.769 368.401,620.209 370.938,618.647 C373.474,617.087 376.01,615.525 378.593,613.961 Z M429.809,601.339 L430.725,600.692 L429.809,600.692 L429.809,601.339 Z M447.444,600.681 L447.444,609.977 L429.809,610.007 L429.809,609.32 C431.573,607.998 433.342,606.681 435.093,605.351 C437.123,603.808 439.179,602.238 441.245,600.684 L447.444,600.681 Z M447.444,595.985 C446.973,596.344 446.502,596.702 446.035,597.06 L447.444,597.06 L447.444,595.985 Z M447.444,587.724 L447.444,588.726 C445.726,589.953 444.032,591.183 442.325,592.398 C440.129,593.963 437.91,595.507 435.797,597.063 L429.809,597.064 L429.809,587.702 C435.688,587.711 441.566,587.718 447.444,587.724 Z M429.809,613.856 L447.444,613.82 L447.444,623.082 L429.809,623.135 L429.809,613.856 Z M680.396,588.008 C689.554,588.018 698.712,588.029 707.917,588.04 C709.186,589.544 710.439,591.05 711.674,592.537 C712.928,594.047 714.211,595.531 715.432,597.032 C705.522,597.032 695.565,597.035 685.703,597.035 C684.81,595.531 683.926,594.043 683.025,592.527 C682.142,591.039 681.288,589.516 680.396,588.008 Z M643.387,587.961 C652.545,587.973 661.75,587.982 670.908,587.996 C671.707,589.508 672.439,591.022 673.21,592.519 C673.989,594.034 674.713,595.531 675.511,597.035 C665.555,597.038 655.645,597.038 645.734,597.038 C645.359,595.527 644.961,594.02 644.561,592.506 C644.163,590.999 643.762,589.479 643.387,587.961 Z M606.377,587.919 C615.535,587.929 624.693,587.939 633.898,587.95 C634.182,589.469 634.44,590.989 634.697,592.498 C634.957,594.016 635.262,595.527 635.496,597.038 C625.586,597.043 615.724,597.043 605.813,597.046 C605.907,595.523 606.002,594.002 606.096,592.483 C606.188,590.966 606.283,589.44 606.377,587.919 Z M569.368,587.872 C578.526,587.883 587.686,587.893 596.891,587.904 C596.655,589.434 596.443,590.953 596.232,592.477 C596.021,594 595.763,595.52 595.575,597.043 C585.665,597.046 575.756,597.046 565.893,597.05 C566.456,595.52 567.068,593.992 567.631,592.466 C568.194,590.937 568.805,589.405 569.368,587.872 Z M532.359,587.826 C541.518,587.836 550.723,587.851 559.881,587.861 C559.176,589.397 558.471,590.93 557.768,592.459 C557.063,593.991 556.312,595.518 555.654,597.05 C545.697,597.053 535.787,597.05 525.925,597.053 C526.957,595.518 528.036,593.979 529.118,592.441 C530.196,590.908 531.231,589.369 532.359,587.826 Z M495.35,587.783 C504.508,587.794 513.714,587.805 522.919,587.815 C521.697,589.358 520.477,590.898 519.303,592.437 C518.129,593.976 516.86,595.514 515.686,597.053 C505.776,597.057 495.867,597.057 485.957,597.06 C487.507,595.514 489.104,593.971 490.653,592.427 C492.204,590.882 493.753,589.33 495.35,587.783 Z M687.769,600.542 C697.961,600.535 708.152,600.528 718.344,600.524 C719.564,602.025 720.832,603.522 722.101,605.022 C723.368,606.519 724.638,608.013 725.858,609.513 C714.916,609.531 703.973,609.549 693.076,609.565 C692.23,608.062 691.31,606.551 690.446,605.058 C689.572,603.546 688.615,602.046 687.769,600.542 Z M646.674,600.563 C656.865,600.559 667.058,600.553 677.295,600.549 C678,602.057 678.8,603.564 679.55,605.068 C680.302,606.576 681.1,608.08 681.852,609.584 C670.908,609.605 659.965,609.623 649.069,609.641 C648.693,608.126 648.292,606.611 647.895,605.107 C647.494,603.59 647.05,602.078 646.674,600.563 Z M605.626,600.588 C615.77,600.581 625.962,600.578 636.153,600.57 C636.389,602.089 636.67,603.604 636.951,605.118 C637.233,606.633 637.516,608.144 637.75,609.658 C626.808,609.677 615.911,609.694 605.016,609.712 C605.156,608.194 605.273,606.673 605.344,605.154 C605.414,603.637 605.484,602.114 605.626,600.588 Z M564.531,600.613 C574.722,600.606 584.867,600.602 595.059,600.596 C594.823,602.121 594.612,603.641 594.401,605.168 C594.19,606.687 593.979,608.212 593.743,609.733 C582.801,609.751 571.904,609.769 561.008,609.787 C561.619,608.259 562.204,606.738 562.793,605.204 C563.378,603.681 563.92,602.146 564.531,600.613 Z M523.389,600.635 C533.58,600.632 543.771,600.628 554.011,600.621 C553.259,602.153 552.556,603.686 551.85,605.219 C551.146,606.747 550.441,608.276 549.736,609.805 C538.793,609.826 527.851,609.841 516.954,609.862 C518.034,608.322 519.134,606.795 520.195,605.254 C521.246,603.724 522.309,602.175 523.389,600.635 Z M482.341,600.66 C492.484,600.656 502.724,600.649 512.915,600.645 C511.693,602.185 510.503,603.716 509.299,605.265 C508.108,606.795 506.904,608.344 505.683,609.88 C494.739,609.901 483.797,609.919 472.9,609.936 C474.497,608.39 476.06,606.856 477.644,605.3 C479.205,603.766 480.744,602.21 482.341,600.66 Z M604.78,613.49 C616.005,613.469 627.183,613.444 638.455,613.419 C638.689,614.937 638.972,616.452 639.254,617.963 C639.535,619.477 639.816,620.992 640.099,622.504 C628.123,622.539 616.193,622.574 604.264,622.61 C604.357,621.093 604.429,619.573 604.498,618.053 C604.568,616.533 604.686,615.016 604.78,613.49 Z M447.444,588.726 C447.912,588.393 448.382,588.059 448.854,587.726 L447.444,587.724 L447.444,588.726 Z M447.444,597.06 L447.444,595.985 C449.016,594.795 450.608,593.605 452.188,592.405 C454.219,590.863 456.274,589.294 458.341,587.736 C467.499,587.748 476.657,587.758 485.862,587.772 C484.172,589.322 482.481,590.87 480.791,592.416 C479.1,593.963 477.361,595.51 475.719,597.057 C466.28,597.059 456.842,597.06 447.444,597.06 Z M447.444,609.977 L447.444,600.681 C455.558,600.676 463.659,600.673 471.82,600.667 C470.082,602.218 468.392,603.768 466.701,605.314 C465.011,606.861 463.366,608.404 461.629,609.955 L447.444,609.977 Z M754.883,613.178 L754.883,622.161 L742.672,622.197 C712.615,622.286 682.509,622.379 652.45,622.468 C652.028,620.957 651.652,619.445 651.229,617.934 C650.808,616.423 650.431,614.912 650.056,613.397 C678.282,613.337 706.508,613.278 734.734,613.22 L754.883,613.178 Z M754.883,600.503 L754.883,609.463 L737.13,609.491 C735.769,607.998 734.42,606.492 733.044,605.008 C731.648,603.502 730.227,602.014 728.91,600.518 C737.544,600.511 746.211,600.508 754.883,600.503 Z M754.883,596.615 C753.341,595.263 751.764,593.91 750.187,592.559 C748.45,591.072 746.664,589.579 744.927,588.086 C735.722,588.075 726.563,588.064 717.404,588.05 C718.813,589.551 720.162,591.06 721.538,592.545 C722.932,594.05 724.309,595.535 725.67,597.032 C735.377,597.028 745.131,597.028 754.883,597.028 L754.883,596.615 Z M754.883,588.098 L754.883,588.47 L754.413,588.097 L754.883,588.098 Z M447.444,613.82 L485.862,613.74 C521.604,613.665 557.392,613.59 593.227,613.515 C592.992,615.04 592.78,616.564 592.569,618.084 C592.357,619.608 592.1,621.128 591.912,622.649 C553.775,622.764 515.639,622.878 477.55,622.992 L447.444,623.082 L447.444,613.82 Z M769.959,600.492 C780.15,600.489 790.343,600.481 800.581,600.475 C802.788,601.957 805.051,603.432 807.297,604.923 C809.512,606.393 811.759,607.881 813.967,609.363 C803.022,609.385 792.08,609.402 781.184,609.42 C779.306,607.93 777.436,606.435 775.596,604.962 C773.726,603.464 771.791,601.981 769.959,600.492 Z M754.883,588.47 C756.605,589.839 758.328,591.204 760.049,592.566 C761.928,594.052 763.76,595.538 765.591,597.024 C775.502,597.024 785.411,597.024 795.367,597.021 C793.16,595.538 790.945,594.067 788.698,592.576 C786.484,591.106 784.236,589.615 781.982,588.129 L754.883,588.098 L754.883,588.47 Z M754.883,597.028 L754.883,596.615 L755.354,597.028 L754.883,597.028 Z M754.883,609.463 L754.883,600.503 L759.438,600.5 C761.177,601.992 762.938,603.463 764.699,604.972 C766.414,606.441 768.175,607.948 769.865,609.438 L754.883,609.463 Z M754.883,622.161 L754.883,613.178 L819.509,613.041 C821.763,614.527 823.972,616.006 826.225,617.485 C828.479,618.967 830.686,620.447 832.941,621.926 C806.911,622.006 780.882,622.084 754.883,622.161 Z" id="Fill-72" fill="#CCCCCC" mask="url(#mask-2)"></path>
            <polygon id="Fill-73" fill="#FFFFFF" mask="url(#mask-2)" points="433.895 150.433 768.023 150.433 768.023 119.262 433.895 119.262"></polygon>
            <polygon id="Fill-74" fill="#FFCD61" mask="url(#mask-2)" points="433.895 150.433 763.503 150.433 763.503 143.703 433.895 143.703"></polygon>
            <polygon id="Fill-75" fill="#FFCD61" mask="url(#mask-2)" points="433.895 150.433 437.42 150.433 437.42 128.889 433.895 128.889"></polygon>
            <polygon id="Fill-76" fill="#FFCD61" mask="url(#mask-2)" points="441.913 150.433 443.185 150.433 443.185 134.897 441.913 134.897"></polygon>
            <polygon id="Fill-77" fill="#FFCD61" mask="url(#mask-2)" points="448.061 150.433 449.332 150.433 449.332 134.897 448.061 134.897"></polygon>
            <polyline id="Fill-78" fill="#FFCD61" mask="url(#mask-2)" points="455.479 150.433 455.479 134.897 454.208 134.897 454.209 150.433 455.479 150.433"></polyline>
            <polygon id="Fill-79" fill="#FFCD61" mask="url(#mask-2)" points="460.355 150.433 461.627 150.433 461.627 134.897 460.355 134.897"></polygon>
            <polygon id="Fill-80" fill="#FFCD61" mask="url(#mask-2)" points="466.503 150.433 470.027 150.433 470.027 128.889 466.503 128.889"></polygon>
            <polygon id="Fill-81" fill="#FFCD61" mask="url(#mask-2)" points="474.521 150.433 475.793 150.433 475.793 134.897 474.521 134.897"></polygon>
            <polygon id="Fill-82" fill="#FFCD61" mask="url(#mask-2)" points="480.669 150.433 481.94 150.433 481.94 134.897 480.669 134.897"></polygon>
            <polygon id="Fill-83" fill="#FFCD61" mask="url(#mask-2)" points="486.816 150.433 488.088 150.433 488.088 134.897 486.816 134.897"></polygon>
            <polygon id="Fill-84" fill="#FFCD61" mask="url(#mask-2)" points="492.964 150.433 494.235 150.433 494.235 134.897 492.964 134.897"></polygon>
            <polygon id="Fill-85" fill="#FFCD61" mask="url(#mask-2)" points="499.111 150.433 502.637 150.433 502.637 128.889 499.111 128.889"></polygon>
            <polygon id="Fill-86" fill="#FFCD61" mask="url(#mask-2)" points="507.13 150.433 508.401 150.433 508.401 134.897 507.13 134.897"></polygon>
            <polygon id="Fill-87" fill="#FFCD61" mask="url(#mask-2)" points="513.277 150.433 514.549 150.433 514.549 134.897 513.277 134.897"></polygon>
            <polygon id="Fill-88" fill="#FFCD61" mask="url(#mask-2)" points="519.425 150.433 520.696 150.433 520.696 134.897 519.425 134.897"></polygon>
            <polygon id="Fill-89" fill="#FFCD61" mask="url(#mask-2)" points="525.572 150.433 526.844 150.433 526.844 134.897 525.572 134.897"></polygon>
            <polygon id="Fill-90" fill="#FFCD61" mask="url(#mask-2)" points="531.72 150.433 535.244 150.433 535.244 128.889 531.72 128.889"></polygon>
            <polygon id="Fill-91" fill="#FFCD61" mask="url(#mask-2)" points="539.738 150.433 541.01 150.433 541.01 134.897 539.738 134.897"></polygon>
            <polygon id="Fill-92" fill="#FFCD61" mask="url(#mask-2)" points="545.886 150.433 547.157 150.433 547.157 134.897 545.886 134.897"></polygon>
            <polygon id="Fill-93" fill="#FFCD61" mask="url(#mask-2)" points="552.033 150.433 553.305 150.433 553.305 134.897 552.033 134.897"></polygon>
            <polygon id="Fill-94" fill="#FFCD61" mask="url(#mask-2)" points="558.181 150.433 559.451 150.433 559.451 134.897 558.181 134.897"></polygon>
            <polygon id="Fill-95" fill="#FFCD61" mask="url(#mask-2)" points="564.328 150.433 567.854 150.433 567.854 128.889 564.328 128.889"></polygon>
            <polygon id="Fill-96" fill="#FFCD61" mask="url(#mask-2)" points="572.347 150.433 573.618 150.433 573.618 134.897 572.347 134.897"></polygon>
            <polygon id="Fill-97" fill="#FFCD61" mask="url(#mask-2)" points="578.494 150.433 579.766 150.433 579.766 134.897 578.494 134.897"></polygon>
            <polygon id="Fill-98" fill="#FFCD61" mask="url(#mask-2)" points="584.642 150.433 585.913 150.433 585.913 134.897 584.642 134.897"></polygon>
            <polygon id="Fill-99" fill="#FFCD61" mask="url(#mask-2)" points="590.789 150.433 592.061 150.433 592.061 134.897 590.789 134.897"></polygon>
            <polygon id="Fill-100" fill="#FFCD61" mask="url(#mask-2)" points="596.937 150.433 600.461 150.433 600.461 128.889 596.937 128.889"></polygon>
            <polygon id="Fill-101" fill="#FFCD61" mask="url(#mask-2)" points="604.955 150.433 606.227 150.433 606.227 134.897 604.955 134.897"></polygon>
            <polygon id="Fill-102" fill="#FFCD61" mask="url(#mask-2)" points="611.103 150.433 612.373 150.433 612.373 134.897 611.103 134.897"></polygon>
            <polygon id="Fill-103" fill="#FFCD61" mask="url(#mask-2)" points="617.25 150.433 618.521 150.433 618.521 134.897 617.25 134.897"></polygon>
            <polygon id="Fill-104" fill="#FFCD61" mask="url(#mask-2)" points="623.397 150.433 624.668 150.433 624.668 134.897 623.397 134.897"></polygon>
            <polygon id="Fill-105" fill="#FFCD61" mask="url(#mask-2)" points="629.545 150.433 633.07 150.433 633.07 128.889 629.545 128.889"></polygon>
            <polygon id="Fill-106" fill="#FFCD61" mask="url(#mask-2)" points="637.563 150.433 638.834 150.433 638.834 134.897 637.563 134.897"></polygon>
            <polygon id="Fill-107" fill="#FFCD61" mask="url(#mask-2)" points="643.711 150.433 644.982 150.433 644.982 134.897 643.711 134.897"></polygon>
            <polyline id="Fill-108" fill="#FFCD61" mask="url(#mask-2)" points="651.13 150.433 651.129 134.897 649.858 134.897 649.858 150.433 651.13 150.433"></polyline>
            <polygon id="Fill-109" fill="#FFCD61" mask="url(#mask-2)" points="656.006 150.433 657.276 150.433 657.276 134.897 656.006 134.897"></polygon>
            <polygon id="Fill-110" fill="#FFCD61" mask="url(#mask-2)" points="662.153 150.433 665.678 150.433 665.678 128.889 662.153 128.889"></polygon>
            <polygon id="Fill-111" fill="#FFCD61" mask="url(#mask-2)" points="670.172 150.433 671.443 150.433 671.443 134.897 670.172 134.897"></polygon>
            <polygon id="Fill-112" fill="#FFCD61" mask="url(#mask-2)" points="676.319 150.433 677.59 150.433 677.59 134.897 676.319 134.897"></polygon>
            <polyline id="Fill-113" fill="#FFCD61" mask="url(#mask-2)" points="683.738 150.433 683.737 134.897 682.467 134.897 682.467 150.433 683.738 150.433"></polyline>
            <polygon id="Fill-114" fill="#FFCD61" mask="url(#mask-2)" points="688.614 150.433 689.885 150.433 689.885 134.897 688.614 134.897"></polygon>
            <polygon id="Fill-115" fill="#FFCD61" mask="url(#mask-2)" points="694.762 150.433 698.286 150.433 698.286 128.889 694.762 128.889"></polygon>
            <polygon id="Fill-116" fill="#FFCD61" mask="url(#mask-2)" points="702.78 150.433 704.051 150.433 704.051 134.897 702.78 134.897"></polygon>
            <polygon id="Fill-117" fill="#FFCD61" mask="url(#mask-2)" points="708.928 150.433 710.199 150.433 710.199 134.897 708.928 134.897"></polygon>
            <polygon id="Fill-118" fill="#FFCD61" mask="url(#mask-2)" points="715.074 150.433 716.346 150.433 716.346 134.897 715.074 134.897"></polygon>
            <polygon id="Fill-119" fill="#FFCD61" mask="url(#mask-2)" points="721.223 150.433 722.493 150.433 722.493 134.897 721.223 134.897"></polygon>
            <polygon id="Fill-120" fill="#FFCD61" mask="url(#mask-2)" points="727.37 150.433 730.895 150.433 730.895 128.889 727.37 128.889"></polygon>
            <polygon id="Fill-121" fill="#FFCD61" mask="url(#mask-2)" points="735.389 150.433 736.659 150.433 736.659 134.897 735.389 134.897"></polygon>
            <polygon id="Fill-122" fill="#FFCD61" mask="url(#mask-2)" points="741.536 150.433 742.807 150.433 742.807 134.897 741.536 134.897"></polygon>
            <polygon id="Fill-123" fill="#FFCD61" mask="url(#mask-2)" points="747.684 150.433 748.954 150.433 748.954 134.897 747.684 134.897"></polygon>
            <polygon id="Fill-124" fill="#FFCD61" mask="url(#mask-2)" points="753.831 150.433 755.102 150.433 755.102 134.897 753.831 134.897"></polygon>
            <polygon id="Fill-125" fill="#FFCD61" mask="url(#mask-2)" points="759.979 150.433 763.503 150.433 763.503 128.889 759.979 128.889"></polygon>
            <polyline id="Fill-126" fill="#FFFFFF" mask="url(#mask-2)" points="357.658 413.733 375.347 413.847 375.016 528.548 357.327 528.434 357.658 413.733"></polyline>
            <polyline id="Fill-127" fill="#87BBDA" mask="url(#mask-2)" points="361.095 418.901 360.793 523.31 371.58 523.379 371.881 418.971 361.095 418.901"></polyline>
            <path d="M377.776,384.96 C383.908,388.75 387.984,395.547 387.949,403.284 C387.898,415.112 378.27,424.661 366.438,424.609 C354.61,424.559 345.063,414.929 345.113,403.1 C345.147,395.361 349.279,388.601 355.445,384.864 L355.365,403.423 L366.503,409.919 L372.101,406.718 L377.696,403.52 L377.776,384.96" id="Fill-128" fill="#FFFFFF" mask="url(#mask-2)"></path>
            <path d="M377.229,553.563 C383.395,549.826 387.526,543.064 387.562,535.327 C387.611,523.499 378.063,513.869 366.234,513.818 C354.405,513.767 344.775,523.314 344.724,535.143 C344.691,542.882 348.766,549.677 354.897,553.467 L354.979,534.908 L366.171,528.509 L371.741,531.756 L377.308,535.005 L377.229,553.563" id="Fill-129" fill="#FFFFFF" mask="url(#mask-2)"></path>
            <path d="M380.716,545.75 C382.873,542.763 384.093,539.132 384.109,535.313 C384.151,525.391 376.143,517.312 366.22,517.268 C356.296,517.226 348.218,525.235 348.175,535.158 C348.158,538.978 349.348,542.617 351.479,545.625 L351.534,532.901 L366.188,524.525 L380.77,533.026 L380.716,545.75" id="Fill-130" fill="#87BBDA" mask="url(#mask-2)"></path>
            <path d="M351.959,392.508 C349.801,395.495 348.581,399.125 348.565,402.944 C348.522,412.869 356.529,420.946 366.456,420.988 C376.38,421.031 384.457,413.022 384.498,403.099 C384.516,399.281 383.326,395.639 381.194,392.633 L381.139,405.357 L366.486,413.733 L351.905,405.232 L351.959,392.508" id="Fill-131" fill="#87BBDA" mask="url(#mask-2)"></path>
            <path d="M829.564,403.431 L821.424,384.96 L813.282,403.431 L813.281,549.122 C813.282,551.564 815.28,553.563 817.723,553.563 L825.124,553.563 C827.566,553.563 829.564,551.564 829.564,549.122 L829.564,403.431" id="Fill-132" fill="#FFEEC9" mask="url(#mask-2)"></path>
            <path d="M829.565,403.431 L821.424,384.96 L824.955,404.168 L824.954,553.563 L825.124,553.563 C827.566,553.563 829.564,551.564 829.564,549.123 L829.565,403.431" id="Fill-133" fill="#FFCD61" mask="url(#mask-2)"></path>
            <path d="M829.564,403.431 L821.424,384.96 L813.282,403.431 L813.282,542.583 C819.016,543.559 824.406,543.515 829.564,542.583 L829.564,403.431" id="Fill-134" fill="#C0F7FC" mask="url(#mask-2)"></path>
            <path d="M829.565,403.431 L821.424,384.96 L824.955,404.168 L824.954,543.298 C827.739,543.306 826.917,543.061 829.564,542.583 L829.565,403.431" id="Fill-135" fill="#A2EDF4" mask="url(#mask-2)"></path>
            <path d="M829.564,403.431 L821.424,384.96 L813.282,403.431 L813.282,537.39 C819.047,538.433 824.436,538.386 829.564,537.39 L829.564,403.431" id="Fill-136" fill="#87BBDA" mask="url(#mask-2)"></path>
            <path d="M829.545,404.019 L821.467,385.693 L825.482,404.043 L825.482,537.454 C828.254,537.463 826.926,537.912 829.545,537.403 L829.545,404.019" id="Fill-137" fill="#4C8EB4" mask="url(#mask-2)"></path>
            <path d="M829.564,403.43 L821.424,384.96 L813.283,403.43 C815.869,403.91 818.6,404.168 821.424,404.168 C824.247,404.168 826.979,403.91 829.564,403.43" id="Fill-138" fill="#FFFFFF" mask="url(#mask-2)"></path>
            <path d="M829.564,403.431 L821.424,384.96 L825.512,404.168 C828.335,404.168 826.979,403.911 829.564,403.431" id="Fill-139" fill="#CCCCCC" mask="url(#mask-2)"></path>
            <path d="M824.113,391.062 L821.424,384.96 L818.734,391.061 C819.589,391.221 820.49,391.306 821.424,391.306 C822.356,391.306 823.259,391.221 824.113,391.062" id="Fill-140" fill="#4D4D4D" mask="url(#mask-2)"></path>
            <polygon id="Fill-141" fill="#609DC1" mask="url(#mask-2)" points="352.438 192.183 448.204 192.183 448.204 158.234 352.438 158.234"></polygon>
            <text id="HTML5" mask="url(#mask-2)" font-family="PTSans-Bold, PT Sans" font-size="21.3194" font-weight="bold" fill="#FFFFFF">
                <tspan x="368.639" y="177.410595">HTML5</tspan>
            </text>
            <polygon id="Fill-142" fill="#666666" mask="url(#mask-2)" points="862.656 473.31 931.462 473.31 931.462 439.362 862.656 439.362"></polygon>
            <text id="CSS3" mask="url(#mask-2)" font-family="PTSans-Bold, PT Sans" font-size="21.3194" font-weight="bold" fill="#FFFFFF">
                <tspan x="875.12" y="458.537495">CSS3</tspan>
            </text>
            <text id="&lt;title&gt;" mask="url(#mask-2)" font-family="PTSans-Bold, PT Sans" font-size="21.3194" font-weight="bold" fill="#FFD0C3">
                <tspan x="424.751939" y="78.8645642">&lt;title&gt;</tspan>
            </text>
            <text id="&lt;label&gt;" mask="url(#mask-2)" font-family="PTSans-Bold, PT Sans" font-size="21.3194" font-weight="bold" fill="#FFD0C3">
                <tspan x="702.130125" y="170.184082">&lt;label&gt;</tspan>
            </text>
            <text id="&lt;head&gt;" mask="url(#mask-2)" font-family="PTSans-Bold, PT Sans" font-size="21.3194" font-weight="bold" fill="#FFD0C3">
                <tspan x="268.499924" y="400.676643">&lt;head&gt;</tspan>
            </text>
            <text id="&lt;div&gt;" mask="url(#mask-2)" font-family="PTSans-Bold, PT Sans" font-size="21.3194" font-weight="bold" fill="#FFD0C3">
                <tspan x="326.350116" y="582.175091">&lt;div&gt;</tspan>
            </text>
            <text id="&lt;form&gt;" mask="url(#mask-2)" font-family="PTSans-Bold, PT Sans" font-size="21.3194" font-weight="bold" letter-spacing="-0.0008" fill="#FFD0C3">
                <tspan x="861.445737" y="511.196413">&lt;form&gt;</tspan>
            </text>
            <text id="&lt;button&gt;" mask="url(#mask-2)" font-family="PTSans-Bold, PT Sans" font-size="21.3194" font-weight="bold" letter-spacing="-0.0006" fill="#FFD0C3">
                <tspan x="838.86636" y="582.175091">&lt;bu</tspan>
                <tspan x="872.99692" y="582.175091" letter-spacing="-0.13704416">t</tspan>
                <tspan x="880.15111" y="582.175091">ton&gt;</tspan>
            </text>
            <path d="M346.993,272.513 L343.688,272.801 L343.248,267.78 C339.856,267.34 336.549,266.298 333.521,264.709 L330.277,268.571 L320.719,260.551 L323.961,256.688 C321.854,253.962 320.271,250.924 319.248,247.635 L314.227,248.076 L313.141,235.644 L318.16,235.206 C318.602,231.788 319.635,228.525 321.232,225.475 L317.372,222.231 L325.391,212.674 L329.254,215.915 C331.979,213.809 335.02,212.229 338.305,211.205 L337.866,206.182 L346.993,205.385 L346.993,219.457 C341.326,219.455 335.837,221.93 332.066,226.421 C325.16,234.654 326.238,246.968 334.467,253.875 C336.496,255.578 338.801,256.831 341.313,257.595 C343.188,258.165 345.101,258.441 346.993,258.442 L346.993,272.513 Z M372.756,252.424 L376.617,255.664 L368.592,265.223 L364.731,261.98 C362.004,264.087 358.97,265.67 355.684,266.695 L356.119,271.716 L346.993,272.513 L346.993,258.442 C352.66,258.443 358.148,255.968 361.92,251.476 C368.824,243.244 367.751,230.931 359.521,224.023 C357.488,222.319 355.183,221.067 352.673,220.304 C350.798,219.734 348.886,219.457 346.993,219.457 L346.993,205.385 L350.296,205.097 L350.734,210.116 C354.125,210.557 357.437,211.6 360.469,213.189 L363.709,209.327 L373.27,217.348 L370.028,221.211 C372.133,223.938 373.715,226.975 374.738,230.263 L379.762,229.823 L380.849,242.254 L375.822,242.69 C375.386,246.108 374.354,249.373 372.756,252.424 Z" id="Fill-143" fill="#808080" mask="url(#mask-2)"></path>
            <path d="M879.144,109.383 C887.072,111.008 893.004,117.043 893.004,124.187 C893.004,131.53 886.856,139.117 878.475,139.117 L841.629,139.117 C832.657,139.117 825.742,131.928 825.742,124.187 C825.742,117.043 831.674,111.008 839.603,109.384 C839.598,109.241 839.596,109.097 839.596,108.953 C839.596,99.775 848.45,92.334 859.373,92.334 C870.295,92.334 879.15,99.775 879.15,108.953 C879.15,109.097 879.147,109.241 879.144,109.383" id="Fill-144" fill="#FFBBA6" mask="url(#mask-2)"></path>
            <path d="M849.641,103.336 C855.181,104.471 859.326,108.688 859.326,113.681 C859.326,118.812 855.029,124.114 849.173,124.114 L823.426,124.114 C817.156,124.114 812.324,119.09 812.324,113.681 C812.324,108.688 816.469,104.471 822.009,103.336 C822.006,103.236 822.005,103.136 822.005,103.035 C822.005,96.622 828.191,91.422 835.824,91.422 C843.457,91.422 849.645,96.622 849.645,103.035 C849.645,103.136 849.643,103.236 849.641,103.336" id="Fill-145" fill="#FFFFFF" mask="url(#mask-2)"></path>
            <text id="&lt;script&gt;" mask="url(#mask-2)" font-family="PTSans-Bold, PT Sans" font-size="21.3194" font-weight="bold" fill="#FFD0C3">
                <tspan x="390.723" y="264.080495">&lt;script&gt;</tspan>
            </text>
            <polygon id="Fill-146" fill="#4D4D4D" mask="url(#mask-2)" points="474.548 544.747 727.37 544.747 727.37 191.635 474.548 191.635"></polygon>
            <polygon id="Fill-147" fill="#F2675D" mask="url(#mask-2)" points="493.009 216.604 614.371 216.604 614.371 211.994 493.009 211.994"></polygon>
            <polygon id="Fill-148" fill="#9ACAE6" mask="url(#mask-2)" points="493.009 228.001 531.898 228.001 531.898 223.391 493.009 223.391"></polygon>
            <polygon id="Fill-149" fill="#CCCCCC" mask="url(#mask-2)" points="493.009 239.37 555.724 239.37 555.724 234.76 493.009 234.76"></polygon>
            <polygon id="Fill-150" fill="#9ACAE6" mask="url(#mask-2)" points="522.19 250.768 558.788 250.768 558.788 246.157 522.19 246.157"></polygon>
            <polygon id="Fill-151" fill="#9ACAE6" mask="url(#mask-2)" points="522.19 262.136 558.788 262.136 558.788 257.526 522.19 257.526"></polygon>
            <polygon id="Fill-152" fill="#9ACAE6" mask="url(#mask-2)" points="547.591 273.534 583.186 273.534 583.186 268.923 547.591 268.923"></polygon>
            <polygon id="Fill-153" fill="#CCCCCC" mask="url(#mask-2)" points="544.985 228.001 611.308 228.001 611.308 223.391 544.985 223.391"></polygon>
            <polygon id="Fill-154" fill="#CCCCCC" mask="url(#mask-2)" points="620.758 228.001 652.43 228.001 652.43 223.391 620.758 223.391"></polygon>
            <polygon id="Fill-155" fill="#CCCCCC" mask="url(#mask-2)" points="664.457 228.001 707.212 228.001 707.212 223.391 664.457 223.391"></polygon>
            <polygon id="Fill-156" fill="#9ACAE6" mask="url(#mask-2)" points="566.205 239.37 603.519 239.37 603.519 234.76 566.205 234.76"></polygon>
            <polygon id="Fill-157" fill="#CCCCCC" mask="url(#mask-2)" points="569.956 250.768 591.318 250.768 591.318 246.157 569.956 246.157"></polygon>
            <polygon id="Fill-158" fill="#CCCCCC" mask="url(#mask-2)" points="569.956 262.136 606.554 262.136 606.554 257.526 569.956 257.526"></polygon>
            <polygon id="Fill-159" fill="#CCCCCC" mask="url(#mask-2)" points="601.485 250.768 642.149 250.768 642.149 246.157 601.485 246.157"></polygon>
            <polygon id="Fill-160" fill="#CCCCCC" mask="url(#mask-2)" points="650.282 250.768 671.616 250.768 671.616 246.157 650.282 246.157"></polygon>
            <polygon id="Fill-161" fill="#CCCCCC" mask="url(#mask-2)" points="680.78 250.768 707.212 250.768 707.212 246.157 680.78 246.157"></polygon>
            <polygon id="Fill-162" fill="#CCCCCC" mask="url(#mask-2)" points="614.687 262.136 660.906 262.136 660.906 257.526 614.687 257.526"></polygon>
            <polygon id="Fill-163" fill="#CCCCCC" mask="url(#mask-2)" points="667.808 262.136 681.61 262.136 681.61 257.526 667.808 257.526"></polygon>
            <polygon id="Fill-164" fill="#CCCCCC" mask="url(#mask-2)" points="593.352 273.534 619.813 273.534 619.813 268.923 593.352 268.923"></polygon>
            <polygon id="Fill-165" fill="#9ACAE6" mask="url(#mask-2)" points="522.19 296.3 558.788 296.3 558.788 291.689 522.19 291.689"></polygon>
            <polygon id="Fill-166" fill="#9ACAE6" mask="url(#mask-2)" points="522.19 307.697 558.788 307.697 558.788 303.087 522.19 303.087"></polygon>
            <polygon id="Fill-167" fill="#CCCCCC" mask="url(#mask-2)" points="569.956 296.3 591.318 296.3 591.318 291.689 569.956 291.689"></polygon>
            <polygon id="Fill-168" fill="#CCCCCC" mask="url(#mask-2)" points="569.956 307.697 602.917 307.697 602.917 303.087 569.956 303.087"></polygon>
            <polygon id="Fill-169" fill="#CCCCCC" mask="url(#mask-2)" points="601.485 296.3 632.756 296.3 632.756 291.689 601.485 291.689"></polygon>
            <polygon id="Fill-170" fill="#CCCCCC" mask="url(#mask-2)" points="638.999 296.3 655.437 296.3 655.437 291.689 638.999 291.689"></polygon>
            <polygon id="Fill-171" fill="#CCCCCC" mask="url(#mask-2)" points="662.481 296.3 682.813 296.3 682.813 291.689 662.481 291.689"></polygon>
            <polygon id="Fill-172" fill="#CCCCCC" mask="url(#mask-2)" points="634.99 307.697 671.616 307.697 671.616 303.087 634.99 303.087"></polygon>
            <polygon id="Fill-173" fill="#9ACAE6" mask="url(#mask-2)" points="522.19 319.066 558.788 319.066 558.788 314.455 522.19 314.455"></polygon>
            <polygon id="Fill-174" fill="#9ACAE6" mask="url(#mask-2)" points="522.19 330.463 558.788 330.463 558.788 325.853 522.19 325.853"></polygon>
            <polygon id="Fill-175" fill="#CCCCCC" mask="url(#mask-2)" points="569.956 319.066 591.318 319.066 591.318 314.455 569.956 314.455"></polygon>
            <polygon id="Fill-176" fill="#CCCCCC" mask="url(#mask-2)" points="569.956 330.463 637.052 330.463 637.052 325.853 569.956 325.853"></polygon>
            <polygon id="Fill-177" fill="#CCCCCC" mask="url(#mask-2)" points="601.485 319.066 642.149 319.066 642.149 314.455 601.485 314.455"></polygon>
            <polygon id="Fill-178" fill="#CCCCCC" mask="url(#mask-2)" points="650.282 319.066 671.616 319.066 671.616 314.455 650.282 314.455"></polygon>
            <polygon id="Fill-179" fill="#CCCCCC" mask="url(#mask-2)" points="680.78 319.066 707.212 319.066 707.212 314.455 680.78 314.455"></polygon>
            <polygon id="Fill-180" fill="#CCCCCC" mask="url(#mask-2)" points="645.185 330.463 682.813 330.463 682.813 325.853 645.185 325.853"></polygon>
            <polygon id="Fill-181" fill="#CCCCCC" mask="url(#mask-2)" points="610.248 307.697 625.826 307.697 625.826 303.087 610.248 303.087"></polygon>
            <polygon id="Fill-182" fill="#9ACAE6" mask="url(#mask-2)" points="493.009 353.229 531.898 353.229 531.898 348.619 493.009 348.619"></polygon>
            <polygon id="Fill-183" fill="#CCCCCC" mask="url(#mask-2)" points="493.009 364.598 555.724 364.598 555.724 359.988 493.009 359.988"></polygon>
            <polygon id="Fill-184" fill="#9ACAE6" mask="url(#mask-2)" points="522.19 375.996 558.788 375.996 558.788 371.385 522.19 371.385"></polygon>
            <polygon id="Fill-185" fill="#9ACAE6" mask="url(#mask-2)" points="522.19 387.393 558.788 387.393 558.788 382.754 522.19 382.754"></polygon>
            <polygon id="Fill-186" fill="#9ACAE6" mask="url(#mask-2)" points="547.591 398.762 583.186 398.762 583.186 394.151 547.591 394.151"></polygon>
            <polygon id="Fill-187" fill="#CCCCCC" mask="url(#mask-2)" points="544.985 353.229 581.783 353.229 581.783 348.619 544.985 348.619"></polygon>
            <polygon id="Fill-188" fill="#CCCCCC" mask="url(#mask-2)" points="591.205 353.229 609.79 353.229 609.79 348.619 591.205 348.619"></polygon>
            <polygon id="Fill-189" fill="#CCCCCC" mask="url(#mask-2)" points="621.817 353.229 680.923 353.229 680.923 348.619 621.817 348.619"></polygon>
            <polygon id="Fill-190" fill="#9ACAE6" mask="url(#mask-2)" points="566.205 364.598 603.519 364.598 603.519 359.988 566.205 359.988"></polygon>
            <polygon id="Fill-191" fill="#CCCCCC" mask="url(#mask-2)" points="569.956 375.996 611.651 375.996 611.651 371.385 569.956 371.385"></polygon>
            <polygon id="Fill-192" fill="#CCCCCC" mask="url(#mask-2)" points="569.956 387.393 598.421 387.393 598.421 382.754 569.956 382.754"></polygon>
            <polygon id="Fill-193" fill="#CCCCCC" mask="url(#mask-2)" points="621.817 375.996 652.802 375.996 652.802 371.385 621.817 371.385"></polygon>
            <polygon id="Fill-194" fill="#CCCCCC" mask="url(#mask-2)" points="606.554 387.393 660.906 387.393 660.906 382.754 606.554 382.754"></polygon>
            <polygon id="Fill-195" fill="#CCCCCC" mask="url(#mask-2)" points="667.808 387.393 681.61 387.393 681.61 382.754 667.808 382.754"></polygon>
            <polygon id="Fill-196" fill="#CCCCCC" mask="url(#mask-2)" points="593.352 398.762 619.813 398.762 619.813 394.151 593.352 394.151"></polygon>
            <polygon id="Fill-197" fill="#CCCCCC" mask="url(#mask-2)" points="625.683 398.762 674.938 398.762 674.938 394.151 625.683 394.151"></polygon>
            <polygon id="Fill-198" fill="#CCCCCC" mask="url(#mask-2)" points="682.269 398.762 696.988 398.762 696.988 394.151 682.269 394.151"></polygon>
            <polygon id="Fill-199" fill="#9ACAE6" mask="url(#mask-2)" points="522.19 421.528 558.788 421.528 558.788 416.918 522.19 416.918"></polygon>
            <polygon id="Fill-200" fill="#9ACAE6" mask="url(#mask-2)" points="522.19 432.926 558.788 432.926 558.788 428.314 522.19 428.314"></polygon>
            <polygon id="Fill-201" fill="#CCCCCC" mask="url(#mask-2)" points="569.956 421.528 630.208 421.528 630.208 416.918 569.956 416.918"></polygon>
            <polygon id="Fill-202" fill="#CCCCCC" mask="url(#mask-2)" points="569.956 432.926 602.917 432.926 602.917 428.314 569.956 428.314"></polygon>
            <polygon id="Fill-203" fill="#CCCCCC" mask="url(#mask-2)" points="638.999 421.528 655.437 421.528 655.437 416.918 638.999 416.918"></polygon>
            <polygon id="Fill-204" fill="#CCCCCC" mask="url(#mask-2)" points="662.481 421.528 682.813 421.528 682.813 416.918 662.481 416.918"></polygon>
            <polygon id="Fill-205" fill="#CCCCCC" mask="url(#mask-2)" points="634.99 432.926 671.616 432.926 671.616 428.314 634.99 428.314"></polygon>
            <polygon id="Fill-206" fill="#CCCCCC" mask="url(#mask-2)" points="610.248 432.926 625.826 432.926 625.826 428.314 610.248 428.314"></polygon>
            <polygon id="Fill-207" fill="#9ACAE6" mask="url(#mask-2)" points="493.009 451.597 531.898 451.597 531.898 446.986 493.009 446.986"></polygon>
            <polygon id="Fill-208" fill="#CCCCCC" mask="url(#mask-2)" points="493.009 462.965 555.724 462.965 555.724 458.354 493.009 458.354"></polygon>
            <polygon id="Fill-209" fill="#9ACAE6" mask="url(#mask-2)" points="522.19 474.362 558.788 474.362 558.788 469.752 522.19 469.752"></polygon>
            <polygon id="Fill-210" fill="#9ACAE6" mask="url(#mask-2)" points="522.19 485.731 558.788 485.731 558.788 481.121 522.19 481.121"></polygon>
            <polygon id="Fill-211" fill="#9ACAE6" mask="url(#mask-2)" points="547.591 497.129 583.186 497.129 583.186 492.518 547.591 492.518"></polygon>
            <polygon id="Fill-212" fill="#CCCCCC" mask="url(#mask-2)" points="544.985 451.597 581.783 451.597 581.783 446.986 544.985 446.986"></polygon>
            <polygon id="Fill-213" fill="#CCCCCC" mask="url(#mask-2)" points="591.205 451.597 609.79 451.597 609.79 446.986 591.205 446.986"></polygon>
            <polygon id="Fill-214" fill="#CCCCCC" mask="url(#mask-2)" points="621.817 451.597 707.212 451.597 707.212 446.986 621.817 446.986"></polygon>
            <polygon id="Fill-215" fill="#9ACAE6" mask="url(#mask-2)" points="566.205 462.965 603.519 462.965 603.519 458.354 566.205 458.354"></polygon>
            <polygon id="Fill-216" fill="#CCCCCC" mask="url(#mask-2)" points="569.956 474.362 611.651 474.362 611.651 469.752 569.956 469.752"></polygon>
            <polygon id="Fill-217" fill="#CCCCCC" mask="url(#mask-2)" points="569.956 485.731 598.421 485.731 598.421 481.121 569.956 481.121"></polygon>
            <polygon id="Fill-218" fill="#CCCCCC" mask="url(#mask-2)" points="621.817 474.362 652.802 474.362 652.802 469.752 621.817 469.752"></polygon>
            <polygon id="Fill-219" fill="#CCCCCC" mask="url(#mask-2)" points="660.935 474.362 679.777 474.362 679.777 469.752 660.935 469.752"></polygon>
            <polygon id="Fill-220" fill="#CCCCCC" mask="url(#mask-2)" points="688.941 474.362 707.212 474.362 707.212 469.752 688.941 469.752"></polygon>
            <polygon id="Fill-221" fill="#CCCCCC" mask="url(#mask-2)" points="606.554 485.731 660.906 485.731 660.906 481.121 606.554 481.121"></polygon>
            <polygon id="Fill-222" fill="#CCCCCC" mask="url(#mask-2)" points="667.808 485.731 681.61 485.731 681.61 481.121 667.808 481.121"></polygon>
            <polygon id="Fill-223" fill="#CCCCCC" mask="url(#mask-2)" points="593.352 497.129 619.813 497.129 619.813 492.518 593.352 492.518"></polygon>
            <polygon id="Fill-224" fill="#9ACAE6" mask="url(#mask-2)" points="522.19 519.894 558.788 519.894 558.788 515.284 522.19 515.284"></polygon>
            <polygon id="Fill-225" fill="#9ACAE6" mask="url(#mask-2)" points="522.19 531.292 558.788 531.292 558.788 526.682 522.19 526.682"></polygon>
            <polygon id="Fill-226" fill="#CCCCCC" mask="url(#mask-2)" points="569.956 519.894 630.208 519.894 630.208 515.284 569.956 515.284"></polygon>
            <polygon id="Fill-227" fill="#CCCCCC" mask="url(#mask-2)" points="569.956 531.292 602.917 531.292 602.917 526.682 569.956 526.682"></polygon>
            <polygon id="Fill-228" fill="#CCCCCC" mask="url(#mask-2)" points="638.999 519.894 655.437 519.894 655.437 515.284 638.999 515.284"></polygon>
            <polygon id="Fill-229" fill="#CCCCCC" mask="url(#mask-2)" points="662.481 519.894 682.813 519.894 682.813 515.284 662.481 515.284"></polygon>
            <polygon id="Fill-230" fill="#CCCCCC" mask="url(#mask-2)" points="634.99 531.292 671.616 531.292 671.616 526.682 634.99 526.682"></polygon>
            <polygon id="Fill-231" fill="#CCCCCC" mask="url(#mask-2)" points="610.248 531.292 625.826 531.292 625.826 526.682 610.248 526.682"></polygon>
            <polygon id="Fill-232" fill="#EF4136" mask="url(#mask-2)" points="363.682 326.317 498.789 326.317 498.789 292.369 363.682 292.369"></polygon>
            <text id="JAVASCRIPT" mask="url(#mask-2)" font-family="PTSans-Bold, PT Sans" font-size="21.3194" font-weight="bold" fill="#FFFFFF">
                <tspan x="378.469" y="311.544495">J</tspan>
                <tspan x="385.58968" y="311.544495" letter-spacing="-1.4497192">AV</tspan>
                <tspan x="405.523319" y="311.544495">ASCRI</tspan>
                <tspan x="460.54869" y="311.544495" letter-spacing="-0.1705552">P</tspan>
                <tspan x="472.402276" y="311.544495">T</tspan>
            </text>
        </g>
    </g>
</svg>