<?xml version="1.0" encoding="UTF-8"?>
<svg width="150px" height="101px" viewBox="0 0 150 101" version="1.1" xmlns="http://www.w3.org/2000/svg" xmlns:xlink="http://www.w3.org/1999/xlink">
    <defs></defs>
    <g id="Page-1" stroke="none" stroke-width="1" fill="none" fill-rule="evenodd">
        <g id="Group">
            <polygon id="Fill-2666" fill="#2B5D80" points="0 100.671141 150 100.671141 150 0 0 0"></polygon>
            <path d="M108.473154,50.3355705 C108.473154,68.8219379 93.4863674,83.8087248 75,83.8087248 C56.5130034,83.8087248 41.5268456,68.8219379 41.5268456,50.3355705 C41.5268456,31.8485738 56.5130034,16.8624161 75,16.8624161 C93.4863674,16.8624161 108.473154,31.8485738 108.473154,50.3355705" id="Fill-2667" fill="#407794"></path>
            <polyline id="Fill-2690" fill="#F1F0ED" points="70.1143037 58.5471896 59.1153523 58.5471896 59.1153523 52.2514681 46.5654362 52.2514681 46.5654362 51.7481124 59.6187081 51.7481124 59.6187081 58.0438339 70.1143037 58.0438339 70.1143037 58.5471896"></polyline>
            <polyline id="Fill-2691" fill="#F1F0ED" points="73.8013842 55.9869966 73.2980285 55.9869966 73.2980285 49.3596896 68.4481963 49.3596896 68.4481963 37.5 68.951552 37.5 68.951552 48.8563339 73.8013842 48.8563339 73.8013842 55.9869966"></polyline>
            <polyline id="Fill-2692" fill="#F1F0ED" points="82.0287332 57.6354866 82.0287332 47.4840604 105.803482 47.4840604 105.803482 47.9874161 82.5320889 47.9874161 82.5377517 57.232802 87.9450503 57.232802 87.9450503 57.6354866 82.0287332 57.6354866"></polyline>
            <polyline id="Fill-2693" fill="#F1F0ED" points="101.7263 69.2630034 90.8557047 69.2630034 90.8557047 65.5400587 86.8974413 62.6174497 82.0287332 62.6174497 82.0287332 57.4341443 82.5320889 57.4341443 82.5320889 62.114094 87.0629195 62.114094 91.3590604 65.2864933 91.3590604 68.7596477 101.7263 68.7596477 101.7263 69.2630034"></polyline>
            <path d="M90.3932466,38.411703 C90.3932466,39.2139262 89.7426594,39.8638842 88.9404362,39.8638842 L59.8949245,39.8638842 C59.0927013,39.8638842 58.4427433,39.2139262 58.4427433,38.411703 L58.4427433,20.4400168 C58.4427433,19.6377936 59.0927013,18.9878356 59.8949245,18.9878356 L88.9404362,18.9878356 C89.7426594,18.9878356 90.3932466,19.6377936 90.3932466,20.4400168 L90.3932466,38.411703" id="Fill-2695" fill="#214767"></path>
            <polygon id="Fill-2696" fill="#172F45" points="59.8703859 38.4060403 89.0889262 38.4060403 89.0889262 20.3651426 59.8703859 20.3651426"></polygon>
            <path d="M52.1948406,39.7588087 C52.1759648,39.8871644 52.1652685,40.0199245 52.1652685,40.1552013 C52.1652685,41.3028523 52.8617869,42.232802 53.7200084,42.232802 L95.2393037,42.232802 C96.0975252,42.232802 96.7934144,41.3028523 96.7934144,40.1552013 C96.7934144,40.0199245 96.7833473,39.8871644 96.7645344,39.7588087 L52.1948406,39.7588087" id="Fill-2697" fill="#FFFFFE"></path>
            <path d="M95.2393037,42.232802 L53.7200084,42.232802 C53.7168624,42.232802 53.7143456,42.232802 53.7111997,42.232802 C53.7099413,42.232802 53.7093121,42.232802 53.7086829,42.232802 C53.7061661,42.232802 53.7042785,42.232802 53.7017617,42.232802 C53.7011326,42.232802 53.6998742,42.232802 53.699245,42.232802 C53.696099,42.232802 53.692953,42.232802 53.6904362,42.232802 C53.689807,42.232802 53.689807,42.232802 53.6891779,42.232802 C53.6866611,42.2321728 53.6841443,42.2321728 53.6816275,42.2321728 C53.6803691,42.2321728 53.6791107,42.2321728 53.6784815,42.2321728 C53.6759648,42.2321728 53.6740772,42.2321728 53.6721896,42.2321728 C53.6709312,42.2321728 53.670302,42.2321728 53.6690436,42.2321728 C53.6665268,42.2315436 53.6633809,42.2315436 53.6608641,42.2315436 C53.6596057,42.2315436 53.6589765,42.2315436 53.6577181,42.2315436 C53.6558305,42.2309144 53.653943,42.2309144 53.6520554,42.2309144 C53.650797,42.2309144 53.6495386,42.2309144 53.6482802,42.2309144 C53.6463926,42.2309144 53.644505,42.2302852 53.6432466,42.2302852 C53.6413591,42.2302852 53.6401007,42.2302852 53.6388423,42.2302852 C53.6363255,42.2302852 53.6338087,42.229656 53.6312919,42.229656 C53.6300336,42.229656 53.628146,42.229656 53.6268876,42.2290268 C53.6256292,42.2290268 53.6243708,42.2290268 53.6231124,42.2290268 C53.6212248,42.2290268 53.6193372,42.2283977 53.6180789,42.2283977 C53.6168205,42.2283977 53.6155621,42.2283977 53.6143037,42.2283977 C53.6080117,42.2277685 53.6017198,42.2271393 53.596057,42.2265101 C53.5954279,42.2265101 53.5947987,42.2265101 53.5941695,42.2265101 C53.014052,42.1642198 52.5245386,41.6759648 52.2992869,40.9958054 L96.6606544,40.9958054 C96.4423238,41.6526846 95.977349,42.1315017 95.4223993,42.2183305 C95.4223993,42.2189597 95.4223993,42.2189597 95.4217701,42.2189597 C95.414849,42.2195889 95.4079279,42.2208473 95.4010067,42.2221057 C95.4003775,42.2221057 95.4003775,42.2221057 95.4003775,42.2221057 C95.3984899,42.2221057 95.3966023,42.2227349 95.3940856,42.2227349 C95.3934564,42.2227349 95.3928272,42.2227349 95.3922609,42.2227349 C95.3903104,42.2233641 95.3884228,42.2233641 95.3865352,42.2239933 C95.385906,42.2239933 95.3852768,42.2239933 95.3846477,42.2239933 C95.3808725,42.2246225 95.3770973,42.2246225 95.3739513,42.2252517 C95.372693,42.2252517 95.3714346,42.2252517 95.3708054,42.2258809 C95.3689178,42.2258809 95.3676594,42.2258809 95.3658347,42.2258809 C95.3645134,42.2265101 95.363255,42.2265101 95.3620596,42.2265101 C95.3601091,42.2265101 95.3588507,42.2271393 95.3575923,42.2271393 C95.3550755,42.2271393 95.3519295,42.2277685 95.3494128,42.2277685 C95.3481544,42.2277685 95.3475252,42.2277685 95.3462668,42.2283977 C95.3443792,42.2283977 95.3424916,42.2283977 95.340604,42.2283977 C95.3393456,42.2283977 95.3380872,42.2290268 95.3368289,42.2290268 C95.3349413,42.2290268 95.3330537,42.2290268 95.3311661,42.229656 C95.3305369,42.229656 95.3292785,42.229656 95.3280201,42.229656 C95.3255034,42.229656 95.3223574,42.2302852 95.3198406,42.2302852 C95.3186451,42.2302852 95.317953,42.2302852 95.3166946,42.2302852 C95.31487,42.2302852 95.3129195,42.2309144 95.3104027,42.2309144 C95.3097735,42.2309144 95.3085151,42.2309144 95.3078859,42.2309144 C95.3053691,42.2309144 95.3028523,42.2309144 95.3009648,42.2315436 C95.3003356,42.2315436 95.2990772,42.2315436 95.298448,42.2315436 C95.2959312,42.2315436 95.2928482,42.2315436 95.2896393,42.2321728 C95.2890101,42.2321728 95.2883809,42.2321728 95.2871225,42.2321728 C95.2852349,42.2321728 95.2827181,42.2321728 95.2808305,42.2321728 C95.2795721,42.2321728 95.278943,42.2321728 95.2776846,42.2321728 C95.2751678,42.2321728 95.272651,42.2321728 95.2701342,42.232802 C95.269505,42.232802 95.269505,42.232802 95.2688758,42.232802 C95.2657299,42.232802 95.2632131,42.232802 95.2600671,42.232802 C95.2594379,42.232802 95.2581795,42.232802 95.2575503,42.232802 C95.2550336,42.232802 95.253146,42.232802 95.2506921,42.232802 C95.25,42.232802 95.2487416,42.232802 95.2481124,42.232802 C95.2449664,42.232802 95.2418205,42.232802 95.2393037,42.232802" id="Fill-2700" fill="#E4E3DE"></path>
            <path d="M61.7718121,40.3766779 C61.7718121,40.5364933 61.6428272,40.664849 61.4842701,40.664849 C61.3250839,40.664849 61.196099,40.5364933 61.196099,40.3766779 C61.196099,40.2181208 61.3250839,40.0891359 61.4842701,40.0891359 C61.6428272,40.0891359 61.7718121,40.2181208 61.7718121,40.3766779" id="Fill-2720" fill="#46BBC9"></path>
            <path d="M59.9427433,40.3766779 C59.9427433,40.5364933 59.8137584,40.664849 59.6552013,40.664849 C59.4960151,40.664849 59.3670302,40.5364933 59.3670302,40.3766779 C59.3670302,40.2181208 59.4960151,40.0891359 59.6552013,40.0891359 C59.8137584,40.0891359 59.9427433,40.2181208 59.9427433,40.3766779" id="Fill-2721" fill="#CE82AB"></path>
            <path d="M60.8418624,40.3766779 C60.8418624,40.5364933 60.7135067,40.664849 60.5543205,40.664849 C60.3951342,40.664849 60.2661493,40.5364933 60.2661493,40.3766779 C60.2661493,40.2181208 60.3951342,40.0891359 60.5543205,40.0891359 C60.7135067,40.0891359 60.8418624,40.2181208 60.8418624,40.3766779" id="Fill-2722" fill="#3AAF77"></path>
            <path d="M58.6799497,40.6396812 L56.4362416,40.6396812 C56.2915268,40.6396812 56.1738674,40.5220218 56.1738674,40.3766779 C56.1738674,40.2319631 56.2915268,40.1143037 56.4362416,40.1143037 L58.6799497,40.1143037 C58.8252936,40.1143037 58.9423238,40.2319631 58.9423238,40.3766779 C58.9423238,40.5220218 58.8252936,40.6396812 58.6799497,40.6396812" id="Fill-2723" fill="#464644"></path>
            <path d="M74.479656,20.0958473 C74.2443372,20.0958473 74.0543205,19.9045721 74.0543205,19.6698826 C74.0543205,19.435193 74.2443372,19.2451762 74.479656,19.2451762 C74.7143456,19.2451762 74.9049916,19.435193 74.9049916,19.6698826 C74.9049916,19.9045721 74.7143456,20.0958473 74.479656,20.0958473" id="Fill-2724" fill="#152735"></path>
            <path d="M52.5780201,72.1981963 C52.5780201,72.6486997 52.2124581,73.0142617 51.7619547,73.0142617 L39.5650168,73.0142617 C39.1145134,73.0142617 38.7495805,72.6486997 38.7495805,72.1981963 L38.7495805,49.7692953 C38.7495805,49.3187919 39.1145134,48.9532299 39.5650168,48.9532299 L51.7619547,48.9532299 C52.2124581,48.9532299 52.5780201,49.3187919 52.5780201,49.7692953 L52.5780201,72.1981963" id="Fill-2725" fill="#142633"></path>
            <path d="M40.0249581,68.2562919 L40.0249581,51.8078859 L51.3020134,51.8078859 L51.0931208,51.8078859 L47.9345638,56.3129195 C47.602349,56.0260067 47.1694631,55.852349 46.6956795,55.852349 C45.6493289,55.852349 44.8005453,56.7005034 44.8005453,57.7474832 C44.8005453,58.3401846 45.0729866,58.8699664 45.4995805,59.2172819 C45.5763423,59.2946728 45.6606544,59.3651426 45.75,59.4280621 L40.0249581,67.5924916 L40.0249581,68.2562919 M41.5727768,61.3603188 C41.9068792,61.6541527 42.3447987,61.8322148 42.8248742,61.8322148 C43.8712248,61.8322148 44.7200084,60.9840604 44.7200084,59.9370805 C44.7200084,59.3053691 44.4110738,58.7460151 43.9360319,58.4018456 C43.6019295,58.1073826 43.1633809,57.9286913 42.6833054,57.9286913 C41.6363255,57.9286913 40.7881711,58.7774748 40.7881711,59.8244547 C40.7881711,60.4561661 41.0971057,61.0161493 41.5727768,61.3603188" id="Fill-2726" fill="#CBD1D0"></path>
            <path d="M44.7200084,59.9370805 C44.7200084,60.9840604 43.8712248,61.8322148 42.8248742,61.8322148 C41.7778943,61.8322148 40.9297399,60.9840604 40.9297399,59.9370805 C40.9297399,58.8901007 41.7778943,58.0419463 42.8248742,58.0419463 C43.8712248,58.0419463 44.7200084,58.8901007 44.7200084,59.9370805" id="Fill-2727" fill="#3B3C3A"></path>
            <path d="M44.5784396,59.8244547 C44.5784396,60.8708054 43.729656,61.7189597 42.6833054,61.7189597 C41.6363255,61.7189597 40.7881711,60.8708054 40.7881711,59.8244547 C40.7881711,58.7774748 41.6363255,57.9286913 42.6833054,57.9286913 C43.729656,57.9286913 44.5784396,58.7774748 44.5784396,59.8244547" id="Fill-2728" fill="#E8A82D"></path>
            <path d="M42.6833054,59.2871225 C42.9802852,59.2871225 43.2200084,59.5274748 43.2200084,59.8244547 C43.2200084,60.1208054 42.9802852,60.3611577 42.6833054,60.3611577 C42.3869547,60.3611577 42.1459732,60.1208054 42.1459732,59.8244547 C42.1459732,59.5274748 42.3869547,59.2871225 42.6833054,59.2871225 M42.8229866,58.5704698 L42.5669044,58.5704698 C42.5530621,58.5704698 42.5417366,58.5817953 42.5417366,58.5956376 L42.5417366,58.7277685 C42.3787752,58.7510487 42.2277685,58.8133389 42.0975252,58.9052013 L41.9723154,58.7806208 C41.9628775,58.7705537 41.9471477,58.7705537 41.9370805,58.7806208 L41.7558725,58.9618289 C41.7464346,58.9712668 41.7464346,58.9869966 41.7558725,58.9970638 L41.8754195,59.1153523 C41.7904782,59.2229446 41.7244128,59.346896 41.6822567,59.482802 L41.5104866,59.4519715 C41.4972735,59.4500839 41.4840604,59.4588926 41.4815436,59.4721057 L41.4375,59.7244128 C41.4349832,59.7376258 41.4437919,59.7508389 41.457005,59.7533557 L41.6319211,59.7841862 C41.6312919,59.7973993 41.6312919,59.8106124 41.6312919,59.8244547 C41.6312919,59.9270134 41.644505,60.0270554 41.6696728,60.1214346 L41.5123742,60.1956795 C41.5004195,60.2007131 41.4947567,60.2158138 41.5004195,60.2283977 L41.6086409,60.4599413 C41.6143037,60.4725252 41.6294044,60.4781879 41.6413591,60.4725252 L41.7879614,60.403943 C41.8483641,60.5071309 41.9244966,60.5989933 42.0132131,60.6763842 L41.9402265,60.8022232 C41.9333054,60.8141779 41.9370805,60.8292785 41.9490352,60.8361997 L42.1711409,60.9645554 C42.1824664,60.9714765 42.1981963,60.9670721 42.2051174,60.9557466 L42.2705537,60.8412332 C42.3812919,60.8909396 42.5014681,60.9211409 42.6279362,60.9280621 L42.6386326,61.0545302 C42.6398909,61.0690017 42.6524748,61.0784396 42.6656879,61.0778104 L42.9211409,61.0551594 C42.934354,61.053901 42.9450503,61.0419463 42.9431628,61.028104 L42.9324664,60.8984899 C43.0513842,60.8676594 43.1621225,60.8166946 43.2615352,60.7481124 L43.3559144,60.8607383 C43.3647232,60.8714346 43.380453,60.872693 43.3911493,60.8638842 L43.5868289,60.6990352 C43.5975252,60.6902265 43.5994128,60.6744966 43.590604,60.6638003 L43.4855285,60.5392198 C43.5566275,60.4511326 43.6145134,60.3517198 43.6572987,60.2434983 L43.8322148,60.2906879 C43.8454279,60.2938339 43.8586409,60.2856544 43.8624161,60.2730705 L43.9291107,60.0251678 C43.9322567,60.0119547 43.9247064,59.9981124 43.9114933,59.9949664 L43.7290268,59.9465185 C43.7334312,59.90625 43.7353188,59.8653523 43.7353188,59.8244547 C43.7353188,59.7520973 43.7290268,59.6822567 43.716443,59.6149329 L43.8951342,59.5501258 C43.9077181,59.5450923 43.9146393,59.53125 43.9102349,59.5180369 L43.8221477,59.2770554 C43.8177433,59.2644715 43.8032718,59.2575503 43.7900587,59.2625839 L43.6220638,59.324245 C43.571099,59.2197987 43.5056628,59.1247903 43.4276426,59.0423658 L43.5220218,58.9077181 C43.5295721,58.8963926 43.5270554,58.8806628 43.5157299,58.8731124 L43.3062081,58.7258809 C43.2948826,58.7183305 43.2791527,58.7208473 43.2716023,58.7321728 L43.1866611,58.8529782 C43.0834732,58.7938339 42.9689597,58.7516779 42.8475252,58.7315436 L42.8475252,58.5956376 C42.8475252,58.5817953 42.8361997,58.5704698 42.8229866,58.5704698" id="Fill-2729" fill="#142633"></path>
            <path d="M42.6833054,60.5681628 C42.2724413,60.5681628 41.9389681,60.2353188 41.9389681,59.8244547 C41.9389681,59.4129614 42.2724413,59.0801174 42.6833054,59.0801174 L42.6833054,59.2871225 C42.966443,59.2871225 43.1973574,59.505453 43.21875,59.7829279 C43.1973574,59.505453 42.966443,59.2871225 42.6833054,59.2871225 C42.3869547,59.2871225 42.1459732,59.5274748 42.1459732,59.8244547 C42.1459732,60.1208054 42.3869547,60.3611577 42.6833054,60.3611577 C42.9802852,60.3611577 43.2200084,60.1208054 43.2200084,59.8244547 C43.2200084,60.1208054 42.9802852,60.3611577 42.6833054,60.3611577 L42.6833054,60.5681628" id="Fill-2730" fill="#3A505B"></path>
            <path d="M42.6833054,61.0759228 L42.6833054,60.5681628 C43.0947987,60.5681628 43.4276426,60.2353188 43.4276426,59.8244547 C43.4276426,59.4129614 43.0947987,59.0801174 42.6833054,59.0801174 L42.6833054,58.5704698 L42.8229866,58.5704698 C42.8361997,58.5704698 42.8475252,58.5817953 42.8475252,58.5956376 L42.8475252,58.7315436 C42.9689597,58.7516779 43.0834732,58.7938339 43.1866611,58.8529782 L43.2716023,58.7321728 C43.2766359,58.7252517 43.2841862,58.7214765 43.2917366,58.7214765 C43.2967701,58.7214765 43.3018037,58.7227349 43.3062081,58.7258809 L43.5157299,58.8731124 C43.522651,58.878146 43.5264262,58.8856963 43.5264262,58.8938758 C43.5264262,58.8982802 43.5251678,58.9033138 43.5220218,58.9077181 L43.4276426,59.0423658 C43.5056628,59.1247903 43.571099,59.2197987 43.6220638,59.324245 L43.7900587,59.2625839 C43.7932047,59.2613255 43.7957215,59.2606963 43.7988674,59.2606963 C43.8089346,59.2606963 43.8183725,59.2676174 43.8221477,59.2770554 L43.9102349,59.5180369 C43.9108641,59.5211829 43.9114933,59.5236997 43.9114933,59.5268456 C43.9114933,59.5369128 43.9052013,59.5463507 43.8951342,59.5501258 L43.716443,59.6149329 C43.7290268,59.6822567 43.7353188,59.7520973 43.7353188,59.8244547 C43.7353188,59.8653523 43.7334312,59.90625 43.7290268,59.9465185 L43.9114933,59.9949664 C43.9228188,59.9981124 43.9297399,60.0081795 43.9297399,60.019505 C43.9297399,60.0213926 43.9291107,60.0232802 43.9291107,60.0251678 L43.8624161,60.2730705 C43.8592701,60.2837668 43.849203,60.2913171 43.8385067,60.2913171 C43.8366191,60.2913171 43.8341023,60.2906879 43.8322148,60.2906879 L43.6572987,60.2434983 C43.6145134,60.3517198 43.5566275,60.4511326 43.4855285,60.5392198 L43.590604,60.6638003 C43.5943792,60.6688339 43.5962668,60.6744966 43.5962668,60.6801594 C43.5962668,60.6870805 43.5931208,60.6940017 43.5868289,60.6990352 L43.3911493,60.8638842 C43.3861158,60.8676594 43.3810822,60.869547 43.3754195,60.869547 C43.3678691,60.869547 43.360948,60.866401 43.3559144,60.8607383 L43.2615352,60.7481124 C43.1621225,60.8166946 43.0513842,60.8676594 42.9324664,60.8984899 L42.9431628,61.028104 C42.9437919,61.0293624 42.9437919,61.0299916 42.9437919,61.0306208 C42.9437919,61.0438339 42.9337248,61.053901 42.9211409,61.0551594 L42.6833054,61.0759228" id="Fill-2731" fill="#233A48"></path>
            <path d="M42.6833054,60.5681628 L42.6833054,60.3611577 C42.9802852,60.3611577 43.2200084,60.1208054 43.2200084,59.8244547 C43.2200084,59.8099832 43.2200084,59.7967701 43.21875,59.7829279 C43.1973574,59.505453 42.966443,59.2871225 42.6833054,59.2871225 L42.6833054,59.0801174 C43.0947987,59.0801174 43.4276426,59.4129614 43.4276426,59.8244547 C43.4276426,60.2353188 43.0947987,60.5681628 42.6833054,60.5681628" id="Fill-2732" fill="#4E626B"></path>
            <path d="M48.7361577,57.8783557 C48.7361577,58.9247064 47.8873742,59.7734899 46.8403943,59.7734899 C45.7940436,59.7734899 44.9452601,58.9247064 44.9452601,57.8783557 C44.9452601,56.8313758 45.7940436,55.9825923 46.8403943,55.9825923 C47.8873742,55.9825923 48.7361577,56.8313758 48.7361577,57.8783557" id="Fill-2733" fill="#3B3C3A"></path>
            <path d="M48.5908138,57.7474832 C48.5908138,58.7938339 47.7426594,59.6426174 46.6956795,59.6426174 C45.6493289,59.6426174 44.8005453,58.7938339 44.8005453,57.7474832 C44.8005453,56.7005034 45.6493289,55.852349 46.6956795,55.852349 C47.7426594,55.852349 48.5908138,56.7005034 48.5908138,57.7474832" id="Fill-2734" fill="#CFEBF2"></path>
            <path d="M47.4815436,56.9364513 C47.4815436,56.9364513 46.3735319,56.6495386 45.7443372,57.6675755 L45.9614094,57.982802 L46.1791107,58.2986577 C47.3544463,58.0740352 47.4815436,56.9364513 47.4815436,56.9364513" id="Fill-2735" fill="#E15E2E"></path>
            <polyline id="Fill-2740" fill="#FBE956" points="46.7214765 57.9507131 46.4880453 58.5956376 46.1935822 58.1331795 46.7214765 57.9507131"></polyline>
            <path d="M46.1791107,58.2986577 L46.1778523,58.2973993 L46.0016779,58.0419463 L45.9771393,58.0060822 L45.9733641,57.9997903 L45.9576342,57.9771393 L47.2399329,57.0943792 L47.3122903,57.2000839 L46.6572987,58.1338087 C46.6566695,58.1344379 46.6554111,58.1350671 46.6547819,58.1350671 L46.7214765,57.9507131 L46.1935822,58.1331795 L46.2841862,58.2753775 C46.2502097,58.2841862 46.2149748,58.2917366 46.1791107,58.2986577" id="Fill-2746" fill="#BB4E2D"></path>
            <path d="M46.4144295,58.4798658 L46.1935822,58.1331795 L46.7214765,57.9507131 L46.6547819,58.1350671 C46.6541527,58.1350671 46.6541527,58.1350671 46.6541527,58.1356963 L46.6522651,58.1413591 L46.4144295,58.4798658" id="Fill-2755" fill="#C3B445"></path>
            <path d="M46.8957634,56.5199245 C46.8787752,56.5199245 46.8624161,56.5218121 46.8473154,56.5255872 C46.7976091,56.3154362 46.6352768,56.1606544 46.4433725,56.1606544 C46.3011745,56.1606544 46.1759648,56.2443372 46.0998322,56.372693 C46.0513842,56.3494128 45.9972735,56.3355705 45.9400168,56.3355705 C45.7399329,56.3355705 45.5788591,56.4960151 45.5788591,56.692953 C45.5788591,56.7212668 45.582005,56.7489513 45.588297,56.7747483 L47.1002517,56.7747483 C47.1033977,56.7596477 47.1052852,56.7439178 47.1052852,56.7275587 C47.1052852,56.6124161 47.0115352,56.5199245 46.8957634,56.5199245" id="Fill-2763" fill="#454542"></path>
            <path d="M46.7957215,56.5199245 C46.7787332,56.5199245 46.7623742,56.5218121 46.7466443,56.5255872 C46.6975671,56.3154362 46.5352349,56.1606544 46.3427013,56.1606544 C46.2005034,56.1606544 46.0752936,56.2443372 45.9991611,56.372693 C45.9513423,56.3494128 45.8966023,56.3355705 45.8393456,56.3355705 C45.6398909,56.3355705 45.4781879,56.4960151 45.4781879,56.692953 C45.4781879,56.7212668 45.4813339,56.7489513 45.4876258,56.7747483 L46.9995805,56.7747483 C47.0033557,56.7596477 47.0052433,56.7439178 47.0052433,56.7275587 C47.0052433,56.6124161 46.9108641,56.5199245 46.7957215,56.5199245" id="Fill-2764" fill="#72C7D7"></path>
            <path d="M46.9995805,56.7747483 L46.3250839,56.7747483 L46.3250839,56.1612836 C46.3307466,56.1606544 46.3370386,56.1606544 46.3427013,56.1606544 C46.5352349,56.1606544 46.6975671,56.3154362 46.7466443,56.5255872 C46.7623742,56.5218121 46.7787332,56.5199245 46.7957215,56.5199245 C46.9108641,56.5199245 47.0052433,56.6124161 47.0052433,56.7275587 C47.0052433,56.7439178 47.0033557,56.7596477 46.9995805,56.7747483" id="Fill-2765" fill="#589FAC"></path>
            <path d="M48.3221477,58.0274748 C48.3076762,58.0274748 48.2938339,58.0293624 48.2806208,58.0318792 C48.2378356,57.8513003 48.0987836,57.7191695 47.9333054,57.7191695 C47.8118708,57.7191695 47.7042785,57.7908977 47.6388423,57.9010067 C47.5973154,57.8808725 47.550755,57.869547 47.5016779,57.869547 C47.3305369,57.869547 47.1914849,58.0067114 47.1914849,58.1759648 C47.1914849,58.1998742 47.1946309,58.2231544 47.1996644,58.2464346 L48.497693,58.2464346 C48.5002097,58.2332215 48.5020973,58.2193792 48.5020973,58.2055369 C48.5020973,58.1067534 48.4215604,58.0274748 48.3221477,58.0274748" id="Fill-2766" fill="#454542"></path>
            <path d="M48.235948,58.0274748 C48.2214765,58.0274748 48.2076342,58.0293624 48.1944211,58.0318792 C48.1516359,57.8513003 48.0125839,57.7191695 47.8477349,57.7191695 C47.7256711,57.7191695 47.6180789,57.7908977 47.5532718,57.9010067 C47.5111158,57.8808725 47.4651846,57.869547 47.4154782,57.869547 C47.2443372,57.869547 47.1052852,58.0067114 47.1052852,58.1759648 C47.1052852,58.1998742 47.1084312,58.2231544 47.1134648,58.2464346 L48.4108641,58.2464346 C48.4140101,58.2332215 48.4158977,58.2193792 48.4158977,58.2055369 C48.4158977,58.1067534 48.3353607,58.0274748 48.235948,58.0274748" id="Fill-2767" fill="#72C7D7"></path>
            <path d="M48.1893876,62.4186242 C48.1893876,63.465604 47.3412332,64.3143876 46.2942534,64.3143876 C45.2479027,64.3143876 44.3991191,63.465604 44.3991191,62.4186242 C44.3991191,61.3722735 45.2479027,60.5234899 46.2942534,60.5234899 C47.3412332,60.5234899 48.1893876,61.3722735 48.1893876,62.4186242" id="Fill-2768" fill="#3B3C3A"></path>
            <path d="M48.0283138,62.3097735 C48.0283138,63.3561242 47.1801594,64.2049077 46.1331795,64.2049077 C45.0861997,64.2049077 44.2380453,63.3561242 44.2380453,62.3097735 C44.2380453,61.2627936 45.0861997,60.4140101 46.1331795,60.4140101 C47.1801594,60.4140101 48.0283138,61.2627936 48.0283138,62.3097735" id="Fill-2769" fill="#E2614E"></path>
            <path d="M46.1375839,61.875 C46.0752936,61.8731124 45.5278943,61.8775168 45.5272651,62.4916107 C45.5266359,62.7332215 45.8613674,63.2340604 45.8613674,63.2340604 L46.4138003,63.2340604 C46.4138003,63.2340604 46.7479027,62.7332215 46.7479027,62.4916107 C46.7466443,61.8775168 46.199245,61.8731124 46.1375839,61.875" id="Fill-2770" fill="#FCEF67"></path>
            <polyline id="Fill-2773" fill="#FCEF67" points="45.2007131 61.3508809 45.2195889 61.3338926 45.7348993 61.8580117 45.7153943 61.875 45.2007131 61.3508809"></polyline>
            <polyline id="Fill-2776" fill="#FCEF67" points="47.0146812 61.3508809 46.9958054 61.3338926 46.480495 61.8580117 46.4993708 61.875 47.0146812 61.3508809"></polyline>
            <path d="M51.3020134,68.2562919 L40.0249581,68.2562919 L40.0249581,67.5924916 L45.75,59.4280621 C46.0583054,59.6457634 46.4345638,59.7734899 46.8403943,59.7734899 C47.8873742,59.7734899 48.7361577,58.9247064 48.7361577,57.8783557 C48.7361577,57.284396 48.4630872,56.7546141 48.0358641,56.4066695 C48.003146,56.3745805 47.9691695,56.3431208 47.9345638,56.3129195 L51.0931208,51.8078859 L51.3020134,51.8078859 L51.3020134,68.2562919 M45.1516359,63.9312081 C45.4693792,64.1715604 45.8651426,64.3143876 46.2942534,64.3143876 C47.3412332,64.3143876 48.1893876,63.465604 48.1893876,62.4186242 C48.1893876,61.7315436 47.8231963,61.1294044 47.275797,60.7971896 C46.9580537,60.5568372 46.5622903,60.4140101 46.1331795,60.4140101 C45.0861997,60.4140101 44.2380453,61.2627936 44.2380453,62.3097735 C44.2380453,62.996854 44.6042366,63.5989933 45.1516359,63.9312081" id="Fill-2780" fill="#B3B9B9"></path>
            <path d="M46.8403943,59.7734899 C46.4345638,59.7734899 46.0583054,59.6457634 45.75,59.4280621 L45.7688758,59.4010067 C46.0432047,59.5545302 46.3590604,59.6426174 46.6956795,59.6426174 C47.7426594,59.6426174 48.5908138,58.7938339 48.5908138,57.7474832 C48.5908138,57.2239933 48.3787752,56.7502097 48.0358641,56.4066695 C48.4630872,56.7546141 48.7361577,57.284396 48.7361577,57.8783557 C48.7361577,58.9247064 47.8873742,59.7734899 46.8403943,59.7734899" id="Fill-2781" fill="#353633"></path>
            <path d="M46.6956795,59.6426174 C46.3590604,59.6426174 46.0432047,59.5545302 45.7688758,59.4010067 L46.121854,58.8982802 L46.6591862,58.8982802 C46.661703,58.8875839 46.6629614,58.8775168 46.6629614,58.8661913 C46.6629614,58.7906879 46.6006711,58.7290268 46.5239094,58.7290268 C46.5125839,58.7290268 46.5018876,58.7302852 46.4918205,58.732802 C46.4729446,58.6528943 46.4295302,58.5849413 46.3716443,58.5415268 L46.4144295,58.4798658 L46.4880453,58.5956376 L46.6522651,58.1407299 L46.6572987,58.1338087 C47.3091443,57.7890101 47.4532299,57.1119966 47.4771393,56.9647651 L47.9345638,56.3129195 C47.9691695,56.3431208 48.003146,56.3745805 48.0358641,56.4066695 C48.3787752,56.7502097 48.5908138,57.2239933 48.5908138,57.7474832 C48.5908138,58.7938339 47.7426594,59.6426174 46.6956795,59.6426174 M48.4108641,58.2464346 L48.497693,58.2464346 C48.5002097,58.2332215 48.5020973,58.2193792 48.5020973,58.2055369 C48.5020973,58.1067534 48.4215604,58.0274748 48.3221477,58.0274748 C48.3076762,58.0274748 48.2938339,58.0293624 48.2806208,58.0318792 C48.2378356,57.8513003 48.0987836,57.7191695 47.9333054,57.7191695 C47.9188339,57.7191695 47.9043624,57.7197987 47.8905201,57.7223154 C47.8766779,57.7197987 47.8622064,57.7191695 47.8477349,57.7191695 C47.7351091,57.7191695 47.6344379,57.7802013 47.5683725,57.8764681 C47.5469799,57.8720638 47.5243289,57.869547 47.5016779,57.869547 C47.4872064,57.869547 47.4727349,57.8708054 47.4582634,57.872693 C47.4444211,57.8708054 47.4299497,57.869547 47.4154782,57.869547 C47.2443372,57.869547 47.1052852,58.0067114 47.1052852,58.1759648 C47.1052852,58.1998742 47.1084312,58.2231544 47.1134648,58.2464346 L48.4108641,58.2464346" id="Fill-2782" fill="#B9D1D7"></path>
            <path d="M46.6572987,58.1338087 C47.0687919,57.9161074 47.2776846,57.5662752 47.3821309,57.300755 C47.4431628,57.1459732 47.4683305,57.0188758 47.4771393,56.9647651 C47.4532299,57.1119966 47.3091443,57.7890101 46.6572987,58.1338087" id="Fill-2783" fill="#D4562B"></path>
            <path d="M46.6572987,58.1338087 L47.3122903,57.2000839 L47.3821309,57.300755 C47.2776846,57.5662752 47.0687919,57.9161074 46.6572987,58.1338087" id="Fill-2786" fill="#A6472C"></path>
            <path d="M48.497693,58.2464346 L48.4108641,58.2464346 C48.4140101,58.2332215 48.4158977,58.2193792 48.4158977,58.2055369 C48.4158977,58.1067534 48.3353607,58.0274748 48.235948,58.0274748 C48.2214765,58.0274748 48.2076342,58.0293624 48.1944211,58.0318792 C48.1554111,57.8676594 48.0364933,57.7430789 47.8905201,57.7223154 C47.9043624,57.7197987 47.9188339,57.7191695 47.9333054,57.7191695 C48.0987836,57.7191695 48.2378356,57.8513003 48.2806208,58.0318792 C48.2938339,58.0293624 48.3076762,58.0274748 48.3221477,58.0274748 C48.4215604,58.0274748 48.5020973,58.1067534 48.5020973,58.2055369 C48.5020973,58.2193792 48.5002097,58.2332215 48.497693,58.2464346 M47.5532718,57.919547 C47.5236997,57.897547 47.4922399,57.881547 47.4582634,57.874547 C47.4727349,57.871547 47.4872064,57.869547 47.5016779,57.869547 C47.5243289,57.869547 47.5469799,57.873547 47.5683725,57.880547 C47.5633389,57.893547 47.5576762,57.906547 47.5532718,57.919547" id="Fill-2792" fill="#3D3E3B"></path>
            <path d="M47.832005,58.2464346 L47.1134648,58.2464346 C47.1084312,58.2231544 47.1052852,58.1998742 47.1052852,58.1759648 C47.1052852,58.0067114 47.2443372,57.869547 47.4154782,57.869547 C47.4299497,57.869547 47.4444211,57.8708054 47.4582634,57.872693 C47.4922399,57.8770973 47.5236997,57.8871644 47.5532718,57.9010067 C47.5576762,57.8928272 47.5633389,57.8846477 47.5683725,57.8764681 C47.6344379,57.7802013 47.7351091,57.7191695 47.8477349,57.7191695 C47.8622064,57.7191695 47.8766779,57.7197987 47.8905201,57.7223154 C48.0364933,57.7430789 48.1554111,57.8676594 48.1944211,58.0318792 C48.2076342,58.0293624 48.2214765,58.0274748 48.235948,58.0274748 C48.3353607,58.0274748 48.4158977,58.1067534 48.4158977,58.2055369 C48.4158977,58.1067534 48.3353607,58.0274748 48.235948,58.0274748 C48.2214765,58.0274748 48.2076342,58.0293624 48.1944211,58.0318792 C48.1516359,57.8513003 48.0125839,57.7191695 47.8477349,57.7191695 L47.832005,57.7197987 L47.832005,58.2464346" id="Fill-2793" fill="#64B6C3"></path>
            <path d="M48.4108641,58.2464346 L47.832005,58.2464346 L47.832005,57.7197987 L47.8477349,57.7191695 C48.0125839,57.7191695 48.1516359,57.8513003 48.1944211,58.0318792 C48.2076342,58.0293624 48.2214765,58.0274748 48.235948,58.0274748 C48.3353607,58.0274748 48.4158977,58.1067534 48.4158977,58.2055369 C48.4158977,58.2193792 48.4140101,58.2332215 48.4108641,58.2464346" id="Fill-2794" fill="#4E8E99"></path>
            <path d="M46.2942534,64.3143876 C45.8651426,64.3143876 45.4693792,64.1715604 45.1516359,63.9312081 C45.4379195,64.1048658 45.7739094,64.2049077 46.1331795,64.2049077 C47.1801594,64.2049077 48.0283138,63.3561242 48.0283138,62.3097735 C48.0283138,61.6919044 47.7332215,61.1432466 47.275797,60.7971896 C47.8231963,61.1294044 48.1893876,61.7315436 48.1893876,62.4186242 C48.1893876,63.465604 47.3412332,64.3143876 46.2942534,64.3143876" id="Fill-2795" fill="#353633"></path>
            <path d="M46.1331795,64.2049077 C45.7739094,64.2049077 45.4379195,64.1048658 45.1516359,63.9312081 C44.6042366,63.5989933 44.2380453,62.996854 44.2380453,62.3097735 C44.2380453,61.2627936 45.0861997,60.4140101 46.1331795,60.4140101 C46.5622903,60.4140101 46.9580537,60.5568372 47.275797,60.7971896 C47.7332215,61.1432466 48.0283138,61.6919044 48.0283138,62.3097735 C48.0283138,63.3561242 47.1801594,64.2049077 46.1331795,64.2049077 M45.866401,63.5530621 C45.8764681,63.5776007 45.8997483,63.5952181 45.9268037,63.5952181 L46.3477349,63.5952181 C46.3747903,63.5952181 46.3980705,63.5776007 46.4081376,63.5530621 C46.4112836,63.5499161 46.4138003,63.5455117 46.4138003,63.5404782 C46.4138003,63.5385906 46.4131711,63.5373322 46.4131711,63.5354446 C46.4131711,63.5322987 46.4138003,63.5291527 46.4138003,63.5253775 L46.4138003,63.2346896 C46.4138003,63.2346896 46.7479027,62.7344799 46.7479027,62.4922399 C46.7479027,62.4922399 46.7479027,62.4922399 46.7479027,62.4916107 C46.7466443,61.903943 46.2458054,61.875 46.1482802,61.875 C46.1438758,61.875 46.1401007,61.875 46.1375839,61.875 C46.1350671,61.875 46.1312919,61.875 46.1268876,61.875 C46.0293624,61.875 45.5278943,61.903943 45.5272651,62.4916107 C45.5266359,62.7332215 45.8613674,63.2340604 45.8613674,63.2340604 L46.0809564,63.2340604 L45.8613674,63.2340604 L45.8613674,63.5253775 C45.8613674,63.5291527 45.8613674,63.5322987 45.8619966,63.5354446 C45.8613674,63.5373322 45.8613674,63.5385906 45.8613674,63.5404782 C45.8613674,63.5455117 45.863255,63.5499161 45.866401,63.5530621 M45.3995386,62.6237416 L44.667156,62.7659396 L44.6728188,62.7911074 L45.4052013,62.6482802 L45.3995386,62.6237416 M46.846057,62.5652265 L46.8403943,62.5897651 L47.573406,62.7319631 L47.5784396,62.7074245 L46.846057,62.5652265 M47.6199664,62.1040268 L46.8787752,62.1996644 L46.8825503,62.224203 L47.6237416,62.1285654 L47.6199664,62.1040268 M44.6463926,62.065646 L44.6426174,62.0901846 L45.3844379,62.185193 L45.3875839,62.1606544 L44.6463926,62.065646 M46.9958054,61.3338926 L46.480495,61.8580117 L46.4993708,61.875 L47.0146812,61.3508809 L46.9958054,61.3338926 M45.2195889,61.3338926 L45.2007131,61.3508809 L45.7153943,61.875 L45.7348993,61.8580117 L45.2195889,61.3338926 M46.1563037,61.0243289 L46.1143037,61.0243289 L46.1363037,61.7353188 L46.1783037,61.7346896 L46.1563037,61.0243289" id="Fill-2796" fill="#CF5746"></path>
            <path d="M46.2948826,63.2340604 L46.2288171,63.2340604 C46.2225252,63.1988255 46.2061661,63.09375 46.2049077,62.9244966 C46.2036493,62.8452181 46.2124581,62.8030621 46.2225252,62.7804111 C46.2502097,62.7709732 46.2659396,62.7552433 46.267198,62.7539849 L46.2753775,62.7458054 L46.2653104,62.7401426 C46.2621644,62.7388842 46.2571309,62.7369966 46.2508389,62.7369966 C46.244547,62.7369966 46.238255,62.738255 46.2313339,62.7426594 C46.2237836,62.7470638 46.2162332,62.7552433 46.2105705,62.7659396 C46.2017617,62.7684564 46.1910654,62.770344 46.1797399,62.770344 C46.173448,62.770344 46.1665268,62.7697148 46.1589765,62.7684564 C46.1514262,62.7665688 46.1457634,62.764052 46.1419883,62.7596477 C46.1470218,62.7533557 46.1501678,62.7464346 46.1526846,62.738255 C46.1570889,62.721896 46.1564597,62.7137164 46.1501678,62.7093121 L46.1369547,62.7093121 C46.128146,62.7149748 46.1180789,62.7357383 46.1212248,62.7552433 L46.121854,62.7558725 C46.1161913,62.7602768 46.1086409,62.7646812 46.1004614,62.7678272 C46.0885067,62.7722315 46.0752936,62.7747483 46.0633389,62.7760067 C46.0482383,62.7590185 46.0362836,62.7533557 46.0268456,62.7533557 C46.0236997,62.7533557 46.0211829,62.7539849 46.0186661,62.7552433 C46.008599,62.7590185 46.0035654,62.7697148 46.005453,62.7778943 C46.005453,62.7816695 46.0073406,62.7917366 46.0432047,62.792995 L46.0557886,62.792995 C46.0595638,62.7980285 46.0633389,62.8036913 46.0677433,62.8099832 C46.0998322,62.8596896 46.0891359,63.1208054 46.0809564,63.2340604 L45.8613674,63.2340604 C45.8613674,63.2340604 45.5266359,62.7332215 45.5272651,62.4916107 C45.5278943,61.903943 46.0293624,61.875 46.1268876,61.875 C46.1312919,61.875 46.1350671,61.875 46.1375839,61.875 C46.1401007,61.875 46.1438758,61.875 46.1482802,61.875 C46.2458054,61.875 46.7466443,61.903943 46.7479027,62.4916107 C46.7472735,62.0725671 46.4911913,61.9379195 46.309354,61.8951342 C46.3968121,62.0908138 46.6019295,62.6665268 46.2948826,63.2340604 M45.7802013,62.3418624 C45.7663591,62.3418624 45.7506292,62.3443792 45.7355285,62.3494128 C45.6858221,62.3670302 45.6549916,62.4072987 45.6663171,62.4400168 C45.6744966,62.4626678 45.7009228,62.4758809 45.7323826,62.4758809 C45.746854,62.4758809 45.7619547,62.4727349 45.7770554,62.4677013 C45.8267617,62.4500839 45.8575923,62.4091862 45.8456376,62.3770973 C45.8380872,62.3544463 45.8116611,62.3418624 45.7802013,62.3418624 M45.9261745,62.0348154 C45.8991191,62.0348154 45.869547,62.039849 45.8399748,62.0499161 C45.7443372,62.0838926 45.685193,62.1619128 45.7072148,62.2254614 C45.7223154,62.2682466 45.772651,62.2934144 45.8343121,62.2934144 C45.8613674,62.2934144 45.8909396,62.2883809 45.9198826,62.2776846 C46.0161493,62.2443372 46.0752936,62.1663171 46.0532718,62.1033977 C46.0375419,62.0599832 45.9872064,62.0348154 45.9261745,62.0348154 M46.2111997,63.2340604 L46.0985738,63.2340604 C46.1029782,63.1610738 46.1212248,62.860948 46.0822148,62.8005453 L46.076552,62.7917366 C46.096057,62.7892198 46.1149329,62.7829279 46.1294044,62.7722315 C46.1350671,62.7778943 46.1432466,62.7829279 46.1564597,62.7848154 C46.1646393,62.786703 46.1728188,62.7873322 46.1809983,62.7873322 C46.1885487,62.7873322 46.1954698,62.786703 46.2023909,62.7854446 C46.1916946,62.8169044 46.1866611,62.8634648 46.1872903,62.9244966 C46.1891779,63.0899748 46.2042785,63.1950503 46.2111997,63.2340604 M46.0470705,62.7789732 C46.0370705,62.7769732 46.0280705,62.7759732 46.0230705,62.7739732 L46.0260705,62.7709732 C46.0270705,62.7709732 46.0280705,62.7709732 46.0290705,62.7709732 C46.0330705,62.7709732 46.0390705,62.7729732 46.0470705,62.7789732" id="Fill-2797" fill="#DFD55C"></path>
            <polyline id="Fill-2814" fill="#DFD55C" points="45.7153943 61.875 45.2007131 61.3508809 45.2195889 61.3338926 45.7348993 61.8580117 45.7153943 61.875"></polyline>
            <polyline id="Fill-2817" fill="#DFD55C" points="46.4993708 61.875 46.480495 61.8580117 46.9958054 61.3338926 47.0146812 61.3508809 46.4993708 61.875"></polyline>
            <path d="M78.0591443,58.7044883 C78.0591443,61.7290268 75.6071728,64.1809983 72.582005,64.1809983 C69.5574664,64.1809983 67.1048658,61.7290268 67.1048658,58.7044883 C67.1048658,55.6793205 69.5574664,53.227349 72.582005,53.227349 C75.6071728,53.227349 78.0591443,55.6793205 78.0591443,58.7044883" id="Fill-2821" fill="#142633"></path>
            <path d="M76.6497483,58.7044883 C76.6497483,60.9507131 74.8288591,62.7722315 72.582005,62.7722315 C70.335151,62.7722315 68.5142617,60.9507131 68.5142617,58.7044883 C68.5142617,56.4582634 70.335151,54.636745 72.582005,54.636745 C74.8288591,54.636745 76.6497483,56.4582634 76.6497483,58.7044883" id="Fill-2822" fill="#B4B4B0"></path>
            <path d="M75.2994966,58.7044883 C75.2994966,60.2051174 74.0826342,61.4213507 72.582005,61.4213507 C71.0813758,61.4213507 69.8645134,60.2051174 69.8645134,58.7044883 C69.8645134,57.2032299 71.0813758,55.9869966 72.582005,55.9869966 C74.0826342,55.9869966 75.2994966,57.2032299 75.2994966,58.7044883" id="Fill-2823" fill="#142633"></path>
            <path d="M66.6650587,71.9521812 L66.7191695,80.0266359 C66.7191695,80.0266359 70.2149748,83.5671141 71.2713926,85.4370805 C72.3284396,87.3064178 74.278943,88.0381711 74.3601091,88.0381711 C74.4419044,88.0381711 85.9033138,88.0381711 85.9033138,88.0381711 C85.9033138,88.0381711 88.7479027,87.2252517 88.829698,83.3229866 L88.829698,70.073406 C88.829698,70.073406 87.0950084,66.75 85.4150587,70.073406 L84.3586409,70.073406 L84.3586409,68.0417366 C84.3586409,68.0417366 82.3263423,64.8712248 80.5381711,68.0417366 L80.5381711,69.9110738 L79.4811242,69.9110738 L79.4811242,66.6323406 C79.4811242,66.6323406 77.4494547,63.1101091 75.7424497,66.6323406 L75.7424497,69.9110738 L74.6042366,69.9110738 L74.6042366,59.9937081 C74.6042366,59.9937081 72.8154362,56.1738674 71.0272651,59.9937081 L71.0272651,79.5119547 C71.0272651,79.5119547 70.525797,79.0243289 70.2011326,77.886745 L69.889052,74.0562081 C69.889052,74.0562081 68.9408557,70.1438758 66.6650587,71.9521812" id="Fill-2824" fill="#F0B34C"></path>
            <path d="M71.0272651,79.7466443 L71.0272651,59.9937081 C71.4412752,59.1096896 71.854656,58.6384228 72.2466443,58.4307886 L72.2466443,59.1977768 C71.928901,59.4223993 71.715604,59.8357802 71.715604,60.3083054 L72.2466443,60.3083054 L72.2466443,79.7013423 L71.0272651,79.7466443" id="Fill-2825" fill="#D5A042"></path>
            <path d="M76.1275168,70.4081376 L74.3462668,70.4081376 L74.3462668,59.5350252 C74.5098574,59.7936242 74.6029782,59.9905621 74.6042366,59.9937081 L74.6042366,69.9110738 L75.7424497,69.9110738 L75.7424497,66.6323406 C75.7487416,66.6191275 75.7550336,66.6059144 75.7613255,66.5933305 C75.7625839,66.5901846 75.7644715,66.5876678 75.7657299,66.5845218 C75.7657299,66.5838926 75.7657299,66.5838926 75.7663591,66.5832634 C75.8852768,66.3429111 76.0060822,66.1396812 76.1275168,65.9628775 L76.1275168,70.4081376" id="Fill-2827" fill="#D5A042"></path>
            <path d="M80.5381711,68.0673221 C80.5511711,68.0433221 80.5641711,68.0213221 80.5771711,67.9983221 C80.5641711,68.0213221 80.5511711,68.0443221 80.5381711,68.0673221" id="Fill-2828" fill="#3A6B85"></path>
            <path d="M80.7879614,70.1438758 L79.0966862,70.1438758 L79.0966862,66.0874581 C79.3357802,66.3819211 79.4786074,66.627307 79.4811242,66.6323406 L79.4811242,69.9110738 L80.5381711,69.9110738 L80.5381711,68.0417366 C80.5463507,68.0272651 80.5545302,68.0127936 80.5627097,67.9983221 C80.6375839,67.8687081 80.7130872,67.7529362 80.7879614,67.6440856 L80.7879614,70.1438758" id="Fill-2829" fill="#D5A042"></path>
            <path d="M85.4150587,70.0922399 C85.4370587,70.0589066 85.4600587,70.0255733 85.4820587,69.9922399 C85.4600587,70.0255733 85.4380587,70.0589066 85.4150587,70.0922399 M84.0412013,67.6281426 C84.0372013,67.6241426 84.0332013,67.6191426 84.0302013,67.6151426 C84.0332013,67.6191426 84.0372013,67.6241426 84.0412013,67.6281426" id="Fill-2830" fill="#3A6B85"></path>
            <path d="M85.7674077,70.4081376 L84.0302013,70.4081376 L84.0302013,67.6151426 C84.0320889,67.6176594 84.0346057,67.6208054 84.0371225,67.6233221 C84.2403523,67.8580117 84.3586409,68.0417366 84.3586409,68.0417366 L84.3586409,70.073406 L85.4150587,70.073406 C85.4295302,70.0463507 85.4433725,70.0192953 85.4572148,69.9922399 C85.5604027,69.795302 85.6642198,69.6247903 85.7674077,69.4744128 L85.7674077,70.4081376" id="Fill-2831" fill="#D5A042"></path>
            <path d="M67.3961829,74.1877097 L66.6801594,74.1877097 L66.6669463,72.1963087 C66.6807886,72.1994547 67.3162752,72.329698 67.3961829,73.3345218 L67.3961829,74.1877097" id="Fill-2833" fill="#F7D18C"></path>
            <path d="M73.8800336,60.3083054 L72.2466443,60.3083054 L72.2466443,59.1977768 C72.4083473,59.0838926 72.5964765,59.0184564 72.7978188,59.0184564 C73.3955537,59.0184564 73.8800336,59.5954279 73.8800336,60.3083054" id="Fill-2834" fill="#F9D99F"></path>
            <path d="M72.2466443,60.3083054 L71.715604,60.3083054 C71.715604,59.8357802 71.928901,59.4223993 72.2466443,59.1977768 L72.2466443,60.3083054" id="Fill-2835" fill="#EDCF9A"></path>
            <path d="M101.439388,57.8368289 C101.439388,61.5629195 98.4186242,64.5843121 94.6919044,64.5843121 C90.9658138,64.5843121 87.9450503,61.5629195 87.9450503,57.8368289 C87.9450503,54.1101091 90.9658138,51.0893456 94.6919044,51.0893456 C98.4186242,51.0893456 101.439388,54.1101091 101.439388,57.8368289" id="Fill-2836" fill="#3B3C3A"></path>
            <path d="M100.936032,57.4341443 C100.936032,61.1602349 97.9146393,64.1809983 94.1885487,64.1809983 C90.4618289,64.1809983 87.4410654,61.1602349 87.4410654,57.4341443 C87.4410654,53.7074245 90.4618289,50.6866611 94.1885487,50.6866611 C97.9146393,50.6866611 100.936032,53.7074245 100.936032,57.4341443" id="Fill-2837" fill="#E8A82D"></path>
            <path d="M94.1885487,55.5220218 C95.2449664,55.5220218 96.1006711,56.3777265 96.1006711,57.4341443 C96.1006711,58.4899329 95.2449664,59.346896 94.1885487,59.346896 C93.1327601,59.346896 92.275797,58.4899329 92.275797,57.4341443 C92.275797,56.3777265 93.1327601,55.5220218 94.1885487,55.5220218 M94.6849832,52.9712668 L93.7739094,52.9712668 C93.7248322,52.9712668 93.6858221,53.010906 93.6858221,53.059354 L93.6858221,53.5325084 C93.1050755,53.6149329 92.5671141,53.8364094 92.1027685,54.1642198 L91.6572987,53.71875 C91.622693,53.6847735 91.5673238,53.6847735 91.5320889,53.71875 L90.8871644,54.3636745 C90.8531879,54.397651 90.8531879,54.4536493 90.8871644,54.488255 L91.3118708,54.9129614 C91.0098574,55.2942534 90.7751678,55.7353188 90.6254195,56.2185403 L90.0132131,56.1096896 C89.9654572,56.1015101 89.9200923,56.133599 89.9106544,56.1814178 L89.7533557,57.0799077 C89.7439178,57.1270973 89.7760067,57.1736577 89.8238884,57.1824664 L90.4454698,57.2913171 C90.4448406,57.3391359 90.4435822,57.3863255 90.4435822,57.4341443 C90.4435822,57.801594 90.491401,58.1564597 90.5801174,58.4930789 L90.0201342,58.755453 C89.9767198,58.7755872 89.9572148,58.8278104 89.977349,58.8724832 L90.3630453,59.6986158 C90.3831795,59.7426594 90.4360319,59.7621644 90.4800755,59.7420302 L90.9997903,59.4997903 C91.215604,59.8666107 91.4874161,60.1944211 91.8032718,60.4674916 L91.5427852,60.917995 C91.5188758,60.9595218 91.5327181,61.0136326 91.5755034,61.0381711 L92.3651426,61.4943372 C92.4066695,61.5182466 92.4607802,61.5044044 92.4865772,61.4616191 L92.7206376,61.0557886 C93.1139471,61.2325923 93.5417366,61.3395554 93.9916107,61.3653523 L94.0306208,61.8164849 C94.0350252,61.8649329 94.0784396,61.9001678 94.1262584,61.8963926 L95.0348154,61.8171141 C95.0832634,61.8120805 95.1197567,61.7692953 95.1147232,61.7214765 L95.0750839,61.2590185 C95.4985319,61.150797 95.8930369,60.9670721 96.2466443,60.7229446 L96.5832634,61.125 C96.6153523,61.1614933 96.6713507,61.1665268 96.707844,61.1356963 L97.4068792,60.5492869 C97.4446309,60.5178272 97.4496644,60.4618289 97.4175755,60.4253356 L97.0444631,59.9798658 C97.2973993,59.667156 97.5044044,59.3122903 97.6547819,58.9272232 L98.2795721,59.0939597 C98.3261326,59.1065436 98.3745805,59.0782299 98.3865352,59.0316695 L98.6224832,58.150797 C98.63513,58.1036074 98.6080117,58.0545302 98.560193,58.0425755 L97.9114933,57.8689178 C97.926594,57.7260906 97.9335151,57.5813758 97.9335151,57.4341443 C97.9335151,57.1786913 97.9108641,56.9307886 97.8674497,56.6891779 L98.5029362,56.4582634 C98.5482383,56.4412752 98.5721477,56.3909396 98.5557886,56.3450084 L98.2430789,55.4880453 C98.2267198,55.4427433 98.175755,55.4182047 98.130453,55.435193 L97.5302013,55.6535235 C97.3502517,55.2816695 97.1161913,54.9437919 96.8380872,54.6518456 L97.1740772,54.1711409 C97.2017617,54.1315017 97.1923238,54.0761326 97.1526846,54.0478188 L96.4045721,53.5249581 C96.3649329,53.4966443 96.310193,53.5067114 96.2825084,53.5469799 L95.980495,53.977349 C95.6117869,53.7653104 95.2053272,53.6168205 94.7737626,53.5450923 L94.7737626,53.059354 C94.7737626,53.010906 94.7334312,52.9712668 94.6849832,52.9712668" id="Fill-2838" fill="#142633"></path>
            <path d="M94.1885487,60.0830537 C92.7256711,60.0830537 91.5390101,58.8970218 91.5390101,57.4341443 C91.5390101,55.9706376 92.7256711,54.7846057 94.1885487,54.7846057 L94.1885487,55.5220218 C95.2367869,55.5220218 96.0874581,56.3645134 96.1006711,57.4096057 C96.0874581,56.3645134 95.2367869,55.5220218 94.1885487,55.5220218 C93.1327601,55.5220218 92.275797,56.3777265 92.275797,57.4341443 C92.275797,58.4899329 93.1327601,59.346896 94.1885487,59.346896 C95.2449664,59.346896 96.1006711,58.4899329 96.1006711,57.4341443 C96.1006711,58.4899329 95.2449664,59.346896 94.1885487,59.346896 L94.1885487,60.0830537" id="Fill-2839" fill="#3A505B"></path>
            <path d="M94.1885487,61.8907299 L94.1885487,60.0830537 C95.6520554,60.0830537 96.8380872,58.8970218 96.8380872,57.4341443 C96.8380872,55.9706376 95.6520554,54.7846057 94.1885487,54.7846057 L94.1885487,52.9712668 L94.6849832,52.9712668 C94.7334312,52.9712668 94.7737626,53.010906 94.7737626,53.059354 L94.7737626,53.5450923 C95.2053272,53.6168205 95.6117869,53.7653104 95.980495,53.977349 L96.2825084,53.5469799 C96.2994966,53.5224413 96.3271812,53.5092282 96.3548658,53.5092282 C96.371854,53.5092282 96.3894715,53.5142617 96.4045721,53.5249581 L97.1526846,54.0478188 C97.176594,54.0654362 97.189807,54.0924916 97.189807,54.1201762 C97.189807,54.1377936 97.1847735,54.1554111 97.1740772,54.1711409 L96.8380872,54.6518456 C97.1161913,54.9437919 97.3502517,55.2816695 97.5302013,55.6535235 L98.130453,55.435193 C98.1398909,55.4314178 98.150021,55.4295302 98.1600252,55.4295302 C98.1958893,55.4295302 98.230495,55.4528104 98.2430789,55.4880453 L98.5557886,56.3450084 C98.5589346,56.3550755 98.5608221,56.3651426 98.5608221,56.3752097 C98.560193,56.4110738 98.5381711,56.4450503 98.5029362,56.4582634 L97.8674497,56.6891779 C97.9108641,56.9307886 97.9335151,57.1786913 97.9335151,57.4341443 C97.9335151,57.5813758 97.926594,57.7260906 97.9114933,57.8689178 L98.560193,58.0425755 C98.5998322,58.0526426 98.625,58.0878775 98.6256292,58.1262584 C98.6256292,58.1344379 98.625,58.1426174 98.6224832,58.150797 L98.3865352,59.0316695 C98.3764681,59.0706795 98.340604,59.0971057 98.3022232,59.0971057 C98.2946728,59.0971057 98.2871225,59.0958473 98.2795721,59.0939597 L97.6547819,58.9272232 C97.5044044,59.3122903 97.2973993,59.667156 97.0444631,59.9798658 L97.4175755,60.4253356 C97.4314178,60.4410654 97.4384018,60.4605705 97.4384018,60.4807047 C97.4389681,60.5058725 97.4282718,60.5316695 97.4068792,60.5492869 L96.707844,61.1356963 C96.6914849,61.1495386 96.6719799,61.1558305 96.6518456,61.1558305 C96.6266779,61.1558305 96.6015101,61.1451342 96.5832634,61.125 L96.2466443,60.7229446 C95.8930369,60.9670721 95.4985319,61.150797 95.0750839,61.2590185 L95.1147232,61.7214765 C95.1153523,61.7239933 95.1153523,61.7271393 95.1153523,61.7302852 C95.1153523,61.7749581 95.0801174,61.8127097 95.0348154,61.8171141 L94.1885487,61.8907299" id="Fill-2841" fill="#233A48"></path>
            <path d="M94.1885487,60.0830537 L94.1885487,59.346896 C95.2449664,59.346896 96.1006711,58.4899329 96.1006711,57.4341443 C96.1006711,57.4259648 96.1006711,57.4177852 96.1006711,57.4096057 C96.0874581,56.3645134 95.2367869,55.5220218 94.1885487,55.5220218 L94.1885487,54.7846057 C95.6520554,54.7846057 96.8380872,55.9706376 96.8380872,57.4341443 C96.8380872,58.8970218 95.6520554,60.0830537 94.1885487,60.0830537" id="Fill-2842" fill="#4E626B"></path>
            <path d="M115.736577,50.5060822 C115.736577,54.2321728 112.715185,57.2535654 108.989094,57.2535654 C105.263003,57.2535654 102.240982,54.2321728 102.240982,50.5060822 C102.240982,46.7793624 105.263003,43.758599 108.989094,43.758599 C112.715185,43.758599 115.736577,46.7793624 115.736577,50.5060822" id="Fill-2843" fill="#3B3C3A"></path>
            <path d="M115.220638,50.0404782 C115.220638,53.767198 112.199308,56.7879614 108.473154,56.7879614 C104.746435,56.7879614 101.7263,53.767198 101.7263,50.0404782 C101.7263,46.3143876 104.746435,43.292995 108.473154,43.292995 C112.199308,43.292995 115.220638,46.3143876 115.220638,50.0404782" id="Fill-2844" fill="#CFEBF2"></path>
            <path d="M111.269295,47.1537332 C111.269295,47.1537332 107.324874,46.1312919 105.084941,49.7560822 L106.63276,52.0035654 C110.818226,51.2038591 111.269295,47.1537332 111.269295,47.1537332" id="Fill-2845" fill="#E15E2E"></path>
            <path d="M105.917366,50.9647651 L105.900378,50.9395973 L105.084941,49.7560822 C105.084941,49.7560822 104.908767,50.3185822 105.003775,50.6262584 L105.439178,51.2573406 L105.456166,51.2825084 L105.83557,51.8336829 C106.067743,52.0010487 106.630243,52.0004195 106.630243,52.0004195 L105.917366,50.9647651" id="Fill-2846" fill="#2C4F91"></path>
            <polyline id="Fill-2847" fill="#D35F2C" points="105.460633 52.0136326 104.655831 50.8445889 104.994337 50.6117869 105.798448 51.7808305 105.460633 52.0136326"></polyline>
            <polyline id="Fill-2848" fill="#AE243D" points="105.217701 51.9997903 104.582215 51.0767617 104.740772 50.9672819 105.375629 51.8903104 105.217701 51.9997903"></polyline>
            <polyline id="Fill-2849" fill="#FBE956" points="106.746644 48.3687081 104.306628 48.3246644 105.469379 49.8919883 106.746644 48.3687081"></polyline>
            <polyline id="Fill-2850" fill="#FBE956" points="108.563758 50.7653104 107.73448 53.0606124 106.684354 51.4152685 108.563758 50.7653104"></polyline>
            <path d="M110.916317,48.4505034 C111.207634,47.7099413 111.269295,47.1537332 111.269295,47.1537332 C111.269295,47.1537332 110.727559,47.0134228 109.931628,47.0209732 L110.916317,48.4505034" id="Fill-2851" fill="#DB362A"></path>
            <polyline id="Fill-2852" fill="#D92D36" points="103.55474 52.4641359 104.49482 52.3892617 105.434773 52.3150168 104.899958 51.5379614 104.364513 50.7615352 103.959941 51.6128356 103.55474 52.4641359"></polyline>
            <polyline id="Fill-2853" fill="#DB354C" points="103.942953 52.1696728 104.612416 52.1312919 105.281879 52.0929111 104.492869 50.9465185 103.942953 52.1696728"></polyline>
            <polyline id="Fill-2854" fill="#FAD353" points="104.431208 51.8229866 104.791107 51.8626258 105.150378 51.9022651 104.613045 51.1220638 104.522441 51.4725252 104.431208 51.8229866"></polyline>
            <path d="M107.73448,53.0606124 L107.007131,51.9211409 C106.927286,51.9412752 106.84612,51.960151 106.763003,51.9771393 C106.84612,51.960151 106.927852,51.9412752 107.007131,51.9211409 L107.73448,53.0606124 L108.325986,51.4228188 C108.54677,51.3064178 108.751258,51.1793205 108.940646,51.0446728 C108.751258,51.1793205 108.54677,51.3064178 108.325986,51.4228188 L107.73448,53.0606124 M105.239094,52.03125 L104.899958,51.5379614 L104.887374,51.5197148 L105.217701,51.9997903 L105.375629,51.8903104 L105.058515,51.4291107 L105.460633,52.0136326 L105.798448,51.7808305 L105.383809,51.1780621 L105.439178,51.2573406 L105.456166,51.2825084 L105.83557,51.8336829 C106.067743,52.0010487 106.630243,52.0004195 106.630243,52.0004195 L105.917366,50.9647651 L105.900378,50.9395973 L105.845638,50.8603188 L105.858851,50.8798238 L106.63276,52.0035654 L106.630243,52.0004195 C106.630243,52.0004195 106.067743,52.0010487 105.83557,51.8336829 L105.798448,51.7808305 L105.460633,52.0136326 L105.375629,51.8903104 L105.217701,51.9997903 L105.239094,52.03125 M108.941275,51.0503473 C108.949275,51.0453473 108.956275,51.0393473 108.964275,51.0333473 C108.956275,51.0393473 108.948275,51.0453473 108.941275,51.0503473 M108.957005,51.0382802 C108.964005,51.0332802 108.971005,51.0282802 108.978005,51.0232802 C108.971005,51.0282802 108.964005,51.0332802 108.957005,51.0382802 M108.973364,51.0252131 C108.979364,51.0212131 108.985364,51.0172131 108.991364,51.0132131 C108.985364,51.0172131 108.979364,51.0212131 108.973364,51.0252131 M108.989723,51.013146 C108.993723,51.009146 108.998723,51.006146 109.002723,51.003146 C108.998723,51.006146 108.993723,51.009146 108.989723,51.013146 M109.006082,51.0000789 C109.009082,50.9970789 109.012082,50.9950789 109.015182,50.9930789 C109.012082,50.9950789 109.009082,50.9970789 109.006082,51.0000789 M109.021183,50.9880117 C109.023183,50.9860117 109.025183,50.9850117 109.027283,50.9830117 C109.025183,50.9850117 109.023183,50.9860117 109.021183,50.9880117 M109.036284,50.974203 C109.037284,50.974203 109.037284,50.974203 109.037284,50.974203 C109.037284,50.974203 109.037284,50.974203 109.036284,50.974203 M111.261745,47.225047 C111.264745,47.209047 111.266845,47.194047 111.268745,47.182047 C111.266845,47.194047 111.264745,47.208047 111.262745,47.224047 L111.261745,47.225047 M111.266779,47.1846544 C111.267779,47.1746544 111.268779,47.1666544 111.269879,47.1606544 L111.269879,47.1616544 C111.268779,47.1676544 111.267779,47.1756544 111.266779,47.1846544" id="Fill-2855" fill="#A2B7BB"></path>
            <path d="M106.63276,52.0035654 L105.858851,50.8798238 L105.845638,50.8603188 L110.410445,47.7162332 L110.916317,48.4505034 C110.609899,49.2313339 110.048658,50.2179111 109.036913,50.974203 C109.036913,50.974203 109.036913,50.974203 109.036284,50.974203 C109.032508,50.977349 109.028733,50.9798658 109.025021,50.9830117 C109.0237,50.9842701 109.022441,50.9848993 109.021183,50.9861577 C109.018037,50.9886745 109.014891,50.9905621 109.011808,50.9930789 C109.009857,50.9943372 109.00797,50.9955956 109.006082,50.9974832 C109.002936,50.9993708 109.000419,51.0012584 108.997903,51.003146 C108.995386,51.0050336 108.99224,51.0069211 108.989723,51.0094379 C108.987836,51.0106963 108.985948,51.0119547 108.98469,51.0132131 C108.980914,51.0157299 108.977139,51.0182466 108.973364,51.0207634 C108.972735,51.0213926 108.971477,51.022651 108.970218,51.0232802 C108.965814,51.0264262 108.961409,51.0295721 108.957005,51.0327181 C108.956439,51.0333473 108.956439,51.0333473 108.955747,51.0333473 C108.950713,51.0371225 108.946309,51.0408977 108.941275,51.0440436 L108.940646,51.0446728 C108.751258,51.1793205 108.54677,51.3064178 108.325986,51.4228188 L108.563758,50.7653104 L106.684354,51.4152685 L107.007131,51.9211409 C106.927852,51.9412752 106.84612,51.960151 106.763003,51.9771393 C106.720218,51.9865772 106.676804,51.9953859 106.63276,52.0035654 M111.261745,47.2376544 C111.267745,47.2006544 111.270745,47.1746544 111.272845,47.1606544 C111.271745,47.1666544 111.270745,47.1746544 111.269745,47.1846544 C111.269745,47.1876544 111.268745,47.1916544 111.268745,47.1946544 C111.266845,47.2066544 111.264745,47.2216544 111.261745,47.2376544" id="Fill-2856" fill="#BB4E2D"></path>
            <path d="M106.630243,52.0004195 C106.630243,52.0004195 106.067743,52.0010487 105.83557,51.8336829 L105.456166,51.2825084 L105.439178,51.2573406 L105.383809,51.1780621 L105.845638,50.8603188 L105.900378,50.9395973 L105.917366,50.9647651 L106.630243,52.0004195" id="Fill-2857" fill="#213D80"></path>
            <polyline id="Fill-2858" fill="#A54E2D" points="105.460633 52.0136326 105.058515 51.4291107 105.045931 51.4108641 105.383809 51.1780621 105.798448 51.7808305 105.460633 52.0136326"></polyline>
            <polyline id="Fill-2860" fill="#C3B445" points="107.73448 53.0606124 106.684354 51.4152685 108.563758 50.7653104 108.325986 51.4228188 107.73448 53.0606124"></polyline>
            <path d="M110.916317,48.4505034 L110.410445,47.7162332 L111.237836,47.1461829 C111.248532,47.1486997 111.256711,47.1505872 111.261745,47.1518456 L111.264954,47.1524748 L111.269295,47.1537332 L111.268729,47.1581376 L111.268729,47.1606544 C111.267408,47.1694631 111.26552,47.1858221 111.261745,47.2091023 L111.261116,47.2109899 C111.237836,47.3708054 111.152265,47.8496225 110.916317,48.4505034" id="Fill-2861" fill="#B92A2B"></path>
            <path d="M103.943582,52.1696728 L104.44505,51.824245 L104.791107,51.8626258 L105.150378,51.9022651 L105.281879,52.0929111 L104.612416,52.1312919 L103.943582,52.1696728 M105.124581,51.8645134 L104.886745,51.520344 L104.887374,51.5197148 L105.124581,51.8645134" id="Fill-2864" fill="#BA263E"></path>
            <path d="M107.861577,53.5356544 C107.821938,53.5356544 107.783557,53.5406879 107.747064,53.5488674 C107.630034,53.0524329 107.247483,52.6881292 106.793205,52.6881292 C106.458473,52.6881292 106.162752,52.8856963 105.98406,53.1889681 C105.869547,53.133599 105.741191,53.1015101 105.605977,53.1015101 C105.134648,53.1015101 104.753985,53.4790268 104.753985,53.9446309 C104.753985,54.0106963 104.761535,54.0748742 104.776007,54.1371644 L108.342974,54.1371644 C108.351154,54.1013003 108.356187,54.0635487 108.356187,54.0251678 C108.356187,53.7546141 108.134018,53.5356544 107.861577,53.5356544" id="Fill-2866" fill="#454542"></path>
            <path d="M107.624371,53.5356544 C107.584732,53.5356544 107.546351,53.5406879 107.509857,53.5488674 C107.393456,53.0524329 107.010277,52.6881292 106.556628,52.6881292 C106.221267,52.6881292 105.926174,52.8856963 105.746854,53.1889681 C105.63297,53.133599 105.504614,53.1015101 105.368708,53.1015101 C104.898133,53.1015101 104.516841,53.4790268 104.516841,53.9446309 C104.516841,54.0106963 104.524329,54.0748742 104.53943,54.1371644 L108.106334,54.1371644 C108.114513,54.1013003 108.118918,54.0635487 108.118918,54.0251678 C108.118918,53.7546141 107.897504,53.5356544 107.624371,53.5356544" id="Fill-2867" fill="#72C7D7"></path>
            <path d="M108.106334,54.1371644 L106.514471,54.1371644 L106.514471,52.6893876 C106.526426,52.6887584 106.53901,52.6881292 106.550965,52.6881292 C106.552852,52.6881292 106.55474,52.6881292 106.556628,52.6881292 C107.010277,52.6881292 107.393456,53.0524329 107.509857,53.5488674 C107.546351,53.5406879 107.584732,53.5356544 107.624371,53.5356544 C107.897504,53.5356544 108.118918,53.7546141 108.118918,54.0251678 C108.118918,54.0635487 108.114513,54.1013003 108.106334,54.1371644" id="Fill-2869" fill="#589FAC"></path>
            <path d="M109.184773,45.6713507 C109.125629,45.6713507 109.067743,45.6782718 109.012374,45.6914849 C108.836263,44.9421141 108.258599,44.392198 107.573406,44.392198 C107.068163,44.392198 106.622064,44.6910654 106.35151,45.1478607 C106.17974,45.0641779 105.986577,45.0169883 105.78146,45.0169883 C105.071728,45.0169883 104.496015,45.5857802 104.496015,46.2879614 C104.496015,46.3880034 104.50797,46.4855285 104.529992,46.5786493 L109.912122,46.5786493 C109.924706,46.5245386 109.931628,46.4679111 109.931628,46.4100252 C109.931628,46.002307 109.597525,45.6713507 109.184773,45.6713507" id="Fill-2870" fill="#454542"></path>
            <path d="M108.827391,45.6713507 C108.76768,45.6713507 108.710361,45.6782718 108.654362,45.6914849 C108.478817,44.9421141 107.901846,44.392198 107.216023,44.392198 C106.711409,44.392198 106.264681,44.6910654 105.994128,45.1478607 C105.822987,45.0641779 105.629195,45.0169883 105.424077,45.0169883 C104.714346,45.0169883 104.138633,45.5857802 104.138633,46.2879614 C104.138633,46.3880034 104.149958,46.4855285 104.172609,46.5786493 L109.55474,46.5786493 C109.567953,46.5245386 109.574245,46.4679111 109.574245,46.4100252 C109.574245,46.002307 109.239576,45.6713507 108.827391,45.6713507" id="Fill-2871" fill="#72C7D7"></path>
            <path d="M109.55474,46.5786493 L107.153104,46.5786493 L107.153104,44.3940856 C107.173867,44.3934564 107.194631,44.392198 107.216023,44.392198 C107.901846,44.392198 108.478817,44.9421141 108.654362,45.6914849 C108.710361,45.6782718 108.76768,45.6713507 108.827391,45.6713507 C109.239576,45.6713507 109.574245,46.002307 109.574245,46.4100252 C109.574245,46.4679111 109.567953,46.5245386 109.55474,46.5786493" id="Fill-2872" fill="#589FAC"></path>
            <path d="M114.263066,51.0377517 C114.211409,51.0377517 114.162332,51.0440436 114.115143,51.0547399 C113.963507,50.411703 113.467701,49.9404362 112.880034,49.9404362 C112.446518,49.9404362 112.063339,50.1965185 111.831229,50.5885067 C111.683305,50.5167785 111.51789,50.4758809 111.342345,50.4758809 C110.732655,50.4758809 110.238045,50.9641359 110.238045,51.5675336 C110.238045,51.653104 110.248742,51.7367869 110.267617,51.8166946 L114.887164,51.8166946 C114.897861,51.7701342 114.904153,51.7216862 114.904153,51.6719799 C114.904153,51.3215185 114.616611,51.0377517 114.263066,51.0377517" id="Fill-2873" fill="#454542"></path>
            <path d="M113.955956,51.0377517 C113.904992,51.0377517 113.855285,51.0440436 113.807466,51.0547399 C113.657089,50.411703 113.161284,49.9404362 112.573049,49.9404362 C112.139534,49.9404362 111.756292,50.1965185 111.524119,50.5885067 C111.376888,50.5167785 111.21078,50.4758809 111.035235,50.4758809 C110.425545,50.4758809 109.931628,50.9641359 109.931628,51.5675336 C109.931628,51.653104 109.941695,51.7367869 109.960633,51.8166946 L114.58018,51.8166946 C114.591443,51.7701342 114.597106,51.7216862 114.597106,51.6719799 C114.597106,51.3215185 114.309564,51.0377517 113.955956,51.0377517" id="Fill-2874" fill="#72C7D7"></path>
            <path d="M114.58018,51.8166946 L112.518247,51.8166946 L112.518247,49.9416946 C112.536493,49.9404362 112.55474,49.9404362 112.573049,49.9404362 C113.161284,49.9404362 113.657089,50.411703 113.807466,51.0547399 C113.855285,51.0440436 113.904992,51.0377517 113.955956,51.0377517 C114.309564,51.0377517 114.597106,51.3215185 114.597106,51.6719799 C114.597106,51.7216862 114.591443,51.7701342 114.58018,51.8166946" id="Fill-2876" fill="#589FAC"></path>
            <path d="M113.79117,66.6719799 C113.79117,70.3986997 110.771036,73.4194631 107.043624,73.4194631 C103.317534,73.4194631 100.29677,70.3986997 100.29677,66.6719799 C100.29677,62.9458893 103.317534,59.9244966 107.043624,59.9244966 C110.771036,59.9244966 113.79117,62.9458893 113.79117,66.6719799" id="Fill-2877" fill="#3B3C3A"></path>
            <path d="M113.217911,66.2818792 C113.217911,70.008599 110.197148,73.0293624 106.470428,73.0293624 C102.744337,73.0293624 99.7229446,70.008599 99.7229446,66.2818792 C99.7229446,62.5557886 102.744337,59.5350252 106.470428,59.5350252 C110.197148,59.5350252 113.217911,62.5557886 113.217911,66.2818792" id="Fill-2878" fill="#E2614E"></path>
            <path d="M106.485591,64.7353188 C106.26531,64.7302852 104.315436,64.7428691 104.31229,66.9293205 C104.311095,67.7906879 105.500839,69.5731963 105.500839,69.5731963 L107.46896,69.5731963 C107.46896,69.5731963 108.659396,67.7906879 108.658138,66.9293205 C108.654992,64.7428691 106.705747,64.7302852 106.485591,64.7353188" id="Fill-2879" fill="#FCEF67"></path>
            <path d="M106.077873,67.9366108 C106.095773,67.9426108 106.125873,67.9476108 106.163773,67.9516108 C106.128773,67.9266108 106.103773,67.9216108 106.089773,67.9266108 L106.077873,67.9366108 M106.75992,69.6329698 C106.758599,69.6291946 106.669883,69.2246225 106.663591,68.4721057 C106.661074,68.2544044 106.67932,68.0889262 106.717072,67.9769295 C106.667995,67.9851091 106.612626,67.9863674 106.551594,67.9756711 C106.505663,67.9674916 106.476783,67.949245 106.457844,67.9278523 C106.40625,67.9668624 106.337668,67.9888842 106.267198,67.9989513 C106.274748,68.0083893 106.281669,68.0197148 106.28922,68.0310403 C106.443372,68.269505 106.346477,69.5731963 106.341443,69.6285654 L106.280411,69.6241611 C106.308725,69.252307 106.356544,68.2481124 106.237626,68.0650168 C106.222525,68.0417366 106.208054,68.0216023 106.194841,68.0046141 C106.17974,68.0052433 106.164639,68.0046141 106.150797,68.0039849 C106.022441,67.9983221 106.016779,67.9624581 106.014891,67.9505034 C106.00992,67.9215604 106.026216,67.8831795 106.063339,67.8687081 C106.097315,67.855495 106.150168,67.8611577 106.221896,67.9416946 C106.264681,67.9379195 106.310612,67.9303691 106.353398,67.9146393 C106.384228,67.9026846 106.409396,67.8888423 106.429593,67.871854 L106.428272,67.8693372 C106.415688,67.800755 106.45344,67.7258809 106.48427,67.7057466 C106.5,67.6963087 106.516988,67.6956795 106.530201,67.7057466 C106.551594,67.7208473 106.55474,67.7516779 106.53901,67.8095638 C106.53146,67.8385067 106.518876,67.8636745 106.501888,67.8850671 C106.513842,67.9001678 106.534606,67.9102349 106.562982,67.9152685 C106.633389,67.9278523 106.69505,67.9215604 106.746644,67.9077181 C106.766779,67.8687081 106.791317,67.8403943 106.82026,67.823406 C106.869966,67.7925755 106.919673,67.8045302 106.941065,67.8158557 L106.97693,67.8359899 L106.947987,67.8649329 C106.944211,67.8687081 106.887584,67.9247064 106.78943,67.9580537 C106.753565,68.0392198 106.722106,68.1902265 106.724622,68.4714765 C106.731544,69.2177013 106.818372,69.6153523 106.819631,69.6197567 L106.75992,69.6329698" id="Fill-2880" fill="#484745"></path>
            <path d="M105.500839,69.5731963 L105.500839,70.6126258 C105.500839,70.7485319 105.606544,70.8580117 105.736158,70.8580117 L107.234899,70.8580117 C107.363884,70.8580117 107.46896,70.7485319 107.46896,70.6126258 L107.46896,69.5731963 L105.500839,69.5731963" id="Fill-2881" fill="#1D2736"></path>
            <path d="M107.46896,69.5776007 L107.46896,69.5731963 L107.046141,69.5731963 L107.46896,69.5731963 C107.46896,69.5731963 108.656879,67.7938339 108.658139,66.9318372 C108.658138,66.9324664 108.658138,66.9324664 108.658138,66.9330956 C108.659396,67.7938339 107.46896,69.5776007 107.46896,69.5776007" id="Fill-2891" fill="#CF5746"></path>
            <path d="M107.46896,69.5731963 L107.046141,69.5731963 C108.137227,67.5528523 107.407928,65.5029362 107.097735,64.8076762 C107.744547,64.9599413 108.655621,65.4387584 108.658138,66.9318372 C108.656879,67.7938339 107.46896,69.5731963 107.46896,69.5731963" id="Fill-2892" fill="#DFD55C"></path>
            <path d="M105.405201,66.2252517 C105.1875,66.2252517 105.00818,66.1371644 104.95344,65.9817534 C104.87479,65.7577601 105.086892,65.4790268 105.426594,65.3588507 C105.53104,65.3223574 105.636179,65.3047399 105.733012,65.3047399 C105.951342,65.3047399 106.130663,65.3934564 106.185466,65.5482383 C106.264681,65.7722315 106.052643,66.0509648 105.712248,66.1705117 C105.607173,66.2076342 105.502727,66.2252517 105.405201,66.2252517" id="Fill-2895" fill="#FDF5A2"></path>
            <polyline id="Fill-2896" fill="#FCEF67" points="103.150168 62.8697567 103.218121 62.809354 105.051594 64.6742869 104.983641 64.7346896 103.150168 62.8697567"></polyline>
            <polyline id="Fill-2898" fill="#FCEF67" points="101.269505 67.9958054 101.251258 67.9089765 103.85927 67.4012164 103.878146 67.4886745 101.269505 67.9958054"></polyline>
            <polyline id="Fill-2899" fill="#FCEF67" points="109.608221 62.8697567 109.540898 62.809354 107.707424 64.6742869 107.775378 64.7346896 109.608221 62.8697567"></polyline>
            <polyline id="Fill-2901" fill="#FCEF67" points="111.597106 67.7875419 111.615982 67.7000839 109.007341 67.192953 108.989094 67.2797819 111.597106 67.7875419"></polyline>
        </g>
    </g>
</svg>